<svg width="26" height="27" viewBox="0 0 26 27" fill="none" xmlns="http://www.w3.org/2000/svg">
<g clip-path="url(#clip0_2647_1723)">
<path d="M26 21.3012C26 24.1727 23.6727 26.501 20.7992 26.501H5.19979C2.32833 26.501 0 24.1727 0 21.3012V5.70083C0 2.82833 2.32833 0.5 5.19979 0.5H20.7992C23.6727 0.5 26 2.82833 26 5.70083V21.3012Z" fill="#E52C32"/>
<path d="M20.6153 2.48779H5.38463C3.44263 2.48779 1.86826 4.06736 1.86826 6.01663V14.388C1.86826 16.3373 3.44263 17.9169 5.38463 17.9169H10.6312L12.4215 20.8319C12.4215 20.8319 12.4413 20.8662 12.4797 20.915C12.5846 21.0947 12.7777 21.2162 13 21.2162C13.2222 21.2162 13.4133 21.0957 13.5182 20.9181C13.5629 20.8652 13.5784 20.8309 13.5784 20.8309L15.3688 17.9158H20.6153C22.5573 17.9158 24.1317 16.3363 24.1317 14.387V6.01663C24.1317 4.06736 22.5573 2.48779 20.6153 2.48779Z" fill="white"/>
<path d="M6.8126 8.62227C6.8126 8.62227 6.20507 8.62227 5.65363 9.15917V6.99805H4.29007V12.6766H5.66713V12.2321C5.66713 12.2321 5.99218 12.8189 6.81156 12.8189C6.81156 12.8189 8.73279 12.7482 8.73279 10.6993C8.73279 10.6993 8.66217 8.62227 6.81156 8.62227H6.8126ZM6.51247 11.6194C6.02853 11.6194 5.63597 11.2268 5.63597 10.7429C5.63597 10.259 6.02853 9.86743 6.51247 9.86743C6.99641 9.86743 7.38793 10.26 7.38793 10.7429C7.38793 11.2258 6.99537 11.6194 6.51247 11.6194Z" fill="#E52C32"/>
<path d="M9.17105 6.87012V8.18383C9.17105 8.18383 9.79312 8.15579 9.79312 9.31372V12.6754H11.1068V9.00321C11.1068 9.00321 11.1629 6.87012 9.17105 6.87012Z" fill="#E52C32"/>
<path d="M14.3199 8.63965C14.3199 8.63965 12.0674 8.63965 12.0674 10.7426C12.0674 10.7426 11.9947 12.8176 14.3199 12.8176C14.3199 12.8176 16.6244 12.8144 16.6244 10.7426C16.6244 10.7426 16.6992 8.63965 14.3199 8.63965ZM14.3199 11.6191C13.836 11.6191 13.4434 11.2266 13.4434 10.7426C13.4434 10.2587 13.836 9.86716 14.3199 9.86716C14.8039 9.86716 15.1954 10.2597 15.1954 10.7426C15.1954 11.2255 14.8028 11.6191 14.3199 11.6191Z" fill="#E52C32"/>
<path d="M20.3848 8.77767V9.1588C20.3848 9.1588 19.9933 8.63955 19.2414 8.63955C19.2414 8.63955 17.3129 8.55855 17.3129 10.728C17.3129 10.728 17.2911 12.75 19.1884 12.75C19.1884 12.75 19.9621 12.7811 20.3848 12.2307V12.5485C20.3848 12.5485 20.4803 13.5444 19.5166 13.5444H19.1884V14.7522H19.7181C19.7181 14.7522 21.7099 14.774 21.7099 12.6233V8.77767H20.3858H20.3848ZM19.5696 11.619C19.0856 11.619 18.6941 11.2265 18.6941 10.7425C18.6941 10.2586 19.0856 9.86706 19.5696 9.86706C20.0535 9.86706 20.445 10.2596 20.445 10.7425C20.445 11.2254 20.0525 11.619 19.5696 11.619Z" fill="#E52C32"/>
</g>
<defs>
<clipPath id="clip0_2647_1723">
<rect width="26" height="26" fill="white" transform="translate(0 0.5)"/>
</clipPath>
</defs>
</svg>
