<svg width="12" height="10" viewBox="0 0 12 10" xmlns="http://www.w3.org/2000/svg">
<path d="M9.76271 4.59291C9.71129 2.80696 9.45877 1.59663 8.988 0.910484H9.45534C9.71815 0.910484 9.93068 0.706938 9.93068 0.455242C9.93068 0.203546 9.71815 0 9.45534 0H5.60122C5.33841 0 5.12588 0.203546 5.12588 0.455242C5.12588 0.706938 5.33841 0.910484 5.60122 0.910484H6.19996C5.76804 1.2552 5.30528 1.73014 4.80709 2.33749C4.03809 3.27643 3.42906 4.23944 3.23824 4.55242C3.11369 4.536 2.98572 4.52725 2.8566 4.52725C1.27861 4.52725 0 5.75181 0 7.26308C0 8.77435 1.27861 9.99891 2.8566 9.99891C4.43458 9.99891 5.7132 8.77435 5.7132 7.26308C5.7132 6.15343 5.02304 5.19807 4.03123 4.7691C5.14074 2.98205 6.97353 0.764938 7.91278 1.00678C8.20987 1.08339 8.86231 1.59116 8.96058 4.53381C7.46829 4.62464 6.2868 5.81199 6.2868 7.26417C6.2868 8.71635 7.56542 10 9.1434 10C10.7214 10 12 8.77544 12 7.26417C12 5.95645 11.0425 4.8643 9.76271 4.59291Z"/>
</svg>
