<svg width="56" height="54" viewBox="0 0 56 54" fill="none" xmlns="http://www.w3.org/2000/svg">
<path d="M21.2294 41.0182L21.0366 40.8724L20.9804 40.8594C20.9117 40.84 20.7491 40.8197 20.599 40.8058C20.43 40.798 20.1239 40.72 20.0613 40.7194C20.0364 40.7067 20.0051 40.7064 19.9677 40.6873C19.9552 40.6809 19.9488 40.6934 19.9364 40.687L19.8865 40.6615C19.874 40.6551 19.8677 40.6676 19.8552 40.6612C19.668 40.5969 19.5433 40.5331 19.3297 40.6125C19.2103 40.6615 19.0848 40.6917 18.9219 40.7027C18.9031 40.7088 18.9031 40.7088 18.8906 40.7024L18.8091 40.7079C18.7967 40.7015 18.7903 40.714 18.7778 40.7076C18.7091 40.6882 18.6462 40.719 18.5839 40.6871L18.5651 40.6932L18.3132 40.8474C18.2631 40.8532 18.3312 40.9352 18.2747 40.9535C18.237 40.9656 18.0622 40.9077 18.0245 40.9199L18.0121 40.9135L17.9932 40.9196C17.9179 40.9439 17.8614 40.9622 17.8173 40.9868C17.7669 41.0239 17.7228 41.0486 17.6848 41.092C17.628 41.1416 17.5588 41.1848 17.4956 41.2468L17.4327 41.2776L17.3133 41.3266L17.2628 41.3637C17.1118 41.4437 16.6823 41.853 16.5748 41.9709C16.3786 42.2008 16.1682 42.6121 16.0841 42.8994L16.0778 42.9118L16.0902 42.9182C16.1963 42.9567 16.2714 42.9637 16.3717 42.9521L16.5473 42.9161C16.5473 42.9161 16.5598 42.9225 16.5786 42.9164C16.5911 42.9228 16.5975 42.9103 16.6163 42.9042L16.6977 42.8987L16.7354 42.8866L16.9296 42.8758C16.9421 42.8822 16.9485 42.8697 16.9673 42.8636L17.0487 42.8581L17.2684 42.7975C17.4568 42.7367 17.6464 42.5506 17.7919 42.3891C17.9501 42.2027 18.4811 41.6566 18.688 41.621L18.8509 41.6099C19.0315 41.718 19.0933 41.8125 19.0924 41.9064C19.0857 41.9502 19.1092 42.1195 19.0962 42.1757L18.9562 42.4186C18.9052 42.5183 18.8293 42.6053 18.7409 42.6859L18.6464 42.7476C18.5899 42.7659 18.5707 42.8033 18.5452 42.8531L18.5006 42.9404C18.456 43.0276 18.4116 43.0835 18.336 43.1392L18.1467 43.294C17.8056 43.6227 17.3786 43.7503 17.1468 43.7732C17.0653 43.7787 16.9714 43.7778 16.8836 43.7958C16.8836 43.7958 16.8711 43.7894 16.8523 43.7955C16.8523 43.7955 16.8398 43.7891 16.821 43.7952C16.7961 43.7825 16.7082 43.8005 16.6894 43.8065L16.5575 43.8492L16.4885 43.861C16.3567 43.9037 16.1691 43.8706 16.1001 43.8825L16.0877 43.8761C15.8622 43.8866 15.6746 43.8536 15.4254 43.726L15.2384 43.6304L15.17 43.5797L15.1326 43.5606C14.9775 43.4026 14.9494 43.058 15.0201 42.8583C15.0908 42.6586 15.1554 42.44 15.2003 42.3215C15.2769 42.1719 15.4107 41.9101 15.4997 41.767C15.6461 41.5116 16.1643 40.9904 16.3854 40.7733L16.6254 40.5501C16.6761 40.4817 16.7205 40.4257 16.8086 40.3765C17.0103 40.2281 17.7966 39.8283 18.1288 39.7938C18.2416 39.7886 18.3732 39.7773 18.4923 39.7596C18.5053 39.7033 18.7439 39.6367 18.8192 39.6123C18.8694 39.6065 19.0508 39.6207 19.1068 39.665L19.1256 39.6589C19.3079 39.5792 19.5893 39.6131 19.7896 39.6212L20.0711 39.6551L20.4337 39.7148C20.4586 39.7276 20.5088 39.7218 20.5401 39.722L20.6215 39.7165L20.634 39.7229C20.8592 39.7438 21.3589 39.8736 21.5708 39.982L21.6082 40.0011C21.7702 40.084 22.3856 40.5718 22.4473 40.6662C22.5337 40.8048 22.5888 40.943 22.6815 41.0691C22.6876 41.088 22.7001 41.0943 22.7126 41.1007C22.7186 41.1196 22.7311 41.1259 22.7436 41.1323C22.7621 41.1575 22.7931 41.1891 22.8056 41.1955C22.8549 41.2836 22.8731 41.3401 22.8662 41.4152C22.872 41.4653 22.859 41.5216 22.8584 41.5842C22.8578 41.6468 22.9074 41.7036 22.9569 41.7604L23.0251 41.8424L23.0683 41.9117L23.0981 42.0685L23.1344 42.2128L23.1213 42.2691L23.1149 42.2815C23.1086 42.294 23.1147 42.3128 23.1147 42.3128L23.1205 42.363L23.1257 42.4757L23.119 42.5195C23.1242 42.6322 23.1019 43.014 23.0637 43.0888C22.9805 43.2821 22.8785 43.4815 22.7704 43.6621C22.4078 44.2786 21.5612 45.1036 20.85 45.5103C20.7807 45.5535 20.7175 45.6155 20.6294 45.6648C20.2512 45.9431 19.8602 46.2463 19.4011 46.4675C19.0991 46.6275 18.7095 46.7742 18.3829 46.8901C17.6229 47.1461 17.4464 47.276 16.6682 47.4754C16.4549 47.5236 16.2291 47.5653 15.9972 47.5882C15.9282 47.6001 15.8407 47.5868 15.7468 47.5859C15.6653 47.5914 15.5839 47.597 15.5273 47.6152C15.4395 47.6332 15.3389 47.6761 15.2387 47.6877C15.0566 47.7361 14.8819 47.6782 14.7004 47.664C14.5314 47.6562 14.35 47.642 14.1184 47.6336C13.8117 47.6182 13.512 47.5278 13.1688 47.3994C13.1439 47.3867 13.1065 47.3676 13.0627 47.3609L12.9755 47.3163C12.7761 47.2142 12.4836 47.0175 12.4413 46.8543L12.4477 46.8418C12.4479 46.8105 12.4543 46.798 12.4607 46.7856C12.461 46.7543 12.4549 46.7354 12.3926 46.7036C12.3427 46.6781 12.3627 46.5468 12.4079 46.3969C12.4467 46.2595 12.5169 46.1224 12.536 46.085C12.676 45.8421 13.1072 45.245 13.4652 45.1293C13.5406 45.105 13.6852 45.0374 13.8171 44.9948C13.9678 44.9461 14.3681 44.9936 14.5052 45.0638L14.6547 45.1403C14.8791 45.255 14.8632 45.6243 14.7933 45.7301C14.7614 45.7924 14.6609 45.8353 14.5354 45.8655C14.4099 45.8956 14.2844 45.9258 14.1716 45.931C14.0838 45.949 13.7316 46.1148 13.6998 46.1771L13.6554 46.2331L13.5731 46.3325L13.5476 46.3823C13.5096 46.4258 13.5775 46.5391 13.6772 46.5901C13.9015 46.7049 14.3206 46.7463 14.4963 46.7104C14.9667 46.6208 15.4855 46.7132 15.9374 46.5984C16.5838 46.4416 16.7791 46.3056 17.4258 46.1175L17.677 46.0258C17.7463 45.9827 17.822 45.927 17.8973 45.9026C18.2999 45.6997 18.715 45.5032 19.0677 45.2748C19.2314 45.1698 19.3329 45.033 19.4717 44.9153C19.5033 44.8843 19.6097 44.8915 19.6601 44.8544L19.8813 44.6373L19.9514 44.5002C20.0523 44.426 20.172 44.3457 20.2667 44.2527C20.2919 44.2341 20.4044 44.2602 20.4174 44.204L20.5006 44.0106C20.507 43.9982 20.5258 43.9921 20.5386 43.9672L20.6458 43.8805C20.6522 43.868 21.0374 43.5147 21.0626 43.4961C21.1194 43.4466 21.2011 43.4097 21.2519 43.3413L21.2835 43.3103L21.3153 43.248L21.3472 43.1857L21.3855 43.1109L21.4362 43.0425C21.557 42.837 21.7938 42.2819 21.7332 42.0622L21.7028 41.968L21.6422 41.7483L21.6242 41.6605C21.5691 41.5222 21.5265 41.3903 21.4213 41.2579C21.4088 41.2515 21.4152 41.2391 21.4027 41.2327L21.3595 41.1634C21.3471 41.157 21.3471 41.157 21.341 41.1382C21.3039 41.0878 21.2729 41.0562 21.2294 41.0182Z" fill="white"/>
<path d="M16.0575 35.5487L16.2193 35.6727C16.602 35.8594 16.8973 36.1633 17.1476 36.5005C17.4313 36.8827 17.7115 37.4245 17.668 37.7183L17.6535 37.8162C17.5988 38.1184 17.2744 38.6208 17.0495 38.7877C16.9709 38.8461 16.8726 38.9016 16.7856 38.9488L16.3282 39.1313C16.202 39.1727 15.6272 39.3379 15.319 39.3924C15.2348 39.4199 15.1648 39.4196 15.1423 39.4363C14.7583 39.5296 14.5004 39.5815 13.9408 39.5088C13.4595 39.4476 13.2466 39.4662 12.9361 39.4002L12.6844 39.343C12.5585 39.3144 12.4551 39.2691 12.3488 39.2433L12.2817 39.2234C11.8262 39.056 11.6441 39.0691 11.2926 38.8069C11.047 38.6405 10.5979 38.2939 10.3726 37.9904C10.2057 37.7656 10.0141 37.437 10.0068 37.2158C10.0068 37.2158 10.0097 37.1962 10.0209 37.1878L10.0492 37.132C10.0605 37.1236 10.0633 37.1041 10.0633 37.1041C10.0691 37.0649 10.0104 37.0562 10.0274 37.0087C10.0731 36.8353 10.3638 36.3579 10.5774 36.1994C10.6898 36.1159 10.8106 36.0437 10.9172 35.9994C10.8794 35.7137 11.0879 35.4543 11.3628 35.3548L11.6573 35.2583C11.6634 35.1491 11.6275 35.0537 11.5524 34.9526C11.5023 34.8851 11.2099 34.5617 11.1148 34.5276C10.9248 34.4595 10.5446 34.3232 10.4557 34.1799L10.414 34.1237C10.3473 34.0338 10.4064 33.9725 10.4995 33.8162C10.6344 33.716 10.7044 33.7164 10.8919 33.7341C11.3145 33.7866 12.0814 34.4204 12.3622 34.8221C12.429 34.9121 12.4845 35.0103 12.5175 35.1253C12.7837 35.0846 13.0387 35.0523 13.4503 35.0431C14.3436 35.0251 14.7861 35.0105 15.5714 35.3167C15.7223 35.3791 15.8369 35.4161 15.9653 35.4951L16.0575 35.5487ZM16.3569 37.8546C16.5317 37.6203 16.3658 37.1855 16.2407 37.0169L16.2323 37.0056C16.1851 36.9186 16.208 36.8319 16.1662 36.7757L15.9239 36.5197C15.8347 36.4465 15.7088 36.4178 15.6475 36.3587C15.469 36.2123 15.2869 36.2254 15.0327 36.1177C14.239 35.8002 13.5724 35.8417 12.381 36.1159C12.2882 36.2022 12.1758 36.2856 12.0409 36.3858C12.0072 36.4108 11.9622 36.4442 11.9202 36.458C11.9144 36.4972 11.9002 36.5251 11.8861 36.553C11.8466 36.6172 11.7512 36.6532 11.6166 36.6833C11.5187 36.6688 11.415 36.6935 11.3142 36.6986C11.2329 36.7066 11.0023 36.9127 11.0793 37.2043C11.068 37.2126 11.207 37.4233 11.2153 37.4345L11.3155 37.5694C11.4657 37.7718 11.6717 38.0024 11.9873 38.1691C12.2024 38.271 12.4324 38.2049 12.6699 38.2901C12.7733 38.3354 12.8796 38.3611 12.9859 38.3869C13.1676 38.4438 13.3105 38.4249 13.4559 38.4564C13.5343 38.468 13.6043 38.4683 13.6797 38.4995C14.021 38.56 14.5339 38.4757 15.125 38.403C15.3687 38.379 15.5794 38.24 15.7252 38.2015C15.7531 38.2157 15.9635 38.1467 15.9747 38.1384C16.1122 38.0886 16.2333 37.9464 16.3569 37.8546Z" fill="white"/>
<path d="M14.8945 31.5194C14.9725 31.8318 14.9046 32.0219 14.7517 32.2766L14.7008 32.3615C14.5208 32.6229 14.042 32.959 13.7567 33.0302C13.6752 33.0506 13.5632 33.0642 13.4647 33.0743L13.1761 33.0743C13.0607 33.0743 12.8128 33.064 12.6328 33.0369C12.2593 32.9859 11.8723 32.8805 11.4954 32.816C11.1762 32.7514 10.9012 32.6903 10.7857 32.6902L10.0523 32.6426L9.44453 32.578L8.91146 32.4081L8.42929 32.4997L8.06257 32.4759L7.94373 32.4623C7.74001 32.4555 7.5193 32.4385 7.30538 32.4486L6.90132 32.4486L6.2392 32.3975C5.29866 32.3295 3.30554 32.0915 3.03745 31.0185C2.93226 30.5974 3.19376 30.2579 3.60124 30.1561L3.79139 30.1086C4.00871 30.0543 4.87117 30.0409 5.17337 30.0375C5.53329 30.0342 5.92378 30.0376 6.26671 30.0818L6.59607 30.1294L7.41435 30.4012L7.80143 30.4488C8.06966 30.5405 8.34128 30.6458 8.66044 30.7681C8.86077 30.819 9.0543 30.9005 9.27839 30.9889L9.56359 31.0908L9.87256 31.23L10.3683 31.4237L10.9862 31.7022C11.3733 31.7498 11.7875 31.7906 12.1916 31.8484L12.4666 31.9672L13.0676 32.1201C13.2272 32.1236 13.4173 32.0183 13.5294 32.0048C13.5837 31.9912 13.6143 31.9403 13.6313 31.9504L13.8249 31.6856L13.9505 31.5532L13.8826 31.2816C13.5805 31.054 13.1833 30.5039 12.8472 30.3137L12.7928 30.2695L12.674 30.1982L12.6197 30.1541C12.5857 30.1337 12.5009 30.0827 12.4533 30.0658C12.141 29.9129 11.8252 29.7465 11.4925 29.6276C11.1122 29.4917 10.7251 29.3864 10.3312 29.3116C10.0562 29.2505 9.96794 29.186 9.89327 29.0026L9.88309 28.9618C9.85594 28.8532 9.94763 28.8158 10.148 28.6936C10.1751 28.6869 10.1989 28.6665 10.2397 28.6563C10.3619 28.6258 10.5215 28.6292 10.6335 28.6733L11.0512 28.7855C11.3635 28.8806 11.8491 29.0912 12.3685 29.2644C12.7624 29.3969 13.1257 29.638 13.4958 29.8486C14.1035 30.2018 14.7757 31.044 14.8945 31.5194ZM7.81484 31.5421L8.62976 31.5694C7.70624 31.2229 6.55522 30.8323 5.56714 30.7472C5.46528 30.7438 5.34984 30.6861 5.23439 30.6861C4.97633 30.6928 4.17838 30.7912 3.94747 30.8488C3.78448 30.8896 3.76411 30.9235 3.77429 30.9643C3.82519 31.168 4.12058 31.3107 4.42955 31.3922L5.63494 31.4807L5.94392 31.5622L6.10351 31.5656C6.17481 31.5622 6.29027 31.5045 6.47702 31.5012C6.8675 31.5046 7.43455 31.5217 7.81484 31.5421Z" fill="white"/>
<path d="M14.4586 26.8558C14.4248 27.1761 14.2958 27.3314 14.0649 27.5182L13.9879 27.5804C13.7292 27.7643 13.1642 27.9158 12.8718 27.8849C12.7883 27.8761 12.6783 27.8504 12.5824 27.8262L12.3113 27.7272C12.2028 27.6876 11.9735 27.593 11.8138 27.5058C11.4804 27.3298 11.1529 27.0982 10.821 26.9083C10.5433 26.7382 10.3059 26.5864 10.1975 26.5468L9.52487 26.2506L8.97609 25.9815L8.53358 25.6391L8.04923 25.5598L7.71292 25.4117L7.60595 25.3582C7.41691 25.2819 7.21542 25.1903 7.01099 25.1265L6.63144 24.9878L6.02697 24.7129C5.16678 24.3264 3.3761 23.4194 3.49221 22.3196C3.53777 21.8879 3.89984 21.6587 4.31752 21.7028L4.51243 21.7234C4.73519 21.7469 5.54998 22.03 5.835 22.1304C6.17425 22.2507 6.53988 22.3879 6.84687 22.547L7.13994 22.7046L7.81542 23.2405L8.16271 23.4179C8.38323 23.5961 8.60228 23.7881 8.86016 24.0124C9.03086 24.129 9.18471 24.2719 9.36493 24.4317L9.5979 24.6253L9.84038 24.862L10.2397 25.2139L10.7246 25.6874C11.0719 25.8648 11.4471 26.0452 11.8068 26.238L12.0244 26.444L12.5365 26.7937C12.6852 26.8517 12.9 26.818 13.0099 26.8437C13.0656 26.8496 13.1117 26.8122 13.1242 26.8276L13.3968 26.6452L13.5603 26.5639L13.5897 26.2855C13.3838 25.9681 13.1994 25.3151 12.9488 25.0212L12.913 24.9611L12.8258 24.8534L12.7899 24.7933C12.765 24.7625 12.7027 24.6855 12.6639 24.6533C12.4229 24.4026 12.1833 24.138 11.9115 23.9122C11.6009 23.6542 11.2734 23.4225 10.9291 23.2172C10.6917 23.0655 10.6309 22.9746 10.6236 22.7767L10.628 22.7349C10.6398 22.6236 10.7387 22.6199 10.9688 22.5738C10.9967 22.5768 11.026 22.5658 11.0678 22.5702C11.1931 22.5834 11.3418 22.6414 11.4319 22.7213L11.7858 22.9698C12.0466 23.1662 12.4305 23.5306 12.8591 23.8714C13.1836 24.1309 13.4422 24.482 13.7176 24.8067C14.1674 25.3469 14.51 26.3685 14.4586 26.8558ZM7.80041 24.4496L8.55656 24.7546C7.80783 24.1125 6.86056 23.3508 5.96154 22.9322C5.86702 22.894 5.77838 22.8002 5.66994 22.7606C5.42521 22.6785 4.64191 22.4972 4.40522 22.4722C4.23815 22.4546 4.20737 22.4795 4.20296 22.5213C4.18091 22.7301 4.40948 22.9654 4.67176 23.148L5.77374 23.6444L6.03602 23.8269L6.18476 23.8849C6.25291 23.9061 6.38115 23.8915 6.55774 23.9524C6.92336 24.0895 7.45018 24.3 7.80041 24.4496Z" fill="white"/>
<path d="M16.0993 20.1494L16.059 20.3492C16.0596 20.775 15.9285 21.2116 15.7357 21.5847C15.5171 22.0075 15.0251 22.7461 14.7421 22.8362L14.6478 22.8662C14.3524 22.9499 13.7585 22.8794 13.5097 22.7508C13.4227 22.7058 13.3296 22.6419 13.249 22.5845L12.884 22.254C12.7913 22.1589 12.4597 21.6723 12.2752 21.4193C12.2135 21.3559 12.183 21.2929 12.1581 21.28C11.9308 20.9576 11.6481 20.5594 11.5918 20.089C11.5419 19.6062 11.3634 19.3721 11.2862 19.0643L11.2269 18.813C11.1973 18.6874 11.1925 18.5746 11.1689 18.4678L11.1573 18.3988C11.1074 17.916 11.1442 17.5095 11.2251 17.0785C11.273 16.7724 11.2961 16.4533 11.4255 16.142C11.7212 15.5699 12.1186 15.3498 12.7032 15.6519C12.9146 15.7612 13.069 15.9198 13.1368 16.0021C13.2719 16.198 13.4431 16.5071 13.5088 16.746C13.5448 16.8592 13.5672 17.0598 13.614 17.3046C13.6857 17.5623 13.7128 17.8758 13.7532 18.133C13.8107 18.5095 13.8816 18.8298 13.9079 19.2058L13.8985 19.4374C13.9299 19.8949 13.8996 20.289 13.7878 20.6882C13.7428 20.7753 13.6798 20.8057 13.6288 20.8739L13.6224 20.8864C13.5581 21.0107 13.4753 21.1098 13.3557 21.1583C13.3926 21.2089 13.4106 21.2655 13.454 21.3036C13.4535 21.3349 13.608 21.4935 13.6204 21.5C13.7255 21.6016 13.9064 21.6478 14.0433 21.7185C14.3306 21.7725 14.5839 21.5567 14.8089 21.1214L14.8796 20.9846C14.937 20.904 15.0249 20.8864 15.0571 20.8242L15.2058 20.4755C15.2323 20.3632 15.2027 20.2376 15.2288 20.1565C15.2819 19.9318 15.3278 19.7821 15.3376 19.5193C15.4016 18.4807 15.0247 17.167 14.6051 16.2409C14.5686 16.1591 14.5132 16.0832 14.4579 16.0073C14.3224 15.8427 14.2542 15.7917 14.3317 15.6111L14.3446 15.5863C14.396 15.4868 14.5413 15.3885 14.7227 15.4035C14.872 15.4806 14.9775 15.5509 15.0757 15.6962C15.358 16.1258 15.5331 16.6103 15.6957 17.0883C15.9802 17.8185 16.1872 18.7292 16.1879 19.6121C16.1858 19.7686 16.1215 19.893 16.107 20.043L16.0993 20.1494ZM12.8847 20.3317L12.91 20.3133C12.9228 20.2884 12.9481 20.27 12.9545 20.2575C12.961 20.2451 12.9674 20.2327 12.9678 20.2014L13.096 19.9839L13.1644 19.5465C13.1579 19.1019 13.1003 18.7254 13.0552 18.3554L13.0367 18.3301C13.0183 18.3048 13.0123 18.2859 13.0067 18.2357L13.0127 18.2546C12.9899 18.0852 13.0297 17.9167 12.9881 17.7534C12.9533 17.5463 12.8306 17.3568 12.7825 17.2058C12.7229 16.9859 12.4775 16.6069 12.378 16.5555C12.3655 16.5491 12.3531 16.5426 12.3467 16.5551C12.231 16.7789 12.1144 17.0654 12.1034 17.4222C12.1065 17.6601 12.2026 17.962 12.2305 18.2128C12.2353 18.3256 12.1946 18.5567 12.2182 18.6635C12.247 18.8517 12.3341 18.8967 12.3697 19.0412C12.3938 19.1167 12.4242 19.1797 12.4294 19.2612C12.4951 19.5 12.6834 19.9283 12.8847 20.3317Z" fill="white"/>
<path d="M20.7955 13.2508C20.7995 13.6685 20.6001 14.2575 20.502 14.7061C20.4671 14.882 20.3764 15.0133 20.3217 15.1875L20.3009 15.3149L20.2485 15.5787L20.217 15.7151C20.1184 16.0544 20.0034 16.3525 19.7662 16.5707C19.605 16.9444 19.144 17.5706 18.8763 17.7961C18.5123 18.1027 17.8985 18.3085 17.6578 18.2184L17.504 18.2747C17.199 18.2387 16.7847 17.8555 16.6044 17.6413C16.5412 17.5664 16.4798 17.4717 16.4274 17.3877L16.2171 16.9425C16.168 16.8191 16.0485 16.2425 15.9752 15.9381C15.9425 15.8559 15.9385 15.786 15.9205 15.7645C15.7609 15.0753 15.8454 14.0889 15.9653 13.3838L16.007 13.1291C16.0279 13.0017 16.1203 12.8506 16.1394 12.743L16.1101 12.6212L16.1969 12.42C16.4104 11.7825 16.7158 11.2324 17.2152 10.7386C17.4293 10.5582 17.6384 10.437 17.8588 10.4162C17.8588 10.4162 17.8785 10.4178 17.8875 10.4286L17.945 10.4533C17.954 10.4641 17.9738 10.4657 17.9738 10.4657C18.0132 10.4691 18.0183 10.4099 18.0667 10.424C18.2426 10.459 18.4117 10.5728 18.5831 10.7762C18.7364 10.9583 18.8181 11.164 18.8491 11.266C18.9044 11.5489 18.9191 11.9575 18.6621 12.174L18.63 12.2011C18.5657 12.2552 18.417 12.2524 18.3223 12.3138C18.2383 12.3662 18.0839 12.3133 18.0117 12.2276C17.9576 12.1634 17.966 12.0647 17.9779 11.9266C18.015 11.8404 18.0342 11.7328 18.0624 11.6358C18.0889 11.5586 17.9722 11.5287 17.9361 11.4859C17.9271 11.4752 17.9181 11.4645 17.9074 11.4735C17.4255 11.8794 17.0863 13.1718 16.9748 13.7782C16.9681 13.8571 16.972 13.927 16.9455 14.0043C16.9162 14.2303 16.9219 14.6282 16.958 15.0188C16.9676 15.1388 16.9755 15.2786 16.8871 15.4995C17.0353 15.7408 17.0889 16.0434 17.1616 16.2384C17.1492 16.2672 17.231 16.4729 17.24 16.4836C17.2981 16.6177 17.3939 16.775 17.4931 16.8927C17.7377 17.0528 18.0376 17.148 18.1982 17.0127L18.2089 17.0037C18.2929 16.9513 18.6761 16.537 18.7297 16.4919L18.8615 16.3442C18.9291 16.2506 19.0142 16.0691 19.0695 16.0043C19.2047 15.8172 19.2723 15.7236 19.3822 15.4846C19.8398 14.5501 20.0921 13.1111 20.0599 12.0949L20.0559 12.0251L20.0678 11.887L20.0638 11.8171C20.057 11.5482 20.0688 11.4101 20.2097 11.2732L20.2311 11.2551C20.3168 11.183 20.3816 11.2382 20.5524 11.3323L20.5902 11.3554L20.6082 11.3768C20.9058 11.7302 20.822 12.8259 20.7955 13.2508Z" fill="white"/>
<path d="M25.7766 10.3689C25.8334 10.1307 25.8924 10.0386 26.0617 9.97042L26.0884 9.96198C26.2086 9.92399 26.2472 9.99986 26.3646 10.1389C26.3731 10.1656 26.3991 10.2015 26.4033 10.2148C26.4237 10.3258 26.4343 10.4987 26.4063 10.5956C26.2652 11.1248 26.0096 11.6167 25.7323 12.0862C25.3623 12.8199 24.9571 13.5353 24.4507 14.2093C24.1747 14.5903 23.7526 14.9734 23.2854 15.1211L23.1076 15.1626C22.8589 15.2119 22.4141 15.0589 22.1041 14.7751C21.7112 14.4148 21.4678 13.5521 21.5188 12.8311C21.5244 12.756 21.4766 12.6977 21.4864 12.6358C21.4962 12.574 21.5594 12.4953 21.5601 12.451C21.56 12.1721 21.6722 11.5052 21.7288 10.7091C21.7519 10.3641 21.7884 10.2938 21.8248 9.94459L21.8395 9.85183C21.7194 9.88982 21.6168 9.93694 21.5409 9.97561L21.2726 10.1486C21.085 10.2519 20.9199 10.3335 20.8314 10.3321L20.8138 10.323C20.7344 10.304 20.5496 10.2303 20.5201 10.1369L20.4849 10.1186C20.4547 10.0695 20.4554 10.0252 20.4518 9.96758C20.4532 9.87905 20.4904 9.7645 20.5312 9.70757C20.5494 9.67244 20.6077 9.62463 20.6702 9.59018C20.7061 9.56417 20.7377 9.52481 20.751 9.52059C20.81 9.42852 21.3362 9.18873 21.3896 9.17184L21.5898 9.10853C21.6214 9.06917 21.7767 9.04944 21.9411 9.01214C22.0056 8.56594 22.1262 7.92579 22.1788 7.67423L22.2608 7.23715L22.3864 6.56609C22.4144 6.46911 22.4158 6.38058 22.4347 6.30117C22.4571 6.00043 22.4915 5.78401 22.8118 5.68271C23.0655 5.60251 23.3746 5.65158 23.5145 5.76887C23.5581 5.81383 23.5792 5.88057 23.5961 5.93396C23.6383 6.06745 23.6053 6.19534 23.54 6.40686C23.5169 6.47292 23.5064 6.57902 23.4917 6.67177C23.491 6.71604 23.4784 6.95494 23.3893 7.27679C23.296 7.58528 23.2414 8.24859 23.1692 8.62383C23.5162 8.51409 23.7298 8.44655 23.8548 8.37765L24.1316 8.2314C24.3192 8.12804 24.4885 8.05982 24.577 8.06119L24.5946 8.07032C24.6607 8.09348 24.8413 8.15384 24.8842 8.24306L24.9193 8.26132C24.9495 8.31049 24.9573 8.38146 24.9566 8.42572C24.9595 8.5276 24.9138 8.61545 24.8731 8.67238C24.8548 8.70752 24.7965 8.75532 24.7382 8.80312C24.6982 8.81578 24.6666 8.85514 24.6666 8.85514C24.6076 8.94721 24.42 9.05057 24.3666 9.06745C24.153 9.13498 24.0104 9.19476 23.9837 9.2032C23.9437 9.21587 23.9036 9.22853 23.8018 9.23138C23.7702 9.27074 23.4947 9.32845 23.0233 9.46283C23.0177 9.53802 22.9946 9.60408 22.9714 9.67013C22.8584 10.1023 22.902 10.1473 22.8922 10.2091C22.8312 10.434 22.7736 10.7164 22.7562 10.9863L22.7289 11.3179C22.6812 11.5386 22.6553 11.7817 22.6561 12.0164L22.6513 12.3262L22.6401 12.4766C22.6367 12.6979 22.629 12.9059 22.6347 13.1097C22.6398 13.6367 22.8389 14.2198 23.0658 14.148C23.3461 14.0594 23.6953 13.8168 23.8399 13.6243C24.2739 13.0465 24.6721 12.4948 25.0317 11.8672C25.2592 11.4723 25.5014 10.9845 25.6664 10.624C25.6987 10.5404 25.7577 10.4483 25.7766 10.3689Z" fill="white"/>
<path d="M30.3301 14.1319L30.1292 14.1662C29.732 14.3197 29.3084 14.3295 28.8909 14.2837C28.4178 14.2317 27.8301 14.0686 27.6443 13.8369L27.5823 13.7597C27.398 13.5141 27.2504 12.9346 27.281 12.6562C27.2917 12.5588 27.3178 12.449 27.3424 12.3531L27.5196 11.8937C27.5751 11.7731 27.845 11.2393 28.0147 10.9763C28.0517 10.8958 28.0996 10.8448 28.1027 10.8169C28.2955 10.4719 28.4328 10.2476 28.8667 9.88678C29.2389 9.57555 29.3701 9.40686 29.6296 9.2241L29.8428 9.0785C29.9494 9.0057 30.0529 8.96073 30.1441 8.90031L30.2043 8.86468C30.6369 8.64459 30.7511 8.5022 31.1824 8.4228C31.4714 8.35595 32.031 8.26247 32.4067 8.30373C32.685 8.3343 33.0562 8.41731 33.2233 8.56242C33.2233 8.56242 33.2357 8.57787 33.2342 8.59178L33.2559 8.6505C33.2544 8.66442 33.2668 8.67986 33.2668 8.67986C33.2916 8.71075 33.3379 8.67359 33.3611 8.71839C33.4572 8.86978 33.6094 9.40761 33.5804 9.67202C33.5651 9.81119 33.5359 9.94882 33.4958 10.0571C33.731 10.2238 33.7794 10.553 33.6653 10.8222L33.5358 11.1037C33.6117 11.1825 33.706 11.221 33.8313 11.2347C33.9148 11.2439 34.3508 11.2495 34.4404 11.203C34.6196 11.1101 34.978 10.9241 35.1435 10.9563L35.2131 10.964C35.3244 10.9762 35.3292 11.0612 35.3804 11.2359C35.3621 11.4029 35.3142 11.4539 35.1737 11.5793C34.8478 11.8534 33.8616 11.9845 33.3761 11.9171C33.2647 11.9049 33.1549 11.8788 33.0482 11.8248C32.897 12.0476 32.7473 12.2565 32.474 12.5645C31.8796 13.2316 31.5894 13.566 30.8308 13.9333C30.6824 14.0016 30.5774 14.0604 30.4321 14.1008L30.3301 14.1319ZM28.436 12.7831C28.489 13.0706 28.9205 13.2447 29.1293 13.2676L29.1432 13.2692C29.2391 13.2938 29.2871 13.3695 29.3567 13.3771L29.7092 13.3736C29.8236 13.358 29.9301 13.2852 30.0152 13.2804C30.2439 13.2492 30.3582 13.1068 30.61 12.9936C31.3826 12.6278 31.8055 12.1109 32.4149 11.051C32.4147 10.9243 32.43 10.7851 32.4483 10.6181C32.4529 10.5764 32.459 10.5207 32.4775 10.4805C32.4527 10.4496 32.4419 10.4202 32.431 10.3909C32.4108 10.3182 32.4494 10.2239 32.5188 10.1047C32.596 10.0428 32.6485 9.94996 32.7133 9.87257C32.7627 9.80758 32.7685 9.49836 32.5024 9.35647C32.5039 9.34255 32.2549 9.30113 32.241 9.2996L32.074 9.28126C31.8235 9.25375 31.5143 9.24796 31.1774 9.36589C30.9564 9.4543 30.8485 9.66779 30.6245 9.78403C30.5209 9.829 30.4298 9.88942 30.3387 9.94983C30.1734 10.0443 30.09 10.162 29.968 10.2471C29.9062 10.2967 29.8584 10.3478 29.7842 10.3819C29.5077 10.591 29.2207 11.0242 28.8719 11.507C28.7237 11.702 28.6823 11.951 28.6114 12.084C28.582 12.0949 28.4895 12.296 28.488 12.3099C28.431 12.4445 28.4528 12.63 28.436 12.7831Z" fill="white"/>
<path d="M36.128 16.7312C35.9356 16.7779 35.8134 16.7363 35.7178 16.6781C35.4427 16.5107 34.9415 16.0416 34.979 15.8186L34.9577 15.7728C34.849 15.4936 35.0659 15.0028 35.2042 14.7756C35.2697 14.6679 35.3472 14.5676 35.4559 14.4699L35.8344 14.225C35.9067 14.187 35.9478 14.1465 35.9816 14.1179C36.0565 14.0488 36.1168 14.0035 36.2322 13.9755C36.3742 13.9308 36.5234 13.8741 36.6248 13.7883C36.7647 13.6932 36.9186 13.6558 37.0148 13.6324L37.0917 13.6136L37.1063 13.5897C37.1978 13.5471 37.2628 13.5211 37.3325 13.5144C37.4287 13.491 37.5056 13.4723 37.5852 13.4224C37.7126 13.4016 37.7968 13.3709 37.9075 13.3236L37.9653 13.3096C38.285 13.242 38.4847 13.1833 38.5809 13.1599C38.8117 13.1037 38.5258 13.1427 38.9438 13.1022C38.6537 13.0403 38.3324 12.9758 38.0781 12.9357C37.7999 12.8811 37.5889 12.8509 37.5577 12.8483C37.5025 12.8312 37.4401 12.826 37.383 12.7584C37.124 12.6991 36.9395 12.6523 36.8339 12.6372C36.7689 12.6632 36.7039 12.6892 36.6077 12.7125C36.2463 12.9023 35.9796 12.9366 35.7992 12.9906C35.4768 13.0894 35.0728 12.8107 35.141 12.6719C35.2138 12.5523 35.2574 12.4805 35.3947 12.4166L35.768 12.2341C35.8403 12.1962 35.8908 12.1941 35.9896 12.1395L36.1341 12.0636C36.1991 12.0376 36.3364 11.9737 36.3702 11.9451C36.5704 11.8047 36.7726 11.7148 37.0019 11.5266C37.1418 11.4314 37.2505 11.3337 37.3878 11.2698C37.4288 11.2292 37.4507 11.1933 37.4964 11.172C37.7882 10.989 38.0102 10.8128 38.3481 10.9038C38.4033 10.921 38.4703 10.9454 38.5421 10.9891C38.7812 11.1347 38.931 11.3734 38.7427 11.521L38.7349 11.6146C38.6621 11.7342 38.5992 11.8106 38.4042 11.8886L38.178 11.964C38.1707 11.9759 38.1369 12.0045 38.1177 12.0092C38.1297 12.0165 38.1151 12.0404 38.1151 12.0404C38.1271 12.0477 38.1702 12.0575 38.2108 12.0986C38.295 12.068 38.7957 12.2417 39.0739 12.2963C39.4264 12.3634 39.8054 12.4138 40.0311 12.4201L40.1366 12.4352L40.3384 12.4269L40.4439 12.442C40.72 12.4462 40.9576 12.4597 41.0533 12.5179L41.0772 12.5325C41.1656 12.6027 41.3179 12.8102 41.3075 12.935L41.3028 12.9157L41.294 13.1726C41.3007 13.2423 41.269 13.3213 41.2326 13.3811C41.1671 13.4887 41.0657 13.5745 40.9742 13.6171C40.9284 13.6384 40.8322 13.6618 40.7433 13.6732L40.6159 13.694C40.4906 13.7652 40.2145 13.7611 40.1402 13.7486L39.2167 13.9731L38.4997 14.2086C38.4082 14.2512 38.2927 14.2793 38.2038 14.2907C38.0572 14.3162 37.8913 14.3463 37.7426 14.3214C37.7322 14.4461 37.4556 14.5236 37.2481 14.6759L36.9299 14.8755C36.79 14.9707 36.6502 15.0658 36.5248 15.137C36.3657 15.2369 36.2425 15.3585 36.1869 15.423L36.1603 15.4396L36.0776 15.6024L36.0579 15.6887L36.0698 15.6959C36.1416 15.7396 36.5242 15.9726 36.6106 15.9924L36.673 15.9976L37.2173 16.0995C37.3899 16.1391 37.573 16.0538 37.7555 16.0502C38.7761 16.0159 39.8769 15.8502 40.8107 15.5009C41.0634 15.4088 41.2459 15.4052 41.325 15.4369L41.3489 15.4515C41.4565 15.517 41.4248 15.5961 41.3972 15.776C41.3098 15.9195 41.2443 16.0271 41.0805 16.1077C40.6323 16.3593 40.1368 16.5001 39.6366 16.6218C39.1915 16.7605 38.2036 16.9294 37.5594 17.0453C37.1486 17.0739 36.4602 16.9662 36.128 16.7312Z" fill="white"/>
<path d="M46.8953 30.4634L46.8794 30.4516C46.3976 30.354 45.9013 30.1595 45.4091 29.9927C44.262 29.6127 43.8598 29.5739 42.8934 28.6996C42.73 28.5543 42.5625 28.3812 42.4143 28.1486L42.0744 27.6758C42.0162 27.5713 41.974 27.4785 41.902 27.3761C41.5898 26.8991 41.4915 26.4325 41.3897 25.7541C41.2817 25.0342 41.3973 24.0117 41.7032 23.5977L41.8112 23.4683C42.131 23.0522 42.8724 22.6154 43.2878 22.5531C43.717 22.4887 44.1531 22.5648 44.5989 22.6112C45.017 22.6617 45.4331 22.6984 45.8415 22.7787C45.9723 22.8015 46.0914 22.8403 46.2243 22.877C46.3275 22.904 46.4168 22.933 46.5178 22.9462C46.8231 22.9995 47.0966 23.0292 47.3762 23.1005C47.6538 23.158 47.9377 23.257 48.254 23.4785C48.4451 23.6197 48.6479 23.745 48.8584 23.8267C48.9816 23.8931 49.1027 23.9457 49.2239 23.9983C49.3471 24.0648 49.4703 24.1312 49.5998 24.2392C49.8767 24.4808 50.1439 24.7522 50.4132 25.0374C50.5987 25.236 50.796 25.4188 50.9837 25.6313C51.1851 25.8417 51.3609 26.0702 51.5216 26.3858C51.642 26.6226 51.7431 26.6357 51.8719 26.9279C51.9889 27.2359 52.092 27.546 52.1377 27.8506C52.1938 28.2245 52.2271 29.0122 52.0761 29.2331L52.0014 29.3009L51.946 29.3092C51.9045 29.3155 51.8927 29.3314 51.9114 29.456C51.9135 29.4698 51.9156 29.4837 51.9017 29.4858C51.9038 29.4996 51.892 29.5155 51.892 29.5155C51.6525 29.8063 50.7782 30.2064 50.4736 30.2521C50.2659 30.2833 50.0541 30.2868 49.854 30.2743L49.8402 30.2764C49.6775 30.5131 49.3016 30.5554 49.0247 30.5969C48.7617 30.6364 48.3242 30.6454 48.0306 30.5762C48.014 30.7486 48.1054 31.0746 48.1407 31.31C48.1844 31.6007 48.3644 31.8568 48.57 32.095L48.7236 32.2701C48.7756 32.3331 48.8254 32.3822 48.8635 32.4473C48.9514 32.5615 49.0116 32.6799 49.0303 32.8045L49.0373 32.945C49.0497 33.0281 49.0303 33.0877 48.9791 33.1236C48.9556 33.1555 48.93 33.1735 48.8905 33.1936L48.8649 33.2116L48.8511 33.2136L48.6953 33.3078C48.4461 33.3452 48.3291 33.3203 48.0605 33.1341C47.6008 32.8066 46.9944 31.8783 46.8573 30.9646C46.8303 30.7846 46.833 30.6143 46.8836 30.4793L46.8953 30.4634ZM42.4412 25.7804L42.4994 25.8849C42.5174 25.9105 42.4821 25.9583 42.4842 25.9722C42.5451 26.1895 42.5624 26.1161 42.6212 26.3197C42.6475 26.4007 42.7057 26.5052 42.75 26.6118L42.9023 26.8721C42.9951 27.113 43.4354 27.7831 43.5669 27.9049C43.7005 28.0406 43.8417 28.1326 43.9871 28.2524C45.0864 29.1634 45.9884 29.0422 47.1307 29.2955L47.4976 29.3821C47.6443 29.4167 47.7946 29.38 47.8361 29.3737C47.933 29.3592 48.0258 29.317 48.1206 29.2886C48.3262 29.2436 48.5477 29.2103 48.7554 29.1792L48.8246 29.1688L48.9513 29.1639L49.0205 29.1536L49.06 29.1335L49.1334 29.1508C49.1707 29.1169 49.2358 29.0788 49.2774 29.0726C49.4158 29.0518 49.5695 28.9438 49.7045 28.9943L49.7363 29.0179L49.8118 29.049L50.1863 29.0919C50.2161 29.1016 50.2576 29.0954 50.2853 29.0912C50.5483 29.0518 51.0301 28.8662 51.134 28.4259C51.1533 28.3664 51.1423 28.1982 51.1194 28.0459C51.1083 27.8777 51.0813 27.6977 51.0709 27.6285C50.9775 27.0054 50.9172 27.1702 50.6293 26.7604C50.2672 26.2343 49.6192 25.5954 49.2066 25.2042C49.091 25.0942 48.9539 25.0298 48.8307 24.9633C48.7096 24.9107 48.5393 24.908 48.4119 24.8138C48.3641 24.7785 48.3184 24.7571 48.2728 24.7356L48.0263 24.6027C47.9626 24.5556 47.8255 24.4913 47.6906 24.4407L47.3334 24.3244C46.7816 24.1382 46.1904 23.9721 45.6311 23.8295C45.2483 23.7312 44.8828 23.8427 44.4923 23.788C44.4245 23.7133 44.1116 23.7036 44.0147 23.7181C43.7931 23.7514 43.5391 23.9452 43.3376 24.0179C43.3238 24.02 43.312 24.0359 43.2843 24.0401L43.1597 24.0587C43.1459 24.0608 43.1203 24.0788 43.0926 24.083C42.7728 24.2159 42.3457 24.8604 42.4474 25.5388L42.4516 25.5665C42.4537 25.5803 42.4301 25.6122 42.4225 25.6558C42.4149 25.6994 42.4627 25.7347 42.4412 25.7804Z" fill="white"/>
<path d="M41.4917 33.4736L42.2035 33.9858C42.5548 34.2552 42.9368 34.5647 43.1603 34.7752L43.279 34.8606C43.4063 34.9637 43.5559 35.045 43.6741 35.1747C43.8315 35.3623 44.1564 35.6225 44.4539 35.9621L44.572 36.0918C44.2441 35.2825 43.7569 34.4627 43.5092 34.0218C43.4093 33.8392 43.2692 33.6872 43.2565 33.6383L43.1616 33.3983L43.1529 33.3805L43.1575 33.3672C43.0576 33.1846 42.8624 32.8062 42.815 32.6862L42.6544 32.379C42.5061 32.1649 42.2885 31.8084 42.1239 31.4702L42.0107 31.283C41.9496 31.2027 42.034 31.1726 41.9861 31.0968C41.9601 31.0434 41.9341 30.99 41.8817 30.9275C41.7808 30.8334 41.7243 30.7399 41.6855 30.6376L41.6075 30.4774C41.6039 30.4021 41.4766 30.2989 41.4775 30.2104L41.4958 30.1575C41.5008 30.1 41.5104 30.0292 41.5287 29.9763C41.6246 29.6984 41.8702 29.5017 42.1002 29.5219L42.1134 29.5264C42.2722 29.5813 42.9461 30.3322 43.1606 30.5691L43.6031 31.0033C43.7478 31.142 43.9239 31.2324 44.2779 31.6657L44.8811 32.407L45.4825 32.8959L46.1441 33.5538L46.4634 33.9158C46.6167 34.0724 46.6199 34.1919 46.6582 34.3384C46.6878 34.4671 46.7394 34.6182 46.7069 34.7551C46.6836 34.8656 46.6379 34.9979 46.5923 35.1303C46.511 35.2799 46.3955 35.3141 46.2764 35.273C46.1044 35.2136 45.8639 34.9233 45.7371 34.7759C45.6627 34.691 45.5706 34.6147 45.4875 34.512L44.9409 33.8642L43.7332 32.5144L43.251 32.0665L43.4033 32.3117C43.4334 32.3961 43.6479 32.633 43.6958 32.7088L43.897 32.9412C43.9408 32.9859 43.9709 33.0703 44.0233 33.1329C44.2017 33.4314 44.4891 33.886 44.5274 34.0325L45.1619 35.155C45.2924 35.3777 45.3599 35.6972 45.4328 35.9149C45.4844 36.066 45.5628 36.1819 45.5879 36.3239C45.6513 36.6123 45.8744 36.8671 45.8848 37.1373C45.8747 37.2523 45.8514 37.3627 45.8057 37.495C45.7372 37.6935 45.5857 37.7893 45.456 37.9075C45.3711 37.9819 45.3076 38.1229 45.2059 38.1174C45.1351 38.1078 45.0644 38.0982 45.0247 38.0845C44.9056 38.0434 44.8796 37.99 44.8317 37.9142L44.7925 37.8562C44.7405 37.7494 44.5164 37.5832 44.2714 37.3061C44.1751 37.1989 44.1195 37.0167 43.9968 36.9003C43.6418 36.5557 43.2024 36.2411 42.825 35.9183C42.711 35.8197 42.6197 35.6549 42.5143 35.5741C42.3081 35.3993 42.1096 35.3308 41.9909 35.2454C41.6966 35.0253 41.3891 34.8007 41.103 34.6427C41.1244 34.7094 41.0677 35.0452 41.0892 35.1119C41.4891 36.2274 42.0447 37.2782 42.6806 38.2678C42.8335 38.4686 42.8759 38.6462 42.8526 38.7566L42.8434 38.7831C42.8023 38.9022 42.7001 38.941 42.5184 38.9523C42.492 38.9432 42.4477 38.9427 42.4345 38.9381C42.3332 38.8884 42.1881 38.7939 42.1269 38.7135C41.7857 38.3291 41.5425 37.875 41.3172 37.4121C40.9696 36.7886 40.0185 35.0386 40.1104 34.3002C40.1246 34.2162 40.1433 34.119 40.1707 34.0396C40.189 33.9867 40.2438 33.8278 40.2708 33.7927L40.2662 33.8059C40.4009 33.6303 40.6342 33.3405 40.8194 33.4045C40.9253 33.441 41.1038 33.3101 41.2138 33.3776C41.2621 33.4092 41.3685 33.4014 41.4917 33.4736Z" fill="white"/>
<path d="M38.1315 36.6482C38.3453 36.4074 38.5406 36.3562 38.837 36.3386L38.9359 36.3327C39.2533 36.3337 39.801 36.5392 40.0208 36.7344C40.0836 36.7901 40.1581 36.875 40.2221 36.9505L40.385 37.1888C40.4501 37.2841 40.5816 37.4944 40.6608 37.6583C40.8296 37.9954 40.9612 38.3743 41.1206 38.7219C41.2475 39.0217 41.3523 39.2833 41.4175 39.3786L41.7922 40.0108L42.082 40.549L42.2428 41.0849L42.5906 41.4311L42.7779 41.7473L42.8338 41.853C42.9432 42.025 43.0537 42.2168 43.1829 42.3876L43.411 42.7212L43.7426 43.2965C44.2175 44.1113 45.1462 45.8907 44.4119 46.7178C44.1238 47.0423 43.6959 47.0181 43.3818 46.7393L43.2353 46.6092C43.0678 46.4604 42.5698 45.7562 42.3964 45.5086C42.1904 45.2134 41.9728 44.8892 41.8157 44.5812L41.669 44.2824L41.4314 43.4536L41.2522 43.1072C41.1764 42.8341 41.11 42.5504 41.0308 42.218C40.9597 42.0238 40.9178 41.8181 40.8641 41.5832L40.7872 41.2903L40.7278 40.9567L40.6077 40.4382L40.4888 39.7709C40.3095 39.4245 40.1093 39.0596 39.9289 38.6935L39.8718 38.3993L39.6587 37.817C39.5714 37.6833 39.3772 37.5858 39.3027 37.5009C39.2609 37.4638 39.2016 37.4673 39.2004 37.4475L38.8725 37.4372L38.6923 37.4083L38.5064 37.6177C38.4892 37.9955 38.2593 38.6339 38.2921 39.0188L38.2863 39.0885L38.2946 39.2269L38.2888 39.2966C38.2911 39.3362 38.297 39.435 38.3098 39.4838C38.36 39.8279 38.4009 40.1825 38.4906 40.5243C38.5931 40.9149 38.7247 41.2938 38.8854 41.6611C38.9902 41.9226 38.9867 42.0319 38.8775 42.1971L38.8497 42.2285C38.7753 42.3122 38.6927 42.2576 38.4787 42.1613C38.4578 42.1427 38.4276 42.1345 38.3962 42.1067C38.3019 42.023 38.2147 41.8894 38.1879 41.7719L38.0446 41.3639C37.9468 41.0524 37.8465 40.5328 37.6962 40.0062C37.5832 39.6063 37.5772 39.1703 37.5421 38.746C37.4905 38.0449 37.8062 37.0146 38.1315 36.6482ZM42.147 42.4789L41.7095 41.7909C41.9449 42.7488 42.2723 43.9194 42.7599 44.7829C42.8146 44.8689 42.8321 44.9968 42.8973 45.0921C43.0485 45.3013 43.5802 45.9044 43.7581 46.0624C43.8838 46.174 43.9233 46.1716 43.9512 46.1402C44.0906 45.9832 44.0416 45.6588 43.9345 45.3578L43.327 44.3129L43.2199 44.0118L43.1326 43.8782C43.0895 43.8212 42.9767 43.7585 42.8685 43.6063C42.6509 43.282 42.3449 42.8043 42.147 42.4789Z" fill="white"/>
<path d="M36.7719 41.2753C36.7829 41.3944 36.7809 41.5509 36.7846 41.7514L36.837 43.0481C36.8522 43.3364 36.7608 43.6295 36.7946 43.9242L36.7953 44.8572L36.7642 45.3389C36.7614 45.558 36.6789 45.6447 36.6021 45.7752C36.5318 45.887 36.4611 46.0301 36.3412 46.1037C36.2465 46.1651 36.1205 46.2262 35.9945 46.2872C35.8311 46.3352 35.7254 46.2775 35.6705 46.1641C35.5911 46.0003 35.6272 45.6251 35.6422 45.4311C35.6499 45.3185 35.6389 45.1994 35.6531 45.0681L35.7264 44.2237C35.7729 43.5168 35.7901 42.6529 35.7989 41.9643C35.7833 41.7074 35.8223 41.5951 35.8052 41.4634C35.8007 41.3256 35.784 41.1626 35.7543 41.037C35.7082 40.7171 35.4984 40.4765 35.2212 40.6107C35.0574 40.69 34.8867 40.8194 34.7461 41.043C34.6246 41.2418 34.3905 41.433 34.2438 41.644C34.0398 41.9294 33.9602 42.2791 33.8567 42.547C33.7137 42.9585 33.7579 43.917 33.8057 44.5939C33.82 44.9447 33.8786 45.2585 33.8609 45.6715C33.8573 45.9533 33.9102 46.2232 33.9071 46.4736C33.8933 46.5736 33.9047 46.6614 33.8974 46.7427C33.9186 47.0435 33.9158 47.2627 33.6134 47.4091C33.3866 47.5189 33.0297 47.5207 32.9244 47.4317C32.8874 47.3874 32.8443 47.3305 32.8199 47.2801C32.7588 47.1541 32.773 47.0228 32.8071 46.804C32.8205 46.7353 32.8156 46.6288 32.8294 46.5288C32.8314 46.3723 32.8211 46.1906 32.8422 46.0093C32.8702 45.778 32.8738 45.4962 32.8648 45.2206L32.8565 44.8824C32.8532 44.6507 32.8499 44.4189 32.8152 44.1868L32.7753 43.8795L32.7647 43.7291C32.7362 43.5096 32.7264 43.2966 32.6913 43.0958L32.6738 42.9954C32.5393 43.2316 32.3922 43.4739 32.2956 43.6918C32.1542 43.9781 31.9234 44.4009 31.7889 44.6372C31.5707 45.0539 31.3595 45.4207 31.249 45.7386C31.1974 45.8569 31.1267 46 30.969 46.092C30.843 46.153 30.7052 46.1575 30.5999 46.0685C30.5812 46.062 30.5564 46.0429 30.5442 46.0177C30.5014 45.9295 30.4599 45.7474 30.4798 45.66C30.5651 45.3542 30.7126 45.0806 30.8479 44.7818C30.8991 44.6948 30.9628 44.6016 31.0079 44.502C31.1753 44.141 31.5406 43.4819 31.81 42.9781C31.9895 42.6423 32.315 42.158 32.6283 41.6486C32.6234 41.5421 32.5868 41.4664 32.5834 41.2347C32.5842 41.1721 32.561 41.0278 32.526 40.827C32.5016 40.7766 32.4914 40.5949 32.4922 40.5323C32.4566 39.8806 32.3828 39.2786 32.3453 38.7835C32.3237 38.5139 32.3199 38.3135 32.3422 38.0383C32.3129 37.8814 32.321 37.7375 32.3535 37.644C32.3864 37.5192 32.3688 37.4188 32.3826 37.3188C32.339 36.811 32.7887 35.9088 33.1793 35.7196C33.3935 35.6159 33.7265 35.5325 34.0672 35.8186C34.1412 35.9072 34.2645 36.0653 34.3499 36.2417C34.4048 36.3551 34.4536 36.4559 34.4654 36.5124C34.5603 36.9331 34.6287 37.4599 34.6224 37.9608L34.6273 38.0673C34.6184 38.2738 34.4937 38.723 34.4325 39.1105C34.3984 39.3292 34.2383 39.6089 34.1981 39.8151C34.1579 40.0212 33.9837 40.4322 33.937 40.6571C33.9301 40.7071 33.8911 40.8193 33.8651 40.8941C33.8972 40.8319 33.948 40.7762 34.0118 40.683C34.1016 40.5151 34.241 40.3854 34.343 40.2427C34.5275 40.0133 34.5734 39.8511 34.8128 39.7352C35.1908 39.5521 35.6107 39.5199 35.9465 39.6995C36.0523 39.7572 36.1446 39.8836 36.2312 39.9661C36.3365 40.0551 36.3662 40.1807 36.4337 40.288C36.618 40.5721 36.764 40.9058 36.7719 41.2753ZM33.8161 37.3557C33.7708 36.9732 33.4679 36.6688 33.4553 36.6749C33.3923 36.7054 33.2957 37.4055 33.2604 37.7181C33.2325 37.9494 33.1716 38.3055 33.2367 38.6007C33.2214 38.8259 33.2137 38.9385 33.2186 39.045L33.2691 39.5027C33.3037 39.7348 33.325 40.0357 33.371 40.3556C33.3974 40.2495 33.4425 40.1499 33.4372 40.0747C33.4335 39.8742 33.6131 39.5384 33.6402 39.3697C33.6873 39.1136 33.684 38.8818 33.851 38.5521C33.8786 38.3521 33.8492 38.1952 33.8642 38.0013C33.878 37.9012 33.8792 37.8073 33.8747 37.6695C33.8633 37.5817 33.8523 37.4626 33.8161 37.3557Z" fill="white"/>
<path d="M35.8094 24.8212C35.809 24.8218 35.8083 24.8222 35.8076 24.8222H19.1906C19.0108 24.8222 18.9311 25.0287 19.0722 25.1298L32.7439 34.962C32.8908 35.0673 33.099 34.9372 33.0433 34.7762L27.6818 19.1212C27.626 18.9591 27.3734 18.9601 27.3187 19.1212L22.054 34.7741C21.9994 34.9362 22.2088 35.0652 22.3544 34.9589L35.9283 25.1278C36.068 25.0258 35.9901 24.8211 35.8111 24.8202C35.8104 24.8202 35.8097 24.8206 35.8094 24.8212V24.8212Z" fill="white"/>
</svg>
