<svg width="144" height="23" viewBox="0 0 144 23" fill="none" xmlns="http://www.w3.org/2000/svg">
<path d="M24.3128 14.9L24.6528 14.96L24.7328 14.94C24.8328 14.92 25.0528 14.84 25.2528 14.76C25.4728 14.66 25.9128 14.56 25.9928 14.52C26.0328 14.52 26.0728 14.5 26.1328 14.5C26.1528 14.5 26.1528 14.48 26.1728 14.48H26.2528C26.2728 14.48 26.2728 14.46 26.2928 14.46C26.5728 14.42 26.7728 14.42 26.9928 14.18C27.1128 14.04 27.2528 13.92 27.4528 13.8C27.4728 13.78 27.4728 13.78 27.4928 13.78L27.5928 13.72C27.6128 13.72 27.6128 13.7 27.6328 13.7C27.7328 13.68 27.7928 13.6 27.8928 13.6L27.9128 13.58L28.1328 13.22C28.1928 13.18 28.0528 13.12 28.1128 13.06C28.1528 13.02 28.4128 12.98 28.4528 12.94H28.4728L28.4928 12.92C28.5728 12.84 28.6328 12.78 28.6728 12.72C28.7128 12.64 28.7528 12.58 28.7728 12.5C28.8128 12.4 28.8728 12.3 28.9128 12.18L28.9728 12.1L29.0928 11.96L29.1328 11.88C29.2728 11.68 29.5528 10.88 29.6128 10.66C29.7128 10.24 29.7128 9.58 29.6328 9.16V9.14H29.6128C29.4528 9.16 29.3528 9.2 29.2328 9.28L29.0328 9.44C29.0328 9.44 29.0128 9.44 28.9928 9.46C28.9728 9.46 28.9728 9.48 28.9528 9.5L28.8528 9.56L28.8128 9.6L28.5728 9.74C28.5528 9.74 28.5528 9.76 28.5328 9.78L28.4328 9.84L28.1928 10.06C27.9928 10.26 27.8728 10.62 27.7928 10.92C27.7128 11.26 27.3928 12.3 27.1528 12.48L26.9528 12.6C26.6528 12.58 26.5128 12.5 26.4528 12.38C26.4328 12.32 26.2928 12.12 26.2728 12.04L26.2928 11.64C26.2928 11.48 26.3328 11.32 26.3928 11.16L26.4728 11.02C26.5328 10.96 26.5328 10.9 26.5328 10.82V10.68C26.5328 10.54 26.5528 10.44 26.6128 10.32L26.7528 10C26.9728 9.36 27.4328 8.92 27.7128 8.74C27.8128 8.68 27.9328 8.62 28.0328 8.54C28.0328 8.54 28.0528 8.54 28.0728 8.52C28.0728 8.52 28.0928 8.52 28.1128 8.5C28.1528 8.5 28.2528 8.42 28.2728 8.4L28.4128 8.26L28.4928 8.2C28.6328 8.06 28.8928 7.98 28.9728 7.92H28.9928C29.2728 7.76 29.5328 7.68 29.9328 7.68H30.2328L30.3528 7.7H30.4128C30.7128 7.8 30.9728 8.22 31.0128 8.52C31.0528 8.82 31.1128 9.14 31.1328 9.32C31.1328 9.56 31.1328 9.98 31.1128 10.22C31.0928 10.64 30.7728 11.64 30.6328 12.06L30.4728 12.5C30.4528 12.62 30.4328 12.72 30.3528 12.84C30.1928 13.16 29.4528 14.18 29.0528 14.44C28.9128 14.52 28.7528 14.62 28.6128 14.72C28.6328 14.8 28.3728 15.04 28.2928 15.12C28.2328 15.16 27.9928 15.26 27.8928 15.24L27.8728 15.26C27.6928 15.48 27.3128 15.62 27.0528 15.74L26.6728 15.88L26.1728 16.04C26.1328 16.04 26.0728 16.08 26.0328 16.1L25.9328 16.16H25.9128C25.6128 16.28 24.8928 16.44 24.5528 16.44H24.4928C24.2328 16.44 23.1328 16.22 22.9928 16.14C22.7928 16.02 22.6328 15.88 22.4328 15.78C22.4128 15.76 22.3928 15.76 22.3728 15.76C22.3528 15.74 22.3328 15.74 22.3128 15.74C22.2728 15.72 22.2128 15.7 22.1928 15.7C22.0728 15.62 22.0128 15.56 21.9728 15.46C21.9328 15.4 21.9128 15.32 21.8728 15.24C21.8328 15.16 21.7328 15.12 21.6328 15.08L21.4928 15.02L21.3928 14.96L21.2528 14.78L21.1128 14.62L21.0928 14.54V14.52C21.0928 14.5 21.0728 14.48 21.0728 14.48L21.0328 14.42L20.9528 14.28L20.9328 14.22C20.8528 14.08 20.6328 13.58 20.6328 13.46C20.6128 13.16 20.6128 12.84 20.6328 12.54C20.6928 11.52 21.2328 9.92 21.8728 8.94C21.9328 8.84 21.9728 8.72 22.0528 8.6C22.3528 8 22.6528 7.36 23.0928 6.78C23.3728 6.38 23.7728 5.94 24.1128 5.58C24.9128 4.76 25.0528 4.48 25.9128 3.72C26.1528 3.52 26.4128 3.32 26.6928 3.14C26.7728 3.08 26.8928 3.04 27.0128 2.98C27.1128 2.92 27.2128 2.86 27.2728 2.8C27.3728 2.72 27.4728 2.6 27.5928 2.52C27.7928 2.34 28.0528 2.3 28.2928 2.2C28.5128 2.1 28.7528 2 29.0528 1.86C29.4528 1.68 29.8928 1.6 30.4128 1.54C30.4528 1.54 30.5128 1.54 30.5728 1.52H30.7128C31.0328 1.52 31.5328 1.58 31.6928 1.76V1.78C31.7128 1.82 31.7128 1.84 31.7128 1.86C31.7328 1.9 31.7528 1.92 31.8528 1.92C31.9328 1.92 31.9928 2.1 32.0328 2.32C32.0728 2.52 32.0728 2.74 32.0728 2.8C32.0528 3.2 31.8928 4.24 31.5128 4.62C31.4328 4.7 31.2928 4.88 31.1528 5.02C30.9928 5.18 30.4528 5.38 30.2328 5.38H29.9928C29.6328 5.38 29.4128 4.9 29.4328 4.72C29.4328 4.62 29.5328 4.5 29.6728 4.38C29.8128 4.26 29.9528 4.14 30.0928 4.06C30.1928 3.98 30.5328 3.54 30.5328 3.44L30.5528 3.34L30.5928 3.16V3.08C30.6128 3 30.4528 2.9 30.2928 2.9C29.9328 2.9 29.3728 3.12 29.1728 3.28C28.6328 3.7 27.9128 3.92 27.4128 4.36C26.6928 4.98 26.5328 5.28 25.8328 5.94L25.5728 6.22C25.5128 6.32 25.4528 6.44 25.3728 6.52C24.9928 7.04 24.5928 7.56 24.2928 8.08C24.1528 8.32 24.1128 8.56 24.0128 8.8C23.9928 8.86 23.8528 8.92 23.8128 9L23.6728 9.42V9.64C23.5928 9.8 23.4928 9.98 23.4328 10.16C23.4128 10.2 23.2528 10.24 23.2728 10.32L23.2928 10.62C23.2928 10.64 23.2728 10.66 23.2728 10.7L23.1928 10.88C23.1928 10.9 22.9328 11.6 22.9128 11.64C22.8728 11.74 22.7928 11.84 22.7728 11.96L22.7528 12.02V12.12V12.22V12.34L22.7328 12.46C22.7128 12.8 22.7728 13.66 22.9928 13.9L23.0928 14L23.3128 14.24L23.3928 14.34C23.5528 14.48 23.6928 14.62 23.9128 14.72C23.9328 14.72 23.9328 14.74 23.9528 14.74L24.0528 14.8C24.0728 14.8 24.0728 14.8 24.0928 14.82C24.1728 14.86 24.2328 14.88 24.3128 14.9ZM35.8545 15.82L35.5745 15.9C35.0345 16.18 34.4345 16.26 33.8345 16.26C33.1545 16.26 32.2945 16.12 31.9945 15.82L31.8945 15.72C31.5945 15.4 31.2945 14.6 31.2945 14.2C31.2945 14.06 31.3145 13.9 31.3345 13.76L31.5145 13.08C31.5745 12.9 31.8745 12.1 32.0745 11.7C32.1145 11.58 32.1745 11.5 32.1745 11.46C32.3945 10.94 32.5545 10.6 33.1145 10.02C33.5945 9.52 33.7545 9.26 34.0945 8.96L34.3745 8.72C34.5145 8.6 34.6545 8.52 34.7745 8.42L34.8545 8.36C35.4345 7.98 35.5745 7.76 36.1745 7.58C36.5745 7.44 37.3545 7.22 37.8945 7.22C38.2945 7.22 38.8345 7.28 39.0945 7.46C39.0945 7.46 39.1145 7.48 39.1145 7.5L39.1545 7.58C39.1545 7.6 39.1745 7.62 39.1745 7.62C39.2145 7.66 39.2745 7.6 39.3145 7.66C39.4745 7.86 39.7745 8.6 39.7745 8.98C39.7745 9.18 39.7545 9.38 39.7145 9.54C40.0745 9.74 40.1945 10.2 40.0745 10.6L39.9345 11.02C40.0545 11.12 40.1945 11.16 40.3745 11.16C40.4945 11.16 41.1145 11.1 41.2345 11.02C41.4745 10.86 41.9545 10.54 42.1945 10.56H42.2945C42.4545 10.56 42.4745 10.68 42.5745 10.92C42.5745 11.16 42.5145 11.24 42.3345 11.44C41.9145 11.88 40.5345 12.22 39.8345 12.2C39.6745 12.2 39.5145 12.18 39.3545 12.12C39.1745 12.46 38.9945 12.78 38.6545 13.26C37.9145 14.3 37.5545 14.82 36.5345 15.46C36.3345 15.58 36.1945 15.68 35.9945 15.76L35.8545 15.82ZM32.9545 14.2C33.0745 14.6 33.7145 14.78 34.0145 14.78H34.0345C34.1745 14.8 34.2545 14.9 34.3545 14.9L34.8545 14.84C35.0145 14.8 35.1545 14.68 35.2745 14.66C35.5945 14.58 35.7345 14.36 36.0745 14.16C37.1145 13.52 37.6345 12.72 38.3345 11.12C38.3145 10.94 38.3145 10.74 38.3145 10.5C38.3145 10.44 38.3145 10.36 38.3345 10.3C38.2945 10.26 38.2745 10.22 38.2545 10.18C38.2145 10.08 38.2545 9.94 38.3345 9.76C38.4345 9.66 38.4945 9.52 38.5745 9.4C38.6345 9.3 38.5945 8.86 38.1945 8.7C38.1945 8.68 37.8345 8.66 37.8145 8.66H37.5745C37.2145 8.66 36.7745 8.7 36.3145 8.92C36.0145 9.08 35.8945 9.4 35.5945 9.6C35.4545 9.68 35.3345 9.78 35.2145 9.88C34.9945 10.04 34.8945 10.22 34.7345 10.36C34.6545 10.44 34.5945 10.52 34.4945 10.58C34.1345 10.92 33.7945 11.58 33.3745 12.32C33.1945 12.62 33.1745 12.98 33.0945 13.18C33.0545 13.2 32.9545 13.5 32.9545 13.52C32.8945 13.72 32.9545 13.98 32.9545 14.2ZM42.0138 16.62C41.5538 16.62 41.3138 16.46 41.0138 16.16L40.9138 16.06C40.6138 15.72 40.3137 14.94 40.3137 14.52C40.3137 14.4 40.3337 14.24 40.3537 14.1L40.4537 13.7C40.4937 13.54 40.5938 13.2 40.6938 12.96C40.8938 12.46 41.1738 11.96 41.3938 11.46C41.5938 11.04 41.7738 10.68 41.8138 10.52L42.1338 9.52L42.4338 8.7L42.8538 8.02L42.8938 7.32L43.0538 6.82L43.1138 6.66C43.1938 6.38 43.2938 6.08 43.3538 5.78L43.4938 5.22L43.7938 4.32C44.2138 3.04 45.2338 0.359999 46.8138 0.359999C47.4338 0.359999 47.8138 0.84 47.8138 1.44V1.72C47.8138 2.04 47.5338 3.24 47.4338 3.66C47.3138 4.16 47.1738 4.7 46.9938 5.16L46.8138 5.6L46.1538 6.64L45.9538 7.16C45.7337 7.5 45.4938 7.84 45.2138 8.24C45.0738 8.5 44.8938 8.74 44.6938 9.02L44.4538 9.38L44.1538 9.76L43.7138 10.38L43.1138 11.14C42.9138 11.66 42.7138 12.22 42.4938 12.76L42.2338 13.1L41.8138 13.88C41.7538 14.1 41.8338 14.4 41.8138 14.56C41.8138 14.64 41.8738 14.7 41.8538 14.72L42.1538 15.08L42.2938 15.3H42.6938C43.1138 14.96 44.0138 14.6 44.3938 14.2L44.4738 14.14L44.6138 14L44.6938 13.94C44.7338 13.9 44.8338 13.8 44.8738 13.74C45.1938 13.36 45.5338 12.98 45.8138 12.56C46.1338 12.08 46.4138 11.58 46.6538 11.06C46.8338 10.7 46.9538 10.6 47.2338 10.56H47.2938C47.4538 10.56 47.4738 10.7 47.5738 11.02C47.5738 11.06 47.5938 11.1 47.5938 11.16C47.5938 11.34 47.5338 11.56 47.4338 11.7L47.1338 12.24C46.8938 12.64 46.4338 13.24 46.0138 13.9C45.6938 14.4 45.2338 14.82 44.8138 15.26C44.1138 15.98 42.7138 16.62 42.0138 16.62ZM44.4338 6.8L44.1138 7.92C44.9138 6.76 45.8538 5.3 46.3138 3.96C46.3538 3.82 46.4737 3.68 46.5138 3.52C46.5938 3.16 46.7338 2.02 46.7338 1.68C46.7338 1.44 46.6938 1.4 46.6338 1.4C46.3338 1.4 46.0338 1.76 45.8138 2.16L45.2738 3.8L45.0538 4.2L44.9938 4.42C44.9738 4.52 45.0138 4.7 44.9538 4.96C44.8138 5.5 44.5938 6.28 44.4338 6.8ZM47.0528 16.62C46.5928 16.62 46.3528 16.46 46.0528 16.16L45.9528 16.06C45.6528 15.72 45.3528 14.94 45.3528 14.52C45.3528 14.4 45.3728 14.24 45.3928 14.1L45.4928 13.7C45.5328 13.54 45.6328 13.2 45.7328 12.96C45.9328 12.46 46.2128 11.96 46.4328 11.46C46.6328 11.04 46.8128 10.68 46.8528 10.52L47.1728 9.52L47.4728 8.7L47.8928 8.02L47.9328 7.32L48.0928 6.82L48.1528 6.66C48.2328 6.38 48.3328 6.08 48.3928 5.78L48.5328 5.22L48.8328 4.32C49.2528 3.04 50.2728 0.359999 51.8528 0.359999C52.4728 0.359999 52.8528 0.84 52.8528 1.44V1.72C52.8528 2.04 52.5728 3.24 52.4728 3.66C52.3528 4.16 52.2128 4.7 52.0328 5.16L51.8528 5.6L51.1928 6.64L50.9928 7.16C50.7728 7.5 50.5328 7.84 50.2528 8.24C50.1128 8.5 49.9328 8.74 49.7328 9.02L49.4928 9.38L49.1928 9.76L48.7528 10.38L48.1528 11.14C47.9528 11.66 47.7528 12.22 47.5328 12.76L47.2728 13.1L46.8528 13.88C46.7928 14.1 46.8728 14.4 46.8528 14.56C46.8528 14.64 46.9128 14.7 46.8928 14.72L47.1928 15.08L47.3328 15.3H47.7328C48.1528 14.96 49.0528 14.6 49.4328 14.2L49.5128 14.14L49.6528 14L49.7328 13.94C49.7728 13.9 49.8728 13.8 49.9128 13.74C50.2328 13.36 50.5728 12.98 50.8528 12.56C51.1728 12.08 51.4528 11.58 51.6928 11.06C51.8728 10.7 51.9928 10.6 52.2728 10.56H52.3328C52.4928 10.56 52.5128 10.7 52.6128 11.02C52.6128 11.06 52.6328 11.1 52.6328 11.16C52.6328 11.34 52.5728 11.56 52.4728 11.7L52.1728 12.24C51.9328 12.64 51.4728 13.24 51.0528 13.9C50.7328 14.4 50.2728 14.82 49.8528 15.26C49.1528 15.98 47.7528 16.62 47.0528 16.62ZM49.4728 6.8L49.1528 7.92C49.9528 6.76 50.8928 5.3 51.3528 3.96C51.3928 3.82 51.5128 3.68 51.5528 3.52C51.6328 3.16 51.7728 2.02 51.7728 1.68C51.7728 1.44 51.7328 1.4 51.6728 1.4C51.3728 1.4 51.0728 1.76 50.8528 2.16L50.3128 3.8L50.0928 4.2L50.0328 4.42C50.0128 4.52 50.0528 4.7 49.9928 4.96C49.8528 5.5 49.6328 6.28 49.4728 6.8ZM55.3519 15.78L55.0719 15.86C54.5319 16.14 53.8919 16.26 53.2919 16.26C52.6119 16.26 51.3519 16.12 51.0519 15.82L50.9519 15.72C50.6519 15.4 50.3519 14.6 50.3519 14.2C50.3519 14.06 50.3719 13.9 50.3919 13.76L50.5719 13.08C50.6319 12.9 51.0319 12.16 51.2319 11.76C51.2719 11.64 51.3319 11.56 51.3319 11.52C51.5919 11.02 51.9119 10.4 52.4719 10.02C53.0519 9.64 53.2319 9.26 53.5719 8.96L53.8519 8.72C53.9919 8.6 54.1319 8.52 54.2519 8.42L54.3319 8.36C54.9119 7.98 55.4519 7.76 56.0519 7.58C56.4719 7.44 56.8919 7.26 57.3719 7.22C58.2919 7.22 58.8319 7.58 58.8319 8.52C58.8319 8.86 58.7319 9.16 58.6719 9.3C58.5119 9.6 58.2319 10.02 57.9719 10.26C57.8519 10.38 57.6119 10.54 57.3319 10.76C57.0519 11.02 56.6719 11.26 56.3719 11.48C55.9319 11.8 55.5719 12.1 55.1119 12.38L54.8119 12.52C54.2519 12.86 53.7319 13.08 53.1519 13.2C53.0119 13.2 52.9319 13.14 52.8119 13.12H52.7919C52.5919 13.12 52.4119 13.08 52.2719 12.96C52.2319 13.04 52.1719 13.1 52.1519 13.18C52.1119 13.2 52.0119 13.5 52.0119 13.52C51.9519 13.72 52.0119 13.98 52.0119 14.2C52.1319 14.6 52.5719 14.78 53.2719 14.78H53.4919C53.6319 14.8 53.7119 14.9 53.8119 14.9L54.3519 14.86C54.5119 14.82 54.6519 14.7 54.7719 14.68C55.0919 14.6 55.3119 14.56 55.6519 14.4C57.0119 13.8 58.4319 12.46 59.3319 11.32C59.4119 11.22 59.4719 11.1 59.5319 10.98C59.6519 10.7 59.6719 10.58 59.9519 10.56H59.9919C60.1519 10.56 60.3719 10.68 60.4719 10.92C60.4719 11.16 60.4519 11.34 60.3319 11.56C59.9719 12.2 59.4719 12.74 58.9719 13.26C58.2319 14.1 57.2119 14.96 56.0919 15.54C55.8919 15.64 55.6919 15.64 55.4919 15.72L55.3519 15.78ZM53.0119 11.82L53.0519 11.84C53.0919 11.84 53.1319 11.86 53.1519 11.86C53.1719 11.86 53.1919 11.86 53.2319 11.84L53.5919 11.86L54.1919 11.66C54.7519 11.36 55.1919 11.04 55.6319 10.74L55.6519 10.7C55.6719 10.66 55.6919 10.64 55.7519 10.6L55.7319 10.62C55.9319 10.48 56.1719 10.42 56.3519 10.26C56.5919 10.08 56.7519 9.8 56.9119 9.64C57.1519 9.42 57.4719 8.86 57.4719 8.7C57.4719 8.68 57.4719 8.66 57.4519 8.66C57.0919 8.66 56.6519 8.7 56.1919 8.92C55.8919 9.08 55.5719 9.4 55.2719 9.6C55.1319 9.68 54.8119 9.78 54.6919 9.88C54.4719 10.04 54.4719 10.18 54.3119 10.32C54.2319 10.4 54.1719 10.48 54.0719 10.54C53.8119 10.78 53.3919 11.3 53.0119 11.82ZM66.7844 13.26C66.4044 13.72 65.6444 14.18 65.1244 14.58C64.9244 14.74 64.7044 14.8 64.4844 14.94L64.3444 15.06L64.0444 15.3L63.8844 15.42C63.4644 15.7 63.0644 15.92 62.6044 15.94C62.0844 16.2 61.0044 16.46 60.5044 16.46C59.8244 16.46 58.9644 16.12 58.7844 15.8L58.5644 15.72C58.2644 15.4 58.1644 14.6 58.1644 14.2C58.1644 14.06 58.1844 13.9 58.2044 13.76L58.3844 13.08C58.4444 12.9 58.8444 12.16 59.0444 11.76C59.0844 11.64 59.1444 11.56 59.1444 11.52C59.6044 10.62 60.6044 9.62 61.3844 8.96L61.6644 8.72C61.8044 8.6 62.0444 8.52 62.1644 8.42L62.2444 8.26L62.5244 8.12C63.3444 7.62 64.1844 7.3 65.1844 7.22C65.5844 7.22 65.9244 7.28 66.1844 7.46C66.1844 7.46 66.2044 7.48 66.2044 7.5L66.2444 7.58C66.2444 7.6 66.2644 7.62 66.2644 7.62C66.3044 7.66 66.3644 7.6 66.4044 7.66C66.5644 7.86 66.6444 8.14 66.6444 8.52C66.6444 8.86 66.5444 9.16 66.4844 9.3C66.2844 9.66 65.9244 10.12 65.4444 10.12H65.3844C65.2644 10.12 65.1044 9.98 64.9444 9.96C64.8044 9.94 64.6844 9.74 64.6844 9.58C64.6844 9.46 64.7844 9.36 64.9244 9.22C65.0444 9.16 65.1644 9.06 65.2844 8.98C65.3844 8.92 65.2844 8.78 65.2844 8.7C65.2844 8.68 65.2844 8.66 65.2644 8.66C64.3644 8.66 62.8044 9.76 62.1244 10.32C62.0444 10.4 61.9844 10.48 61.8844 10.54C61.6444 10.76 61.2844 11.2 60.9644 11.66C60.8644 11.8 60.7444 11.96 60.4444 12.12C60.3844 12.52 60.1644 12.9 60.0644 13.18C60.0244 13.2 59.9244 13.5 59.9244 13.52C59.8644 13.72 59.8244 13.98 59.8244 14.2C59.9444 14.6 60.1844 14.98 60.4844 14.98H60.5044C60.6444 15 61.4444 14.9 61.5444 14.9L61.8244 14.86C61.9844 14.82 62.2444 14.7 62.3644 14.68C62.6844 14.6 62.8444 14.56 63.1844 14.4C64.5444 13.8 66.1444 12.46 67.0444 11.32L67.1044 11.24L67.2444 11.1L67.3044 11.02C67.5444 10.72 67.6844 10.58 67.9644 10.56H68.0044C68.1644 10.56 68.1844 10.68 68.2844 10.94L68.3044 11V11.04C68.3044 11.7 67.2044 12.82 66.7844 13.26ZM73.5364 10.98C73.7164 10.68 73.8364 10.58 74.0964 10.56H74.1364C74.3164 10.56 74.3364 10.68 74.4364 10.92C74.4364 10.96 74.4564 11.02 74.4564 11.04C74.4364 11.2 74.3764 11.44 74.2964 11.56C73.8764 12.22 73.3164 12.78 72.7364 13.3C71.9164 14.14 71.0564 14.94 70.0764 15.64C69.5364 16.04 68.7964 16.38 68.0964 16.38L67.8364 16.36C67.4764 16.32 66.9364 15.92 66.6364 15.4C66.2564 14.74 66.2964 13.46 66.6764 12.5C66.7164 12.4 66.6764 12.3 66.7164 12.22C66.7564 12.14 66.8764 12.06 66.8964 12C67.0164 11.62 67.4564 10.76 67.8764 9.7C68.0564 9.24 68.1364 9.16 68.3364 8.7L68.3964 8.58C68.2164 8.58 68.0564 8.6 67.9364 8.62L67.4964 8.74C67.1964 8.8 66.9364 8.84 66.8164 8.8L66.7964 8.78C66.6964 8.72 66.4764 8.54 66.4764 8.4L66.4364 8.36C66.4164 8.28 66.4364 8.22 66.4564 8.14C66.4964 8.02 66.5964 7.88 66.6764 7.82C66.7164 7.78 66.8164 7.74 66.9164 7.72C66.9764 7.7 67.0364 7.66 67.0564 7.66C67.1764 7.56 67.9964 7.46 68.0764 7.46H68.3764C68.4364 7.42 68.6564 7.46 68.8964 7.48C69.1764 6.9 69.6164 6.08 69.7964 5.76L70.0964 5.2L70.5564 4.34C70.6364 4.22 70.6764 4.1 70.7364 4C70.8964 3.6 71.0364 3.32 71.5164 3.32C71.8964 3.32 72.2964 3.52 72.4364 3.74C72.4764 3.82 72.4764 3.92 72.4764 4C72.4764 4.2 72.3764 4.36 72.1964 4.62C72.1364 4.7 72.0764 4.84 72.0164 4.96C71.9964 5.02 71.8764 5.34 71.6164 5.74C71.3564 6.12 70.9964 7 70.7364 7.48C71.2564 7.48 71.5764 7.48 71.7764 7.44L72.2164 7.36C72.5164 7.3 72.7764 7.28 72.8964 7.32L72.9164 7.34C72.9964 7.4 73.2164 7.56 73.2364 7.7L73.2764 7.74C73.2964 7.82 73.2764 7.92 73.2564 7.98C73.2164 8.12 73.1164 8.22 73.0364 8.28C72.9964 8.32 72.8964 8.36 72.7964 8.4C72.7364 8.4 72.6764 8.44 72.6764 8.44C72.5564 8.54 72.2564 8.6 72.1764 8.6C71.8564 8.6 71.6364 8.62 71.5964 8.62C71.5364 8.62 71.4764 8.62 71.3364 8.58C71.2764 8.62 70.8764 8.58 70.1764 8.56C70.1364 8.66 70.0764 8.74 70.0164 8.82C69.6764 9.36 69.7164 9.44 69.6764 9.52C69.4964 9.8 69.2964 10.16 69.1564 10.52L68.9764 10.96C68.8164 11.24 68.6764 11.56 68.5764 11.88L68.4364 12.3L68.3564 12.5C68.2564 12.8 68.1564 13.08 68.0764 13.36C67.8564 14.08 67.8764 14.96 68.2164 14.96C68.6364 14.96 69.2164 14.78 69.4964 14.58C70.3364 13.98 71.1164 13.4 71.8764 12.7C72.3564 12.26 72.8964 11.7 73.2764 11.28C73.3564 11.18 73.4764 11.08 73.5364 10.98ZM76.9288 15.82L76.6488 15.9C76.1088 16.18 75.5088 16.26 74.9088 16.26C74.2288 16.26 73.3688 16.12 73.0688 15.82L72.9688 15.72C72.6688 15.4 72.3687 14.6 72.3687 14.2C72.3687 14.06 72.3887 13.9 72.4087 13.76L72.5888 13.08C72.6488 12.9 72.9488 12.1 73.1488 11.7C73.1888 11.58 73.2488 11.5 73.2488 11.46C73.4688 10.94 73.6288 10.6 74.1888 10.02C74.6688 9.52 74.8288 9.26 75.1688 8.96L75.4488 8.72C75.5888 8.6 75.7288 8.52 75.8488 8.42L75.9288 8.36C76.5088 7.98 76.6488 7.76 77.2488 7.58C77.6488 7.44 78.4288 7.22 78.9688 7.22C79.3688 7.22 79.9088 7.28 80.1688 7.46C80.1688 7.46 80.1888 7.48 80.1888 7.5L80.2288 7.58C80.2288 7.6 80.2488 7.62 80.2488 7.62C80.2888 7.66 80.3488 7.6 80.3888 7.66C80.5488 7.86 80.8488 8.6 80.8488 8.98C80.8488 9.18 80.8288 9.38 80.7888 9.54C81.1488 9.74 81.2688 10.2 81.1488 10.6L81.0088 11.02C81.1288 11.12 81.2688 11.16 81.4488 11.16C81.5688 11.16 82.1888 11.1 82.3088 11.02C82.5488 10.86 83.0287 10.54 83.2688 10.56H83.3688C83.5288 10.56 83.5488 10.68 83.6488 10.92C83.6488 11.16 83.5888 11.24 83.4088 11.44C82.9888 11.88 81.6088 12.22 80.9088 12.2C80.7488 12.2 80.5888 12.18 80.4288 12.12C80.2488 12.46 80.0688 12.78 79.7288 13.26C78.9888 14.3 78.6288 14.82 77.6087 15.46C77.4088 15.58 77.2688 15.68 77.0688 15.76L76.9288 15.82ZM74.0288 14.2C74.1488 14.6 74.7888 14.78 75.0888 14.78H75.1087C75.2488 14.8 75.3288 14.9 75.4288 14.9L75.9288 14.84C76.0888 14.8 76.2288 14.68 76.3488 14.66C76.6688 14.58 76.8088 14.36 77.1488 14.16C78.1888 13.52 78.7088 12.72 79.4088 11.12C79.3888 10.94 79.3888 10.74 79.3888 10.5C79.3888 10.44 79.3888 10.36 79.4088 10.3C79.3688 10.26 79.3488 10.22 79.3288 10.18C79.2888 10.08 79.3288 9.94 79.4088 9.76C79.5088 9.66 79.5688 9.52 79.6488 9.4C79.7088 9.3 79.6688 8.86 79.2688 8.7C79.2688 8.68 78.9088 8.66 78.8888 8.66H78.6488C78.2888 8.66 77.8488 8.7 77.3888 8.92C77.0888 9.08 76.9688 9.4 76.6688 9.6C76.5288 9.68 76.4088 9.78 76.2888 9.88C76.0688 10.04 75.9688 10.22 75.8088 10.36C75.7288 10.44 75.6688 10.52 75.5688 10.58C75.2088 10.92 74.8688 11.58 74.4488 12.32C74.2688 12.62 74.2488 12.98 74.1688 13.18C74.1288 13.2 74.0288 13.5 74.0288 13.52C73.9688 13.72 74.0288 13.98 74.0288 14.2ZM86.528 16C86.328 16.2 86.148 16.24 85.988 16.24C85.528 16.24 84.568 16.04 84.448 15.74L84.388 15.7C84.048 15.44 83.948 14.68 83.948 14.3C83.948 14.12 83.968 13.94 84.028 13.74L84.308 13.16C84.368 13.06 84.388 12.98 84.408 12.92C84.448 12.78 84.488 12.68 84.608 12.56C84.748 12.4 84.888 12.22 84.948 12.04C85.048 11.82 85.208 11.66 85.308 11.56L85.388 11.48V11.44C85.468 11.32 85.528 11.24 85.608 11.18C85.708 11.08 85.788 11 85.848 10.88C85.988 10.76 86.068 10.66 86.168 10.52L86.228 10.46C86.568 10.14 86.768 9.92 86.868 9.82C87.108 9.58 86.788 9.84 87.268 9.48C86.868 9.62 86.428 9.78 86.088 9.92C85.708 10.06 85.428 10.18 85.388 10.2C85.308 10.22 85.228 10.26 85.108 10.22C84.748 10.34 84.488 10.42 84.348 10.48C84.288 10.56 84.228 10.64 84.128 10.74C83.828 11.24 83.528 11.48 83.348 11.68C83.028 12.04 82.328 12 82.308 11.78C82.308 11.58 82.308 11.46 82.428 11.28L82.748 10.78C82.808 10.68 82.868 10.64 82.948 10.5L83.068 10.3C83.128 10.22 83.248 10.04 83.268 9.98C83.408 9.66 83.588 9.4 83.728 9C83.828 8.78 83.888 8.58 84.008 8.4C84.028 8.32 84.028 8.26 84.068 8.2C84.288 7.76 84.428 7.38 84.908 7.24C84.988 7.22 85.088 7.2 85.208 7.2C85.608 7.2 85.968 7.38 85.848 7.7L85.908 7.82C85.908 8.02 85.888 8.16 85.708 8.4L85.488 8.66C85.488 8.68 85.468 8.74 85.448 8.76C85.468 8.76 85.468 8.8 85.468 8.8C85.488 8.8 85.548 8.78 85.628 8.8C85.708 8.7 86.448 8.54 86.828 8.4C87.308 8.22 87.808 8 88.088 7.84L88.228 7.78L88.468 7.62L88.608 7.56C88.948 7.36 89.248 7.2 89.408 7.2H89.448C89.608 7.22 89.948 7.36 90.028 7.52L90.008 7.5L90.188 7.82C90.248 7.9 90.268 8.02 90.268 8.12C90.268 8.3 90.208 8.48 90.128 8.6C90.088 8.66 89.988 8.76 89.888 8.84L89.748 8.96C89.648 9.14 89.308 9.34 89.208 9.38L88.248 10.34L87.548 11.16C87.468 11.28 87.348 11.4 87.248 11.48C87.088 11.62 86.908 11.78 86.708 11.86C86.788 12.02 86.508 12.32 86.368 12.66L86.128 13.14C86.028 13.36 85.928 13.58 85.828 13.76C85.708 14 85.648 14.24 85.628 14.36L85.608 14.4L85.628 14.66L85.668 14.78H85.688C85.808 14.78 86.448 14.78 86.568 14.74L86.648 14.7L87.388 14.42C87.628 14.34 87.788 14.1 88.008 13.96C89.228 13.16 90.448 12.14 91.328 11.02C91.568 10.72 91.788 10.58 91.908 10.56H91.948C92.128 10.56 92.148 10.68 92.248 10.92C92.248 11.16 92.248 11.34 92.108 11.56C91.748 12.2 91.248 12.74 90.728 13.26C90.288 13.76 89.208 14.7 88.508 15.32C88.028 15.66 87.108 16.04 86.528 16ZM108.803 9.48L108.783 9.5C108.543 10.16 108.163 10.82 107.823 11.48C107.043 13.02 106.903 13.58 105.463 14.76C105.223 14.96 104.943 15.16 104.583 15.32L103.843 15.7C103.683 15.76 103.543 15.8 103.383 15.88C102.643 16.22 101.963 16.26 100.983 16.26C99.9433 16.26 98.5233 15.88 98.0033 15.36L97.8433 15.18C97.3233 14.64 96.8633 13.5 96.8633 12.9C96.8633 12.28 97.0633 11.68 97.2233 11.06C97.3833 10.48 97.5233 9.9 97.7233 9.34C97.7833 9.16 97.8633 9 97.9433 8.82C98.0033 8.68 98.0633 8.56 98.1033 8.42C98.2433 8 98.3433 7.62 98.5033 7.24C98.6433 6.86 98.8433 6.48 99.2233 6.08C99.4633 5.84 99.6833 5.58 99.8433 5.3C99.9633 5.14 100.063 4.98 100.163 4.82C100.283 4.66 100.403 4.5 100.583 4.34C100.983 4 101.423 3.68 101.883 3.36C102.203 3.14 102.503 2.9 102.843 2.68C103.183 2.44 103.543 2.24 104.023 2.08C104.383 1.96 104.423 1.82 104.863 1.7C105.323 1.6 105.783 1.52 106.223 1.52C106.763 1.52 107.883 1.64 108.163 1.9L108.243 2.02V2.1C108.243 2.16 108.263 2.18 108.443 2.18C108.463 2.18 108.483 2.18 108.483 2.2C108.503 2.2 108.523 2.22 108.523 2.22C108.883 2.62 109.263 3.94 109.263 4.38C109.263 4.68 109.223 4.98 109.163 5.26V5.28C109.463 5.56 109.443 6.1 109.443 6.5C109.443 6.88 109.363 7.5 109.203 7.9C109.443 7.96 109.923 7.9 110.263 7.9C110.683 7.9 111.083 7.7 111.463 7.46L111.743 7.28C111.843 7.22 111.923 7.16 112.023 7.12C112.203 7.02 112.383 6.96 112.563 6.96L112.763 6.98C112.883 6.98 112.963 7.02 113.003 7.1C113.043 7.14 113.063 7.18 113.083 7.24L113.103 7.28V7.3L113.203 7.54C113.203 7.9 113.143 8.06 112.823 8.4C112.263 8.98 110.823 9.64 109.503 9.64C109.243 9.64 109.003 9.6 108.823 9.5L108.803 9.48ZM101.243 14.78L101.403 14.72C101.443 14.7 101.503 14.76 101.523 14.76C101.843 14.72 101.743 14.68 102.043 14.64C102.163 14.62 102.323 14.56 102.483 14.52L102.883 14.36C103.243 14.28 104.283 13.8 104.483 13.64C104.703 13.48 104.863 13.3 105.063 13.12C106.583 11.76 106.603 10.46 107.203 8.9L107.403 8.4C107.483 8.2 107.463 7.98 107.463 7.92C107.463 7.78 107.423 7.64 107.403 7.5C107.383 7.2 107.383 6.88 107.383 6.58V6.48L107.403 6.3V6.2L107.383 6.14L107.423 6.04C107.383 5.98 107.343 5.88 107.343 5.82C107.343 5.62 107.223 5.38 107.323 5.2L107.363 5.16L107.423 5.06L107.563 4.54C107.583 4.5 107.583 4.44 107.583 4.4C107.583 4.02 107.423 3.3 106.823 3.06C106.743 3.02 106.503 3 106.283 3C106.043 2.98 105.783 2.98 105.683 2.98C104.783 2.98 105.003 3.1 104.363 3.42C103.543 3.82 102.503 4.6 101.863 5.1C101.683 5.24 101.563 5.42 101.443 5.58C101.343 5.74 101.303 5.98 101.143 6.14C101.083 6.2 101.043 6.26 101.003 6.32L100.763 6.64C100.683 6.72 100.563 6.9 100.463 7.08L100.223 7.56C99.8433 8.3 99.4833 9.1 99.1633 9.86C98.9433 10.38 99.0233 10.92 98.8633 11.46C98.7433 11.54 98.6633 11.98 98.6633 12.12C98.6633 12.44 98.8833 12.84 98.9433 13.14C98.9433 13.16 98.9633 13.18 98.9633 13.22V13.4C98.9633 13.42 98.9833 13.46 98.9833 13.5C99.1033 13.98 99.9233 14.72 100.903 14.72H100.943C100.963 14.72 101.003 14.76 101.063 14.78C101.123 14.8 101.183 14.74 101.243 14.78ZM114.423 14.86L114.783 13.66C114.983 13.06 115.223 12.4 115.403 12L115.463 11.8C115.543 11.58 115.583 11.34 115.703 11.12C115.883 10.82 116.083 10.26 116.403 9.7L116.523 9.48C115.583 10.3 114.703 11.34 114.223 11.88C114.023 12.1 113.883 12.36 113.823 12.4L113.543 12.64L113.523 12.66H113.503C113.303 12.88 112.883 13.32 112.743 13.44L112.403 13.8C112.183 14.1 111.803 14.56 111.423 14.94L111.223 15.18C111.143 15.3 111.063 15.2 110.983 15.3C110.923 15.36 110.863 15.42 110.803 15.52C110.723 15.7 110.623 15.82 110.503 15.92L110.323 16.1C110.223 16.14 110.143 16.36 110.023 16.4H109.943C109.863 16.42 109.763 16.44 109.683 16.44C109.263 16.44 108.883 16.2 108.803 15.88V15.86C108.803 15.62 109.503 14.36 109.723 13.96L110.103 13.16C110.223 12.9 110.263 12.62 110.683 11.94L111.403 10.78L111.783 9.74L112.363 8.54L112.703 7.94C112.843 7.66 113.003 7.6 113.183 7.48C113.343 7.38 113.523 7.24 113.723 7.22C113.883 7.2 114.083 7.2 114.283 7.2C114.523 7.24 114.623 7.38 114.623 7.56C114.623 7.82 114.343 8.28 114.203 8.52C114.123 8.66 114.063 8.82 113.963 8.98L113.343 10.02L112.083 12.28L111.703 13.14L111.963 12.82C112.063 12.74 112.283 12.34 112.363 12.24L112.583 11.86C112.623 11.78 112.723 11.7 112.783 11.6C113.103 11.22 113.583 10.62 113.763 10.5L114.983 9.12C115.223 8.84 115.623 8.6 115.883 8.4C116.063 8.26 116.183 8.1 116.363 8C116.723 7.78 116.963 7.36 117.323 7.22C117.483 7.18 117.643 7.16 117.843 7.16C118.143 7.16 118.343 7.32 118.563 7.44C118.703 7.52 118.923 7.54 118.963 7.68C118.983 7.78 119.003 7.88 119.003 7.94C119.003 8.12 118.943 8.18 118.863 8.28L118.803 8.36C118.683 8.48 118.563 8.86 118.303 9.32C118.203 9.5 117.983 9.66 117.883 9.88C117.583 10.52 117.363 11.26 117.103 11.92C117.023 12.12 116.843 12.32 116.783 12.5C116.643 12.86 116.643 13.16 116.583 13.36C116.423 13.86 116.263 14.38 116.183 14.84C116.263 14.78 116.743 14.7 116.823 14.64C118.143 13.58 119.303 12.34 120.343 11.02C120.543 10.72 120.763 10.58 120.923 10.56H120.963C121.143 10.56 121.243 10.68 121.343 10.92C121.343 10.96 121.363 11.02 121.363 11.04C121.343 11.2 121.283 11.44 121.203 11.56C120.843 12.2 120.343 12.74 119.823 13.26C119.143 14.02 117.223 16.12 116.183 16.34C116.063 16.36 115.923 16.38 115.803 16.38C115.723 16.38 115.483 16.38 115.423 16.36H115.443C115.143 16.26 114.643 16.08 114.643 15.8C114.643 15.64 114.383 15.46 114.423 15.28C114.443 15.2 114.383 15.06 114.423 14.86ZM120.803 16.62C120.343 16.62 120.103 16.46 119.803 16.16L119.703 16.06C119.403 15.72 119.103 14.94 119.103 14.52C119.103 14.4 119.123 14.24 119.143 14.1L119.243 13.7C119.283 13.54 119.383 13.2 119.483 12.96C119.683 12.46 119.963 11.96 120.183 11.46C120.383 11.04 120.563 10.68 120.603 10.52L120.923 9.52L121.223 8.7L121.643 8.02L121.683 7.32L121.843 6.82L121.903 6.66C121.983 6.38 122.083 6.08 122.143 5.78L122.283 5.22L122.583 4.32C123.003 3.04 124.023 0.359999 125.603 0.359999C126.223 0.359999 126.603 0.84 126.603 1.44V1.72C126.603 2.04 126.323 3.24 126.223 3.66C126.103 4.16 125.963 4.7 125.783 5.16L125.603 5.6L124.943 6.64L124.743 7.16C124.523 7.5 124.283 7.84 124.003 8.24C123.863 8.5 123.683 8.74 123.483 9.02L123.243 9.38L122.943 9.76L122.503 10.38L121.903 11.14C121.703 11.66 121.503 12.22 121.283 12.76L121.023 13.1L120.603 13.88C120.543 14.1 120.623 14.4 120.603 14.56C120.603 14.64 120.663 14.7 120.643 14.72L120.943 15.08L121.083 15.3H121.483C121.903 14.96 122.803 14.6 123.183 14.2L123.263 14.14L123.403 14L123.483 13.94C123.523 13.9 123.623 13.8 123.663 13.74C123.983 13.36 124.323 12.98 124.603 12.56C124.923 12.08 125.203 11.58 125.443 11.06C125.623 10.7 125.743 10.6 126.023 10.56H126.083C126.243 10.56 126.263 10.7 126.363 11.02C126.363 11.06 126.383 11.1 126.383 11.16C126.383 11.34 126.323 11.56 126.223 11.7L125.923 12.24C125.683 12.64 125.223 13.24 124.803 13.9C124.483 14.4 124.023 14.82 123.603 15.26C122.903 15.98 121.503 16.62 120.803 16.62ZM123.223 6.8L122.903 7.92C123.703 6.76 124.643 5.3 125.103 3.96C125.143 3.82 125.263 3.68 125.303 3.52C125.383 3.16 125.523 2.02 125.523 1.68C125.523 1.44 125.483 1.4 125.423 1.4C125.123 1.4 124.823 1.76 124.603 2.16L124.063 3.8L123.843 4.2L123.783 4.42C123.763 4.52 123.803 4.7 123.743 4.96C123.603 5.5 123.383 6.28 123.223 6.8ZM124.382 13.16C124.442 13 124.542 12.8 124.662 12.54L125.402 10.84C125.562 10.46 125.862 10.14 126.002 9.74L126.582 8.54L126.922 7.94C127.062 7.66 127.222 7.6 127.402 7.48C127.562 7.38 127.742 7.24 127.942 7.22C128.102 7.2 128.302 7.2 128.502 7.2C128.742 7.24 128.842 7.38 128.842 7.56C128.842 7.82 128.562 8.28 128.422 8.52C128.342 8.66 128.282 8.82 128.182 8.98L127.562 10.02C127.062 10.9 126.502 12 126.062 12.88C125.922 13.22 125.802 13.34 125.742 13.52C125.662 13.7 125.582 13.92 125.542 14.1C125.402 14.54 125.522 14.98 125.962 14.98C126.222 14.98 126.522 14.92 126.842 14.72C127.122 14.54 127.542 14.44 127.862 14.26C128.302 14.02 128.622 13.62 128.922 13.34C129.362 12.9 129.902 11.64 130.262 10.74C130.462 10.28 130.582 9.84 130.862 9.32C131.042 8.96 131.142 8.58 131.302 8.26C131.382 8.14 131.422 8.02 131.482 7.92C131.642 7.52 131.782 7.24 132.262 7.24C132.622 7.24 133.082 7.46 133.162 7.64C133.182 7.72 133.202 7.82 133.202 7.9C133.202 8.1 133.102 8.26 132.922 8.52C132.862 8.6 132.802 8.74 132.722 8.86C132.622 9.06 132.522 9.3 132.382 9.52C132.202 9.8 132.022 10.16 131.862 10.52L131.662 10.96C131.522 11.26 131.382 11.56 131.282 11.88L131.142 12.3L131.062 12.5C130.962 12.8 130.842 13.08 130.762 13.36L130.722 13.5C131.042 13.28 131.382 13.06 131.642 12.84C132.002 12.56 132.562 12.16 132.882 11.94C133.422 11.54 133.922 11.2 134.262 10.86C134.402 10.74 134.582 10.6 134.842 10.58C135.042 10.58 135.222 10.66 135.302 10.84C135.322 10.86 135.342 10.9 135.342 10.94C135.342 11.08 135.282 11.34 135.202 11.44C134.902 11.78 134.542 12.04 134.182 12.34C134.062 12.42 133.922 12.5 133.802 12.6C133.362 12.96 132.482 13.58 131.822 14.06C131.382 14.38 130.662 14.8 129.942 15.26C129.882 15.4 129.882 15.52 129.742 15.82C129.702 15.9 129.642 16.1 129.562 16.38C129.562 16.46 129.462 16.7 129.422 16.78C129.062 17.64 128.782 18.46 128.522 19.12C128.382 19.48 128.262 19.74 128.062 20.08C128.002 20.3 127.902 20.48 127.802 20.58C127.682 20.72 127.642 20.86 127.562 20.98C127.302 21.66 126.162 22.54 125.542 22.54C125.202 22.54 124.722 22.44 124.462 21.86C124.422 21.7 124.362 21.42 124.362 21.14C124.362 20.96 124.362 20.8 124.382 20.72C124.522 20.12 124.762 19.4 125.082 18.76L125.142 18.62C125.282 18.36 125.722 17.86 126.042 17.4C126.222 17.14 126.602 16.88 126.782 16.64C126.962 16.4 127.442 15.98 127.642 15.72C127.682 15.66 127.802 15.54 127.882 15.46C127.802 15.52 127.702 15.56 127.562 15.64C127.342 15.8 127.082 15.88 126.862 16C126.482 16.18 126.322 16.36 125.942 16.36C125.342 16.36 124.782 16.14 124.462 15.7C124.362 15.56 124.322 15.34 124.262 15.18C124.182 15 124.222 14.82 124.202 14.64C124.142 14.16 124.162 13.64 124.382 13.16ZM125.742 20.04C125.562 20.56 125.762 21.14 125.782 21.14C125.882 21.14 126.442 20.3 126.682 19.92C126.862 19.64 127.162 19.22 127.262 18.8C127.422 18.52 127.502 18.38 127.562 18.24L127.782 17.62C127.882 17.3 128.042 16.9 128.182 16.46C128.082 16.58 127.962 16.68 127.922 16.78C127.802 17.04 127.362 17.36 127.222 17.56C127.002 17.86 126.862 18.16 126.442 18.48C126.282 18.72 126.222 18.94 126.082 19.18C126.002 19.3 125.942 19.42 125.862 19.6C125.822 19.72 125.762 19.88 125.742 20.04Z" fill="#E62C32"/>
<path d="M16.8094 6.82121C16.809 6.82185 16.8083 6.82224 16.8076 6.82224H0.190578C0.0107617 6.82224 -0.068903 7.02869 0.0722186 7.12985L13.7439 16.962C13.8908 17.0673 14.099 16.9372 14.0433 16.7762L8.68178 1.12116C8.62601 0.959098 8.37336 0.96013 8.31873 1.12116L3.05398 16.7741C2.99936 16.9362 3.20876 17.0652 3.35443 16.9589L16.9283 7.12778C17.068 7.02582 16.9901 6.82109 16.8111 6.82018C16.8104 6.82018 16.8097 6.82057 16.8094 6.82121V6.82121Z" fill="#E52C32"/>
</svg>
