<svg width="136" height="24" viewBox="0 0 136 24" fill="none" xmlns="http://www.w3.org/2000/svg">
<path d="M24.3128 15.4L24.6528 15.46L24.7328 15.44C24.8328 15.42 25.0528 15.34 25.2528 15.26C25.4728 15.16 25.9128 15.06 25.9928 15.02C26.0328 15.02 26.0728 15 26.1328 15C26.1528 15 26.1528 14.98 26.1728 14.98H26.2528C26.2728 14.98 26.2728 14.96 26.2928 14.96C26.5728 14.92 26.7728 14.92 26.9928 14.68C27.1128 14.54 27.2528 14.42 27.4528 14.3C27.4728 14.28 27.4728 14.28 27.4928 14.28L27.5928 14.22C27.6128 14.22 27.6128 14.2 27.6328 14.2C27.7328 14.18 27.7928 14.1 27.8928 14.1L27.9128 14.08L28.1328 13.72C28.1928 13.68 28.0528 13.62 28.1128 13.56C28.1528 13.52 28.4128 13.48 28.4528 13.44H28.4728L28.4928 13.42C28.5728 13.34 28.6328 13.28 28.6728 13.22C28.7128 13.14 28.7528 13.08 28.7728 13C28.8128 12.9 28.8728 12.8 28.9128 12.68L28.9728 12.6L29.0928 12.46L29.1328 12.38C29.2728 12.18 29.5528 11.38 29.6128 11.16C29.7128 10.74 29.7128 10.08 29.6328 9.66V9.64H29.6128C29.4528 9.66 29.3528 9.7 29.2328 9.78L29.0328 9.94C29.0328 9.94 29.0128 9.94 28.9928 9.96C28.9728 9.96 28.9728 9.98 28.9528 10L28.8528 10.06L28.8128 10.1L28.5728 10.24C28.5528 10.24 28.5528 10.26 28.5328 10.28L28.4328 10.34L28.1928 10.56C27.9928 10.76 27.8728 11.12 27.7928 11.42C27.7128 11.76 27.3928 12.8 27.1528 12.98L26.9528 13.1C26.6528 13.08 26.5128 13 26.4528 12.88C26.4328 12.82 26.2928 12.62 26.2728 12.54L26.2928 12.14C26.2928 11.98 26.3328 11.82 26.3928 11.66L26.4728 11.52C26.5328 11.46 26.5328 11.4 26.5328 11.32V11.18C26.5328 11.04 26.5528 10.94 26.6128 10.82L26.7528 10.5C26.9728 9.86 27.4328 9.42 27.7128 9.24C27.8128 9.18 27.9328 9.12 28.0328 9.04C28.0328 9.04 28.0528 9.04 28.0728 9.02C28.0728 9.02 28.0928 9.02 28.1128 9C28.1528 9 28.2528 8.92 28.2728 8.9L28.4128 8.76L28.4928 8.7C28.6328 8.56 28.8928 8.48 28.9728 8.42H28.9928C29.2728 8.26 29.5328 8.18 29.9328 8.18H30.2328L30.3528 8.2H30.4128C30.7128 8.3 30.9728 8.72 31.0128 9.02C31.0528 9.32 31.1128 9.64 31.1328 9.82C31.1328 10.06 31.1328 10.48 31.1128 10.72C31.0928 11.14 30.7728 12.14 30.6328 12.56L30.4728 13C30.4528 13.12 30.4328 13.22 30.3528 13.34C30.1928 13.66 29.4528 14.68 29.0528 14.94C28.9128 15.02 28.7528 15.12 28.6128 15.22C28.6328 15.3 28.3728 15.54 28.2928 15.62C28.2328 15.66 27.9928 15.76 27.8928 15.74L27.8728 15.76C27.6928 15.98 27.3128 16.12 27.0528 16.24L26.6728 16.38L26.1728 16.54C26.1328 16.54 26.0728 16.58 26.0328 16.6L25.9328 16.66H25.9128C25.6128 16.78 24.8928 16.94 24.5528 16.94H24.4928C24.2328 16.94 23.1328 16.72 22.9928 16.64C22.7928 16.52 22.6328 16.38 22.4328 16.28C22.4128 16.26 22.3928 16.26 22.3728 16.26C22.3528 16.24 22.3328 16.24 22.3128 16.24C22.2728 16.22 22.2128 16.2 22.1928 16.2C22.0728 16.12 22.0128 16.06 21.9728 15.96C21.9328 15.9 21.9128 15.82 21.8728 15.74C21.8328 15.66 21.7328 15.62 21.6328 15.58L21.4928 15.52L21.3928 15.46L21.2528 15.28L21.1128 15.12L21.0928 15.04V15.02C21.0928 15 21.0728 14.98 21.0728 14.98L21.0328 14.92L20.9528 14.78L20.9328 14.72C20.8528 14.58 20.6328 14.08 20.6328 13.96C20.6128 13.66 20.6128 13.34 20.6328 13.04C20.6928 12.02 21.2328 10.42 21.8728 9.44C21.9328 9.34 21.9728 9.22 22.0528 9.1C22.3528 8.5 22.6528 7.86 23.0928 7.28C23.3728 6.88 23.7728 6.44 24.1128 6.08C24.9128 5.26 25.0528 4.98 25.9128 4.22C26.1528 4.02 26.4128 3.82 26.6928 3.64C26.7728 3.58 26.8928 3.54 27.0128 3.48C27.1128 3.42 27.2128 3.36 27.2728 3.3C27.3728 3.22 27.4728 3.1 27.5928 3.02C27.7928 2.84 28.0528 2.8 28.2928 2.7C28.5128 2.6 28.7528 2.5 29.0528 2.36C29.4528 2.18 29.8928 2.1 30.4128 2.04C30.4528 2.04 30.5128 2.04 30.5728 2.02H30.7128C31.0328 2.02 31.5328 2.08 31.6928 2.26V2.28C31.7128 2.32 31.7128 2.34 31.7128 2.36C31.7328 2.4 31.7528 2.42 31.8528 2.42C31.9328 2.42 31.9928 2.6 32.0328 2.82C32.0728 3.02 32.0728 3.24 32.0728 3.3C32.0528 3.7 31.8928 4.74 31.5128 5.12C31.4328 5.2 31.2928 5.38 31.1528 5.52C30.9928 5.68 30.4528 5.88 30.2328 5.88H29.9928C29.6328 5.88 29.4128 5.4 29.4328 5.22C29.4328 5.12 29.5328 5 29.6728 4.88C29.8128 4.76 29.9528 4.64 30.0928 4.56C30.1928 4.48 30.5328 4.04 30.5328 3.94L30.5528 3.84L30.5928 3.66V3.58C30.6128 3.5 30.4528 3.4 30.2928 3.4C29.9328 3.4 29.3728 3.62 29.1728 3.78C28.6328 4.2 27.9128 4.42 27.4128 4.86C26.6928 5.48 26.5328 5.78 25.8328 6.44L25.5728 6.72C25.5128 6.82 25.4528 6.94 25.3728 7.02C24.9928 7.54 24.5928 8.06 24.2928 8.58C24.1528 8.82 24.1128 9.06 24.0128 9.3C23.9928 9.36 23.8528 9.42 23.8128 9.5L23.6728 9.92V10.14C23.5928 10.3 23.4928 10.48 23.4328 10.66C23.4128 10.7 23.2528 10.74 23.2728 10.82L23.2928 11.12C23.2928 11.14 23.2728 11.16 23.2728 11.2L23.1928 11.38C23.1928 11.4 22.9328 12.1 22.9128 12.14C22.8728 12.24 22.7928 12.34 22.7728 12.46L22.7528 12.52V12.62V12.72V12.84L22.7328 12.96C22.7128 13.3 22.7728 14.16 22.9928 14.4L23.0928 14.5L23.3128 14.74L23.3928 14.84C23.5528 14.98 23.6928 15.12 23.9128 15.22C23.9328 15.22 23.9328 15.24 23.9528 15.24L24.0528 15.3C24.0728 15.3 24.0728 15.3 24.0928 15.32C24.1728 15.36 24.2328 15.38 24.3128 15.4ZM35.8545 16.32L35.5745 16.4C35.0345 16.68 34.4345 16.76 33.8345 16.76C33.1545 16.76 32.2945 16.62 31.9945 16.32L31.8945 16.22C31.5945 15.9 31.2945 15.1 31.2945 14.7C31.2945 14.56 31.3145 14.4 31.3345 14.26L31.5145 13.58C31.5745 13.4 31.8745 12.6 32.0745 12.2C32.1145 12.08 32.1745 12 32.1745 11.96C32.3945 11.44 32.5545 11.1 33.1145 10.52C33.5945 10.02 33.7545 9.76 34.0945 9.46L34.3745 9.22C34.5145 9.1 34.6545 9.02 34.7745 8.92L34.8545 8.86C35.4345 8.48 35.5745 8.26 36.1745 8.08C36.5745 7.94 37.3545 7.72 37.8945 7.72C38.2945 7.72 38.8345 7.78 39.0945 7.96C39.0945 7.96 39.1145 7.98 39.1145 8L39.1545 8.08C39.1545 8.1 39.1745 8.12 39.1745 8.12C39.2145 8.16 39.2745 8.1 39.3145 8.16C39.4745 8.36 39.7745 9.1 39.7745 9.48C39.7745 9.68 39.7545 9.88 39.7145 10.04C40.0745 10.24 40.1945 10.7 40.0745 11.1L39.9345 11.52C40.0545 11.62 40.1945 11.66 40.3745 11.66C40.4945 11.66 41.1145 11.6 41.2345 11.52C41.4745 11.36 41.9545 11.04 42.1945 11.06H42.2945C42.4545 11.06 42.4745 11.18 42.5745 11.42C42.5745 11.66 42.5145 11.74 42.3345 11.94C41.9145 12.38 40.5345 12.72 39.8345 12.7C39.6745 12.7 39.5145 12.68 39.3545 12.62C39.1745 12.96 38.9945 13.28 38.6545 13.76C37.9145 14.8 37.5545 15.32 36.5345 15.96C36.3345 16.08 36.1945 16.18 35.9945 16.26L35.8545 16.32ZM32.9545 14.7C33.0745 15.1 33.7145 15.28 34.0145 15.28H34.0345C34.1745 15.3 34.2545 15.4 34.3545 15.4L34.8545 15.34C35.0145 15.3 35.1545 15.18 35.2745 15.16C35.5945 15.08 35.7345 14.86 36.0745 14.66C37.1145 14.02 37.6345 13.22 38.3345 11.62C38.3145 11.44 38.3145 11.24 38.3145 11C38.3145 10.94 38.3145 10.86 38.3345 10.8C38.2945 10.76 38.2745 10.72 38.2545 10.68C38.2145 10.58 38.2545 10.44 38.3345 10.26C38.4345 10.16 38.4945 10.02 38.5745 9.9C38.6345 9.8 38.5945 9.36 38.1945 9.2C38.1945 9.18 37.8345 9.16 37.8145 9.16H37.5745C37.2145 9.16 36.7745 9.2 36.3145 9.42C36.0145 9.58 35.8945 9.9 35.5945 10.1C35.4545 10.18 35.3345 10.28 35.2145 10.38C34.9945 10.54 34.8945 10.72 34.7345 10.86C34.6545 10.94 34.5945 11.02 34.4945 11.08C34.1345 11.42 33.7945 12.08 33.3745 12.82C33.1945 13.12 33.1745 13.48 33.0945 13.68C33.0545 13.7 32.9545 14 32.9545 14.02C32.8945 14.22 32.9545 14.48 32.9545 14.7ZM42.0138 17.12C41.5538 17.12 41.3138 16.96 41.0138 16.66L40.9138 16.56C40.6138 16.22 40.3137 15.44 40.3137 15.02C40.3137 14.9 40.3337 14.74 40.3537 14.6L40.4537 14.2C40.4937 14.04 40.5938 13.7 40.6938 13.46C40.8938 12.96 41.1738 12.46 41.3938 11.96C41.5938 11.54 41.7738 11.18 41.8138 11.02L42.1338 10.02L42.4338 9.2L42.8538 8.52L42.8938 7.82L43.0538 7.32L43.1138 7.16C43.1938 6.88 43.2938 6.58 43.3538 6.28L43.4938 5.72L43.7938 4.82C44.2138 3.54 45.2338 0.859999 46.8138 0.859999C47.4338 0.859999 47.8138 1.34 47.8138 1.94V2.22C47.8138 2.54 47.5338 3.74 47.4338 4.16C47.3138 4.66 47.1738 5.2 46.9938 5.66L46.8138 6.1L46.1538 7.14L45.9538 7.66C45.7337 8 45.4938 8.34 45.2138 8.74C45.0738 9 44.8938 9.24 44.6938 9.52L44.4538 9.88L44.1538 10.26L43.7138 10.88L43.1138 11.64C42.9138 12.16 42.7138 12.72 42.4938 13.26L42.2338 13.6L41.8138 14.38C41.7538 14.6 41.8338 14.9 41.8138 15.06C41.8138 15.14 41.8738 15.2 41.8538 15.22L42.1538 15.58L42.2938 15.8H42.6938C43.1138 15.46 44.0138 15.1 44.3938 14.7L44.4738 14.64L44.6138 14.5L44.6938 14.44C44.7338 14.4 44.8338 14.3 44.8738 14.24C45.1938 13.86 45.5338 13.48 45.8138 13.06C46.1338 12.58 46.4138 12.08 46.6538 11.56C46.8338 11.2 46.9538 11.1 47.2338 11.06H47.2938C47.4538 11.06 47.4738 11.2 47.5738 11.52C47.5738 11.56 47.5938 11.6 47.5938 11.66C47.5938 11.84 47.5338 12.06 47.4338 12.2L47.1338 12.74C46.8938 13.14 46.4338 13.74 46.0138 14.4C45.6938 14.9 45.2338 15.32 44.8138 15.76C44.1138 16.48 42.7138 17.12 42.0138 17.12ZM44.4338 7.3L44.1138 8.42C44.9138 7.26 45.8538 5.8 46.3138 4.46C46.3538 4.32 46.4737 4.18 46.5138 4.02C46.5938 3.66 46.7338 2.52 46.7338 2.18C46.7338 1.94 46.6938 1.9 46.6338 1.9C46.3338 1.9 46.0338 2.26 45.8138 2.66L45.2738 4.3L45.0538 4.7L44.9938 4.92C44.9738 5.02 45.0138 5.2 44.9538 5.46C44.8138 6 44.5938 6.78 44.4338 7.3ZM47.0528 17.12C46.5928 17.12 46.3528 16.96 46.0528 16.66L45.9528 16.56C45.6528 16.22 45.3528 15.44 45.3528 15.02C45.3528 14.9 45.3728 14.74 45.3928 14.6L45.4928 14.2C45.5328 14.04 45.6328 13.7 45.7328 13.46C45.9328 12.96 46.2128 12.46 46.4328 11.96C46.6328 11.54 46.8128 11.18 46.8528 11.02L47.1728 10.02L47.4728 9.2L47.8928 8.52L47.9328 7.82L48.0928 7.32L48.1528 7.16C48.2328 6.88 48.3328 6.58 48.3928 6.28L48.5328 5.72L48.8328 4.82C49.2528 3.54 50.2728 0.859999 51.8528 0.859999C52.4728 0.859999 52.8528 1.34 52.8528 1.94V2.22C52.8528 2.54 52.5728 3.74 52.4728 4.16C52.3528 4.66 52.2128 5.2 52.0328 5.66L51.8528 6.1L51.1928 7.14L50.9928 7.66C50.7728 8 50.5328 8.34 50.2528 8.74C50.1128 9 49.9328 9.24 49.7328 9.52L49.4928 9.88L49.1928 10.26L48.7528 10.88L48.1528 11.64C47.9528 12.16 47.7528 12.72 47.5328 13.26L47.2728 13.6L46.8528 14.38C46.7928 14.6 46.8728 14.9 46.8528 15.06C46.8528 15.14 46.9128 15.2 46.8928 15.22L47.1928 15.58L47.3328 15.8H47.7328C48.1528 15.46 49.0528 15.1 49.4328 14.7L49.5128 14.64L49.6528 14.5L49.7328 14.44C49.7728 14.4 49.8728 14.3 49.9128 14.24C50.2328 13.86 50.5728 13.48 50.8528 13.06C51.1728 12.58 51.4528 12.08 51.6928 11.56C51.8728 11.2 51.9928 11.1 52.2728 11.06H52.3328C52.4928 11.06 52.5128 11.2 52.6128 11.52C52.6128 11.56 52.6328 11.6 52.6328 11.66C52.6328 11.84 52.5728 12.06 52.4728 12.2L52.1728 12.74C51.9328 13.14 51.4728 13.74 51.0528 14.4C50.7328 14.9 50.2728 15.32 49.8528 15.76C49.1528 16.48 47.7528 17.12 47.0528 17.12ZM49.4728 7.3L49.1528 8.42C49.9528 7.26 50.8928 5.8 51.3528 4.46C51.3928 4.32 51.5128 4.18 51.5528 4.02C51.6328 3.66 51.7728 2.52 51.7728 2.18C51.7728 1.94 51.7328 1.9 51.6728 1.9C51.3728 1.9 51.0728 2.26 50.8528 2.66L50.3128 4.3L50.0928 4.7L50.0328 4.92C50.0128 5.02 50.0528 5.2 49.9928 5.46C49.8528 6 49.6328 6.78 49.4728 7.3ZM55.3519 16.28L55.0719 16.36C54.5319 16.64 53.8919 16.76 53.2919 16.76C52.6119 16.76 51.3519 16.62 51.0519 16.32L50.9519 16.22C50.6519 15.9 50.3519 15.1 50.3519 14.7C50.3519 14.56 50.3719 14.4 50.3919 14.26L50.5719 13.58C50.6319 13.4 51.0319 12.66 51.2319 12.26C51.2719 12.14 51.3319 12.06 51.3319 12.02C51.5919 11.52 51.9119 10.9 52.4719 10.52C53.0519 10.14 53.2319 9.76 53.5719 9.46L53.8519 9.22C53.9919 9.1 54.1319 9.02 54.2519 8.92L54.3319 8.86C54.9119 8.48 55.4519 8.26 56.0519 8.08C56.4719 7.94 56.8919 7.76 57.3719 7.72C58.2919 7.72 58.8319 8.08 58.8319 9.02C58.8319 9.36 58.7319 9.66 58.6719 9.8C58.5119 10.1 58.2319 10.52 57.9719 10.76C57.8519 10.88 57.6119 11.04 57.3319 11.26C57.0519 11.52 56.6719 11.76 56.3719 11.98C55.9319 12.3 55.5719 12.6 55.1119 12.88L54.8119 13.02C54.2519 13.36 53.7319 13.58 53.1519 13.7C53.0119 13.7 52.9319 13.64 52.8119 13.62H52.7919C52.5919 13.62 52.4119 13.58 52.2719 13.46C52.2319 13.54 52.1719 13.6 52.1519 13.68C52.1119 13.7 52.0119 14 52.0119 14.02C51.9519 14.22 52.0119 14.48 52.0119 14.7C52.1319 15.1 52.5719 15.28 53.2719 15.28H53.4919C53.6319 15.3 53.7119 15.4 53.8119 15.4L54.3519 15.36C54.5119 15.32 54.6519 15.2 54.7719 15.18C55.0919 15.1 55.3119 15.06 55.6519 14.9C57.0119 14.3 58.4319 12.96 59.3319 11.82C59.4119 11.72 59.4719 11.6 59.5319 11.48C59.6519 11.2 59.6719 11.08 59.9519 11.06H59.9919C60.1519 11.06 60.3719 11.18 60.4719 11.42C60.4719 11.66 60.4519 11.84 60.3319 12.06C59.9719 12.7 59.4719 13.24 58.9719 13.76C58.2319 14.6 57.2119 15.46 56.0919 16.04C55.8919 16.14 55.6919 16.14 55.4919 16.22L55.3519 16.28ZM53.0119 12.32L53.0519 12.34C53.0919 12.34 53.1319 12.36 53.1519 12.36C53.1719 12.36 53.1919 12.36 53.2319 12.34L53.5919 12.36L54.1919 12.16C54.7519 11.86 55.1919 11.54 55.6319 11.24L55.6519 11.2C55.6719 11.16 55.6919 11.14 55.7519 11.1L55.7319 11.12C55.9319 10.98 56.1719 10.92 56.3519 10.76C56.5919 10.58 56.7519 10.3 56.9119 10.14C57.1519 9.92 57.4719 9.36 57.4719 9.2C57.4719 9.18 57.4719 9.16 57.4519 9.16C57.0919 9.16 56.6519 9.2 56.1919 9.42C55.8919 9.58 55.5719 9.9 55.2719 10.1C55.1319 10.18 54.8119 10.28 54.6919 10.38C54.4719 10.54 54.4719 10.68 54.3119 10.82C54.2319 10.9 54.1719 10.98 54.0719 11.04C53.8119 11.28 53.3919 11.8 53.0119 12.32ZM66.7844 13.76C66.4044 14.22 65.6444 14.68 65.1244 15.08C64.9244 15.24 64.7044 15.3 64.4844 15.44L64.3444 15.56L64.0444 15.8L63.8844 15.92C63.4644 16.2 63.0644 16.42 62.6044 16.44C62.0844 16.7 61.0044 16.96 60.5044 16.96C59.8244 16.96 58.9644 16.62 58.7844 16.3L58.5644 16.22C58.2644 15.9 58.1644 15.1 58.1644 14.7C58.1644 14.56 58.1844 14.4 58.2044 14.26L58.3844 13.58C58.4444 13.4 58.8444 12.66 59.0444 12.26C59.0844 12.14 59.1444 12.06 59.1444 12.02C59.6044 11.12 60.6044 10.12 61.3844 9.46L61.6644 9.22C61.8044 9.1 62.0444 9.02 62.1644 8.92L62.2444 8.76L62.5244 8.62C63.3444 8.12 64.1844 7.8 65.1844 7.72C65.5844 7.72 65.9244 7.78 66.1844 7.96C66.1844 7.96 66.2044 7.98 66.2044 8L66.2444 8.08C66.2444 8.1 66.2644 8.12 66.2644 8.12C66.3044 8.16 66.3644 8.1 66.4044 8.16C66.5644 8.36 66.6444 8.64 66.6444 9.02C66.6444 9.36 66.5444 9.66 66.4844 9.8C66.2844 10.16 65.9244 10.62 65.4444 10.62H65.3844C65.2644 10.62 65.1044 10.48 64.9444 10.46C64.8044 10.44 64.6844 10.24 64.6844 10.08C64.6844 9.96 64.7844 9.86 64.9244 9.72C65.0444 9.66 65.1644 9.56 65.2844 9.48C65.3844 9.42 65.2844 9.28 65.2844 9.2C65.2844 9.18 65.2844 9.16 65.2644 9.16C64.3644 9.16 62.8044 10.26 62.1244 10.82C62.0444 10.9 61.9844 10.98 61.8844 11.04C61.6444 11.26 61.2844 11.7 60.9644 12.16C60.8644 12.3 60.7444 12.46 60.4444 12.62C60.3844 13.02 60.1644 13.4 60.0644 13.68C60.0244 13.7 59.9244 14 59.9244 14.02C59.8644 14.22 59.8244 14.48 59.8244 14.7C59.9444 15.1 60.1844 15.48 60.4844 15.48H60.5044C60.6444 15.5 61.4444 15.4 61.5444 15.4L61.8244 15.36C61.9844 15.32 62.2444 15.2 62.3644 15.18C62.6844 15.1 62.8444 15.06 63.1844 14.9C64.5444 14.3 66.1444 12.96 67.0444 11.82L67.1044 11.74L67.2444 11.6L67.3044 11.52C67.5444 11.22 67.6844 11.08 67.9644 11.06H68.0044C68.1644 11.06 68.1844 11.18 68.2844 11.44L68.3044 11.5V11.54C68.3044 12.2 67.2044 13.32 66.7844 13.76ZM73.5364 11.48C73.7164 11.18 73.8364 11.08 74.0964 11.06H74.1364C74.3164 11.06 74.3364 11.18 74.4364 11.42C74.4364 11.46 74.4564 11.52 74.4564 11.54C74.4364 11.7 74.3764 11.94 74.2964 12.06C73.8764 12.72 73.3164 13.28 72.7364 13.8C71.9164 14.64 71.0564 15.44 70.0764 16.14C69.5364 16.54 68.7964 16.88 68.0964 16.88L67.8364 16.86C67.4764 16.82 66.9364 16.42 66.6364 15.9C66.2564 15.24 66.2964 13.96 66.6764 13C66.7164 12.9 66.6764 12.8 66.7164 12.72C66.7564 12.64 66.8764 12.56 66.8964 12.5C67.0164 12.12 67.4564 11.26 67.8764 10.2C68.0564 9.74 68.1364 9.66 68.3364 9.2L68.3964 9.08C68.2164 9.08 68.0564 9.1 67.9364 9.12L67.4964 9.24C67.1964 9.3 66.9364 9.34 66.8164 9.3L66.7964 9.28C66.6964 9.22 66.4764 9.04 66.4764 8.9L66.4364 8.86C66.4164 8.78 66.4364 8.72 66.4564 8.64C66.4964 8.52 66.5964 8.38 66.6764 8.32C66.7164 8.28 66.8164 8.24 66.9164 8.22C66.9764 8.2 67.0364 8.16 67.0564 8.16C67.1764 8.06 67.9964 7.96 68.0764 7.96H68.3764C68.4364 7.92 68.6564 7.96 68.8964 7.98C69.1764 7.4 69.6164 6.58 69.7964 6.26L70.0964 5.7L70.5564 4.84C70.6364 4.72 70.6764 4.6 70.7364 4.5C70.8964 4.1 71.0364 3.82 71.5164 3.82C71.8964 3.82 72.2964 4.02 72.4364 4.24C72.4764 4.32 72.4764 4.42 72.4764 4.5C72.4764 4.7 72.3764 4.86 72.1964 5.12C72.1364 5.2 72.0764 5.34 72.0164 5.46C71.9964 5.52 71.8764 5.84 71.6164 6.24C71.3564 6.62 70.9964 7.5 70.7364 7.98C71.2564 7.98 71.5764 7.98 71.7764 7.94L72.2164 7.86C72.5164 7.8 72.7764 7.78 72.8964 7.82L72.9164 7.84C72.9964 7.9 73.2164 8.06 73.2364 8.2L73.2764 8.24C73.2964 8.32 73.2764 8.42 73.2564 8.48C73.2164 8.62 73.1164 8.72 73.0364 8.78C72.9964 8.82 72.8964 8.86 72.7964 8.9C72.7364 8.9 72.6764 8.94 72.6764 8.94C72.5564 9.04 72.2564 9.1 72.1764 9.1C71.8564 9.1 71.6364 9.12 71.5964 9.12C71.5364 9.12 71.4764 9.12 71.3364 9.08C71.2764 9.12 70.8764 9.08 70.1764 9.06C70.1364 9.16 70.0764 9.24 70.0164 9.32C69.6764 9.86 69.7164 9.94 69.6764 10.02C69.4964 10.3 69.2964 10.66 69.1564 11.02L68.9764 11.46C68.8164 11.74 68.6764 12.06 68.5764 12.38L68.4364 12.8L68.3564 13C68.2564 13.3 68.1564 13.58 68.0764 13.86C67.8564 14.58 67.8764 15.46 68.2164 15.46C68.6364 15.46 69.2164 15.28 69.4964 15.08C70.3364 14.48 71.1164 13.9 71.8764 13.2C72.3564 12.76 72.8964 12.2 73.2764 11.78C73.3564 11.68 73.4764 11.58 73.5364 11.48ZM76.9288 16.32L76.6488 16.4C76.1088 16.68 75.5088 16.76 74.9088 16.76C74.2288 16.76 73.3688 16.62 73.0688 16.32L72.9688 16.22C72.6688 15.9 72.3687 15.1 72.3687 14.7C72.3687 14.56 72.3887 14.4 72.4087 14.26L72.5888 13.58C72.6488 13.4 72.9488 12.6 73.1488 12.2C73.1888 12.08 73.2488 12 73.2488 11.96C73.4688 11.44 73.6288 11.1 74.1888 10.52C74.6688 10.02 74.8288 9.76 75.1688 9.46L75.4488 9.22C75.5888 9.1 75.7288 9.02 75.8488 8.92L75.9288 8.86C76.5088 8.48 76.6488 8.26 77.2488 8.08C77.6488 7.94 78.4288 7.72 78.9688 7.72C79.3688 7.72 79.9088 7.78 80.1688 7.96C80.1688 7.96 80.1888 7.98 80.1888 8L80.2288 8.08C80.2288 8.1 80.2488 8.12 80.2488 8.12C80.2888 8.16 80.3488 8.1 80.3888 8.16C80.5488 8.36 80.8488 9.1 80.8488 9.48C80.8488 9.68 80.8288 9.88 80.7888 10.04C81.1488 10.24 81.2688 10.7 81.1488 11.1L81.0088 11.52C81.1288 11.62 81.2688 11.66 81.4488 11.66C81.5688 11.66 82.1888 11.6 82.3088 11.52C82.5488 11.36 83.0287 11.04 83.2688 11.06H83.3688C83.5288 11.06 83.5488 11.18 83.6488 11.42C83.6488 11.66 83.5888 11.74 83.4088 11.94C82.9888 12.38 81.6088 12.72 80.9088 12.7C80.7488 12.7 80.5888 12.68 80.4288 12.62C80.2488 12.96 80.0688 13.28 79.7288 13.76C78.9888 14.8 78.6288 15.32 77.6087 15.96C77.4088 16.08 77.2688 16.18 77.0688 16.26L76.9288 16.32ZM74.0288 14.7C74.1488 15.1 74.7888 15.28 75.0888 15.28H75.1087C75.2488 15.3 75.3288 15.4 75.4288 15.4L75.9288 15.34C76.0888 15.3 76.2288 15.18 76.3488 15.16C76.6688 15.08 76.8088 14.86 77.1488 14.66C78.1888 14.02 78.7088 13.22 79.4088 11.62C79.3888 11.44 79.3888 11.24 79.3888 11C79.3888 10.94 79.3888 10.86 79.4088 10.8C79.3688 10.76 79.3488 10.72 79.3288 10.68C79.2888 10.58 79.3288 10.44 79.4088 10.26C79.5088 10.16 79.5688 10.02 79.6488 9.9C79.7088 9.8 79.6688 9.36 79.2688 9.2C79.2688 9.18 78.9088 9.16 78.8888 9.16H78.6488C78.2888 9.16 77.8488 9.2 77.3888 9.42C77.0888 9.58 76.9688 9.9 76.6688 10.1C76.5288 10.18 76.4088 10.28 76.2888 10.38C76.0688 10.54 75.9688 10.72 75.8088 10.86C75.7288 10.94 75.6688 11.02 75.5688 11.08C75.2088 11.42 74.8688 12.08 74.4488 12.82C74.2688 13.12 74.2488 13.48 74.1688 13.68C74.1288 13.7 74.0288 14 74.0288 14.02C73.9688 14.22 74.0288 14.48 74.0288 14.7ZM86.528 16.5C86.328 16.7 86.148 16.74 85.988 16.74C85.528 16.74 84.568 16.54 84.448 16.24L84.388 16.2C84.048 15.94 83.948 15.18 83.948 14.8C83.948 14.62 83.968 14.44 84.028 14.24L84.308 13.66C84.368 13.56 84.388 13.48 84.408 13.42C84.448 13.28 84.488 13.18 84.608 13.06C84.748 12.9 84.888 12.72 84.948 12.54C85.048 12.32 85.208 12.16 85.308 12.06L85.388 11.98V11.94C85.468 11.82 85.528 11.74 85.608 11.68C85.708 11.58 85.788 11.5 85.848 11.38C85.988 11.26 86.068 11.16 86.168 11.02L86.228 10.96C86.568 10.64 86.768 10.42 86.868 10.32C87.108 10.08 86.788 10.34 87.268 9.98C86.868 10.12 86.428 10.28 86.088 10.42C85.708 10.56 85.428 10.68 85.388 10.7C85.308 10.72 85.228 10.76 85.108 10.72C84.748 10.84 84.488 10.92 84.348 10.98C84.288 11.06 84.228 11.14 84.128 11.24C83.828 11.74 83.528 11.98 83.348 12.18C83.028 12.54 82.328 12.5 82.308 12.28C82.308 12.08 82.308 11.96 82.428 11.78L82.748 11.28C82.808 11.18 82.868 11.14 82.948 11L83.068 10.8C83.128 10.72 83.248 10.54 83.268 10.48C83.408 10.16 83.588 9.9 83.728 9.5C83.828 9.28 83.888 9.08 84.008 8.9C84.028 8.82 84.028 8.76 84.068 8.7C84.288 8.26 84.428 7.88 84.908 7.74C84.988 7.72 85.088 7.7 85.208 7.7C85.608 7.7 85.968 7.88 85.848 8.2L85.908 8.32C85.908 8.52 85.888 8.66 85.708 8.9L85.488 9.16C85.488 9.18 85.468 9.24 85.448 9.26C85.468 9.26 85.468 9.3 85.468 9.3C85.488 9.3 85.548 9.28 85.628 9.3C85.708 9.2 86.448 9.04 86.828 8.9C87.308 8.72 87.808 8.5 88.088 8.34L88.228 8.28L88.468 8.12L88.608 8.06C88.948 7.86 89.248 7.7 89.408 7.7H89.448C89.608 7.72 89.948 7.86 90.028 8.02L90.008 8L90.188 8.32C90.248 8.4 90.268 8.52 90.268 8.62C90.268 8.8 90.208 8.98 90.128 9.1C90.088 9.16 89.988 9.26 89.888 9.34L89.748 9.46C89.648 9.64 89.308 9.84 89.208 9.88L88.248 10.84L87.548 11.66C87.468 11.78 87.348 11.9 87.248 11.98C87.088 12.12 86.908 12.28 86.708 12.36C86.788 12.52 86.508 12.82 86.368 13.16L86.128 13.64C86.028 13.86 85.928 14.08 85.828 14.26C85.708 14.5 85.648 14.74 85.628 14.86L85.608 14.9L85.628 15.16L85.668 15.28H85.688C85.808 15.28 86.448 15.28 86.568 15.24L86.648 15.2L87.388 14.92C87.628 14.84 87.788 14.6 88.008 14.46C89.228 13.66 90.448 12.64 91.328 11.52C91.568 11.22 91.788 11.08 91.908 11.06H91.948C92.128 11.06 92.148 11.18 92.248 11.42C92.248 11.66 92.248 11.84 92.108 12.06C91.748 12.7 91.248 13.24 90.728 13.76C90.288 14.26 89.208 15.2 88.508 15.82C88.028 16.16 87.108 16.54 86.528 16.5ZM108.803 9.98L108.783 10C108.543 10.66 108.163 11.32 107.823 11.98C107.043 13.52 106.903 14.08 105.463 15.26C105.223 15.46 104.943 15.66 104.583 15.82L103.843 16.2C103.683 16.26 103.543 16.3 103.383 16.38C102.643 16.72 101.963 16.76 100.983 16.76C99.9433 16.76 98.5233 16.38 98.0033 15.86L97.8433 15.68C97.3233 15.14 96.8633 14 96.8633 13.4C96.8633 12.78 97.0633 12.18 97.2233 11.56C97.3833 10.98 97.5233 10.4 97.7233 9.84C97.7833 9.66 97.8633 9.5 97.9433 9.32C98.0033 9.18 98.0633 9.06 98.1033 8.92C98.2433 8.5 98.3433 8.12 98.5033 7.74C98.6433 7.36 98.8433 6.98 99.2233 6.58C99.4633 6.34 99.6833 6.08 99.8433 5.8C99.9633 5.64 100.063 5.48 100.163 5.32C100.283 5.16 100.403 5 100.583 4.84C100.983 4.5 101.423 4.18 101.883 3.86C102.203 3.64 102.503 3.4 102.843 3.18C103.183 2.94 103.543 2.74 104.023 2.58C104.383 2.46 104.423 2.32 104.863 2.2C105.323 2.1 105.783 2.02 106.223 2.02C106.763 2.02 107.883 2.14 108.163 2.4L108.243 2.52V2.6C108.243 2.66 108.263 2.68 108.443 2.68C108.463 2.68 108.483 2.68 108.483 2.7C108.503 2.7 108.523 2.72 108.523 2.72C108.883 3.12 109.263 4.44 109.263 4.88C109.263 5.18 109.223 5.48 109.163 5.76V5.78C109.463 6.06 109.443 6.6 109.443 7C109.443 7.38 109.363 8 109.203 8.4C109.443 8.46 109.923 8.4 110.263 8.4C110.683 8.4 111.083 8.2 111.463 7.96L111.743 7.78C111.843 7.72 111.923 7.66 112.023 7.62C112.203 7.52 112.383 7.46 112.563 7.46L112.763 7.48C112.883 7.48 112.963 7.52 113.003 7.6C113.043 7.64 113.063 7.68 113.083 7.74L113.103 7.78V7.8L113.203 8.04C113.203 8.4 113.143 8.56 112.823 8.9C112.263 9.48 110.823 10.14 109.503 10.14C109.243 10.14 109.003 10.1 108.823 10L108.803 9.98ZM101.243 15.28L101.403 15.22C101.443 15.2 101.503 15.26 101.523 15.26C101.843 15.22 101.743 15.18 102.043 15.14C102.163 15.12 102.323 15.06 102.483 15.02L102.883 14.86C103.243 14.78 104.283 14.3 104.483 14.14C104.703 13.98 104.863 13.8 105.063 13.62C106.583 12.26 106.603 10.96 107.203 9.4L107.403 8.9C107.483 8.7 107.463 8.48 107.463 8.42C107.463 8.28 107.423 8.14 107.403 8C107.383 7.7 107.383 7.38 107.383 7.08V6.98L107.403 6.8V6.7L107.383 6.64L107.423 6.54C107.383 6.48 107.343 6.38 107.343 6.32C107.343 6.12 107.223 5.88 107.323 5.7L107.363 5.66L107.423 5.56L107.563 5.04C107.583 5 107.583 4.94 107.583 4.9C107.583 4.52 107.423 3.8 106.823 3.56C106.743 3.52 106.503 3.5 106.283 3.5C106.043 3.48 105.783 3.48 105.683 3.48C104.783 3.48 105.003 3.6 104.363 3.92C103.543 4.32 102.503 5.1 101.863 5.6C101.683 5.74 101.563 5.92 101.443 6.08C101.343 6.24 101.303 6.48 101.143 6.64C101.083 6.7 101.043 6.76 101.003 6.82L100.763 7.14C100.683 7.22 100.563 7.4 100.463 7.58L100.223 8.06C99.8433 8.8 99.4833 9.6 99.1633 10.36C98.9433 10.88 99.0233 11.42 98.8633 11.96C98.7433 12.04 98.6633 12.48 98.6633 12.62C98.6633 12.94 98.8833 13.34 98.9433 13.64C98.9433 13.66 98.9633 13.68 98.9633 13.72V13.9C98.9633 13.92 98.9833 13.96 98.9833 14C99.1033 14.48 99.9233 15.22 100.903 15.22H100.943C100.963 15.22 101.003 15.26 101.063 15.28C101.123 15.3 101.183 15.24 101.243 15.28ZM114.423 15.36L114.783 14.16C114.983 13.56 115.223 12.9 115.403 12.5L115.463 12.3C115.543 12.08 115.583 11.84 115.703 11.62C115.883 11.32 116.083 10.76 116.403 10.2L116.523 9.98C115.583 10.8 114.703 11.84 114.223 12.38C114.023 12.6 113.883 12.86 113.823 12.9L113.543 13.14L113.523 13.16H113.503C113.303 13.38 112.883 13.82 112.743 13.94L112.403 14.3C112.183 14.6 111.803 15.06 111.423 15.44L111.223 15.68C111.143 15.8 111.063 15.7 110.983 15.8C110.923 15.86 110.863 15.92 110.803 16.02C110.723 16.2 110.623 16.32 110.503 16.42L110.323 16.6C110.223 16.64 110.143 16.86 110.023 16.9H109.943C109.863 16.92 109.763 16.94 109.683 16.94C109.263 16.94 108.883 16.7 108.803 16.38V16.36C108.803 16.12 109.503 14.86 109.723 14.46L110.103 13.66C110.223 13.4 110.263 13.12 110.683 12.44L111.403 11.28L111.783 10.24L112.363 9.04L112.703 8.44C112.843 8.16 113.003 8.1 113.183 7.98C113.343 7.88 113.523 7.74 113.723 7.72C113.883 7.7 114.083 7.7 114.283 7.7C114.523 7.74 114.623 7.88 114.623 8.06C114.623 8.32 114.343 8.78 114.203 9.02C114.123 9.16 114.063 9.32 113.963 9.48L113.343 10.52L112.083 12.78L111.703 13.64L111.963 13.32C112.063 13.24 112.283 12.84 112.363 12.74L112.583 12.36C112.623 12.28 112.723 12.2 112.783 12.1C113.103 11.72 113.583 11.12 113.763 11L114.983 9.62C115.223 9.34 115.623 9.1 115.883 8.9C116.063 8.76 116.183 8.6 116.363 8.5C116.723 8.28 116.963 7.86 117.323 7.72C117.483 7.68 117.643 7.66 117.843 7.66C118.143 7.66 118.343 7.82 118.563 7.94C118.703 8.02 118.923 8.04 118.963 8.18C118.983 8.28 119.003 8.38 119.003 8.44C119.003 8.62 118.943 8.68 118.863 8.78L118.803 8.86C118.683 8.98 118.563 9.36 118.303 9.82C118.203 10 117.983 10.16 117.883 10.38C117.583 11.02 117.363 11.76 117.103 12.42C117.023 12.62 116.843 12.82 116.783 13C116.643 13.36 116.643 13.66 116.583 13.86C116.423 14.36 116.263 14.88 116.183 15.34C116.263 15.28 116.743 15.2 116.823 15.14C118.143 14.08 119.303 12.84 120.343 11.52C120.543 11.22 120.763 11.08 120.923 11.06H120.963C121.143 11.06 121.243 11.18 121.343 11.42C121.343 11.46 121.363 11.52 121.363 11.54C121.343 11.7 121.283 11.94 121.203 12.06C120.843 12.7 120.343 13.24 119.823 13.76C119.143 14.52 117.223 16.62 116.183 16.84C116.063 16.86 115.923 16.88 115.803 16.88C115.723 16.88 115.483 16.88 115.423 16.86H115.443C115.143 16.76 114.643 16.58 114.643 16.3C114.643 16.14 114.383 15.96 114.423 15.78C114.443 15.7 114.383 15.56 114.423 15.36ZM120.803 17.12C120.343 17.12 120.103 16.96 119.803 16.66L119.703 16.56C119.403 16.22 119.103 15.44 119.103 15.02C119.103 14.9 119.123 14.74 119.143 14.6L119.243 14.2C119.283 14.04 119.383 13.7 119.483 13.46C119.683 12.96 119.963 12.46 120.183 11.96C120.383 11.54 120.563 11.18 120.603 11.02L120.923 10.02L121.223 9.2L121.643 8.52L121.683 7.82L121.843 7.32L121.903 7.16C121.983 6.88 122.083 6.58 122.143 6.28L122.283 5.72L122.583 4.82C123.003 3.54 124.023 0.859999 125.603 0.859999C126.223 0.859999 126.603 1.34 126.603 1.94V2.22C126.603 2.54 126.323 3.74 126.223 4.16C126.103 4.66 125.963 5.2 125.783 5.66L125.603 6.1L124.943 7.14L124.743 7.66C124.523 8 124.283 8.34 124.003 8.74C123.863 9 123.683 9.24 123.483 9.52L123.243 9.88L122.943 10.26L122.503 10.88L121.903 11.64C121.703 12.16 121.503 12.72 121.283 13.26L121.023 13.6L120.603 14.38C120.543 14.6 120.623 14.9 120.603 15.06C120.603 15.14 120.663 15.2 120.643 15.22L120.943 15.58L121.083 15.8H121.483C121.903 15.46 122.803 15.1 123.183 14.7L123.263 14.64L123.403 14.5L123.483 14.44C123.523 14.4 123.623 14.3 123.663 14.24C123.983 13.86 124.323 13.48 124.603 13.06C124.923 12.58 125.203 12.08 125.443 11.56C125.623 11.2 125.743 11.1 126.023 11.06H126.083C126.243 11.06 126.263 11.2 126.363 11.52C126.363 11.56 126.383 11.6 126.383 11.66C126.383 11.84 126.323 12.06 126.223 12.2L125.923 12.74C125.683 13.14 125.223 13.74 124.803 14.4C124.483 14.9 124.023 15.32 123.603 15.76C122.903 16.48 121.503 17.12 120.803 17.12ZM123.223 7.3L122.903 8.42C123.703 7.26 124.643 5.8 125.103 4.46C125.143 4.32 125.263 4.18 125.303 4.02C125.383 3.66 125.523 2.52 125.523 2.18C125.523 1.94 125.483 1.9 125.423 1.9C125.123 1.9 124.823 2.26 124.603 2.66L124.063 4.3L123.843 4.7L123.783 4.92C123.763 5.02 123.803 5.2 123.743 5.46C123.603 6 123.383 6.78 123.223 7.3ZM124.382 13.66C124.442 13.5 124.542 13.3 124.662 13.04L125.402 11.34C125.562 10.96 125.862 10.64 126.002 10.24L126.582 9.04L126.922 8.44C127.062 8.16 127.222 8.1 127.402 7.98C127.562 7.88 127.742 7.74 127.942 7.72C128.102 7.7 128.302 7.7 128.502 7.7C128.742 7.74 128.842 7.88 128.842 8.06C128.842 8.32 128.562 8.78 128.422 9.02C128.342 9.16 128.282 9.32 128.182 9.48L127.562 10.52C127.062 11.4 126.502 12.5 126.062 13.38C125.922 13.72 125.802 13.84 125.742 14.02C125.662 14.2 125.582 14.42 125.542 14.6C125.402 15.04 125.522 15.48 125.962 15.48C126.222 15.48 126.522 15.42 126.842 15.22C127.122 15.04 127.542 14.94 127.862 14.76C128.302 14.52 128.622 14.12 128.922 13.84C129.362 13.4 129.902 12.14 130.262 11.24C130.462 10.78 130.582 10.34 130.862 9.82C131.042 9.46 131.142 9.08 131.302 8.76C131.382 8.64 131.422 8.52 131.482 8.42C131.642 8.02 131.782 7.74 132.262 7.74C132.622 7.74 133.082 7.96 133.162 8.14C133.182 8.22 133.202 8.32 133.202 8.4C133.202 8.6 133.102 8.76 132.922 9.02C132.862 9.1 132.802 9.24 132.722 9.36C132.622 9.56 132.522 9.8 132.382 10.02C132.202 10.3 132.022 10.66 131.862 11.02L131.662 11.46C131.522 11.76 131.382 12.06 131.282 12.38L131.142 12.8L131.062 13C130.962 13.3 130.842 13.58 130.762 13.86L130.722 14C131.042 13.78 131.382 13.56 131.642 13.34C132.002 13.06 132.562 12.66 132.882 12.44C133.422 12.04 133.922 11.7 134.262 11.36C134.402 11.24 134.582 11.1 134.842 11.08C135.042 11.08 135.222 11.16 135.302 11.34C135.322 11.36 135.342 11.4 135.342 11.44C135.342 11.58 135.282 11.84 135.202 11.94C134.902 12.28 134.542 12.54 134.182 12.84C134.062 12.92 133.922 13 133.802 13.1C133.362 13.46 132.482 14.08 131.822 14.56C131.382 14.88 130.662 15.3 129.942 15.76C129.882 15.9 129.882 16.02 129.742 16.32C129.702 16.4 129.642 16.6 129.562 16.88C129.562 16.96 129.462 17.2 129.422 17.28C129.062 18.14 128.782 18.96 128.522 19.62C128.382 19.98 128.262 20.24 128.062 20.58C128.002 20.8 127.902 20.98 127.802 21.08C127.682 21.22 127.642 21.36 127.562 21.48C127.302 22.16 126.162 23.04 125.542 23.04C125.202 23.04 124.722 22.94 124.462 22.36C124.422 22.2 124.362 21.92 124.362 21.64C124.362 21.46 124.362 21.3 124.382 21.22C124.522 20.62 124.762 19.9 125.082 19.26L125.142 19.12C125.282 18.86 125.722 18.36 126.042 17.9C126.222 17.64 126.602 17.38 126.782 17.14C126.962 16.9 127.442 16.48 127.642 16.22C127.682 16.16 127.802 16.04 127.882 15.96C127.802 16.02 127.702 16.06 127.562 16.14C127.342 16.3 127.082 16.38 126.862 16.5C126.482 16.68 126.322 16.86 125.942 16.86C125.342 16.86 124.782 16.64 124.462 16.2C124.362 16.06 124.322 15.84 124.262 15.68C124.182 15.5 124.222 15.32 124.202 15.14C124.142 14.66 124.162 14.14 124.382 13.66ZM125.742 20.54C125.562 21.06 125.762 21.64 125.782 21.64C125.882 21.64 126.442 20.8 126.682 20.42C126.862 20.14 127.162 19.72 127.262 19.3C127.422 19.02 127.502 18.88 127.562 18.74L127.782 18.12C127.882 17.8 128.042 17.4 128.182 16.96C128.082 17.08 127.962 17.18 127.922 17.28C127.802 17.54 127.362 17.86 127.222 18.06C127.002 18.36 126.862 18.66 126.442 18.98C126.282 19.22 126.222 19.44 126.082 19.68C126.002 19.8 125.942 19.92 125.862 20.1C125.822 20.22 125.762 20.38 125.742 20.54Z" fill="white"/>
<path d="M16.8094 7.82121C16.809 7.82185 16.8083 7.82224 16.8076 7.82224H0.190578C0.0107617 7.82224 -0.068903 8.02869 0.0722186 8.12985L13.7439 17.962C13.8908 18.0673 14.099 17.9372 14.0433 17.7762L8.68178 2.12116C8.62601 1.9591 8.37336 1.96013 8.31873 2.12116L3.05398 17.7741C2.99936 17.9362 3.20876 18.0652 3.35443 17.9589L16.9283 8.12778C17.068 8.02582 16.9901 7.82109 16.8111 7.82018C16.8104 7.82018 16.8097 7.82057 16.8094 7.82121Z" fill="white"/>
</svg>
