<svg width="17" height="17" viewBox="0 0 17 17" fill="none" xmlns="http://www.w3.org/2000/svg">
<path d="M1 15.4971V2.67693C1 2.23218 1.17559 1.80565 1.48816 1.49116C1.80072 1.17668 2.22464 1 2.66667 1H14.3333C14.7754 1 15.1993 1.17668 15.5118 1.49116C15.8244 1.80565 16 2.23218 16 2.67693V11.0616C16 11.5064 15.8244 11.9329 15.5118 12.2474C15.1993 12.5619 14.7754 12.7385 14.3333 12.7385H5.13417C4.88436 12.7386 4.63776 12.7951 4.41259 12.904C4.18743 13.0128 3.98946 13.1712 3.83333 13.3674L1.89083 15.8107C1.82619 15.8922 1.73797 15.9515 1.63837 15.9804C1.53877 16.0092 1.43272 16.0062 1.33488 15.9718C1.23705 15.9373 1.15227 15.8732 1.09228 15.7881C1.03228 15.7031 1.00004 15.6014 1 15.4971Z" stroke="#B0ABAB" stroke-width="1.2"/>
</svg>
