<svg width="28" height="28" viewBox="0 0 28 28" fill="none" xmlns="http://www.w3.org/2000/svg">
<path d="M27.7028 14.3183C27.7028 13.3255 27.6129 12.371 27.4458 11.4546H14.1341V16.8701H21.7408C21.4131 18.6201 20.4174 20.1028 18.9204 21.0955V24.6083H23.4883C26.1609 22.171 27.7028 18.5819 27.7028 14.3183Z" fill="#4285F4"/>
<path d="M14.1341 27.9999C17.9503 27.9999 21.1497 26.7462 23.4882 24.6081L18.9203 21.0954C17.6547 21.9354 16.0357 22.4317 14.1341 22.4317C10.4527 22.4317 7.33686 19.969 6.22536 16.6599H1.5033V20.2872C3.82907 24.8627 8.60893 27.9999 14.1341 27.9999Z" fill="#34A853"/>
<path d="M6.22535 16.6599C5.94267 15.8199 5.78211 14.9226 5.78211 13.9999C5.78211 13.0772 5.94267 12.1799 6.22535 11.3399V7.71265H1.5033C0.54614 9.60265 0 11.7409 0 13.9999C0 16.2589 0.54614 18.3972 1.5033 20.2872L6.22535 16.6599Z" fill="#FBBC04"/>
<path d="M14.1341 5.56822C16.2091 5.56822 18.0723 6.27452 19.5371 7.66178L23.5911 3.6463C21.1433 1.38726 17.9438 0 14.1341 0C8.60893 0 3.82907 3.13726 1.5033 7.71274L6.22536 11.34C7.33686 8.03096 10.4527 5.56822 14.1341 5.56822Z" fill="#E94235"/>
</svg>
