<svg width="26" height="27" viewBox="0 0 26 27" fill="none" xmlns="http://www.w3.org/2000/svg">
<g clip-path="url(#clip0_2108_4771)">
<path d="M13.0063 0.696777C7.66032 0.696777 6.09682 0.702292 5.79291 0.727505C4.69582 0.818702 4.01315 0.991444 3.26941 1.36175C2.69625 1.64637 2.24421 1.97629 1.79809 2.43878C0.985616 3.2822 0.493207 4.31984 0.314954 5.55326C0.22829 6.15205 0.203079 6.27417 0.197958 9.33272C0.195988 10.3522 0.197958 11.694 0.197958 13.4937C0.197958 18.8355 0.203867 20.3975 0.229472 20.7008C0.318106 21.7684 0.485525 22.4401 0.84006 23.1748C1.51761 24.5811 2.81167 25.6369 4.33617 26.0308C4.86403 26.1667 5.44704 26.2416 6.1955 26.277C6.51261 26.2908 9.74479 26.3007 12.9789 26.3007C16.2131 26.3007 19.4472 26.2967 19.7565 26.281C20.6231 26.2402 21.1263 26.1726 21.6828 26.0289C23.2171 25.6329 24.4875 24.5929 25.1789 23.1669C25.5265 22.4499 25.7028 21.7526 25.7826 20.7408C25.7999 20.5202 25.8072 17.0029 25.8072 13.4904C25.8072 9.9772 25.7993 6.46641 25.782 6.24581C25.7012 5.21763 25.5249 4.52626 25.1661 3.7955C24.8716 3.19731 24.5446 2.75058 24.07 2.29381C23.2228 1.48466 22.1868 0.992232 20.9522 0.814171C20.354 0.727702 20.2349 0.702096 17.1741 0.696777H13.0063Z" fill="#E52C32"/>
<path d="M13.0063 0.696777C7.66032 0.696777 6.09682 0.702292 5.79291 0.727505C4.69582 0.818702 4.01315 0.991444 3.26941 1.36175C2.69625 1.64637 2.24421 1.97629 1.79809 2.43878C0.985616 3.2822 0.493207 4.31984 0.314954 5.55326C0.22829 6.15205 0.203079 6.27417 0.197958 9.33272C0.195988 10.3522 0.197958 11.694 0.197958 13.4937C0.197958 18.8355 0.203867 20.3975 0.229472 20.7008C0.318106 21.7684 0.485525 22.4401 0.84006 23.1748C1.51761 24.5811 2.81167 25.6369 4.33617 26.0308C4.86403 26.1667 5.44704 26.2416 6.1955 26.277C6.51261 26.2908 9.74479 26.3007 12.9789 26.3007C16.2131 26.3007 19.4472 26.2967 19.7565 26.281C20.6231 26.2402 21.1263 26.1726 21.6828 26.0289C23.2171 25.6329 24.4875 24.5929 25.1789 23.1669C25.5265 22.4499 25.7028 21.7526 25.7826 20.7408C25.7999 20.5202 25.8072 17.0029 25.8072 13.4904C25.8072 9.9772 25.7993 6.46641 25.782 6.24581C25.7012 5.21763 25.5249 4.52626 25.1661 3.7955C24.8716 3.19731 24.5446 2.75058 24.07 2.29381C23.2228 1.48466 22.1868 0.992232 20.9522 0.814171C20.354 0.727702 20.2349 0.702096 17.1741 0.696777H13.0063Z" fill="#E52C32"/>
<path d="M13.0004 4.04541C10.4328 4.04541 10.1105 4.05664 9.10209 4.10253C8.09561 4.14862 7.4086 4.30797 6.80746 4.54177C6.18565 4.78326 5.65818 5.10629 5.13268 5.632C4.60679 6.15752 4.28377 6.685 4.0415 7.30664C3.80711 7.90799 3.64757 8.59521 3.60227 9.60133C3.55717 10.6098 3.54535 10.9323 3.54535 13.5C3.54535 16.0677 3.55677 16.3889 3.60247 17.3974C3.64876 18.4039 3.8081 19.0909 4.0417 19.6921C4.28337 20.3139 4.60639 20.8414 5.13209 21.3669C5.65739 21.8928 6.18486 22.2167 6.80628 22.4581C7.40781 22.6919 8.09501 22.8513 9.1013 22.8974C10.1098 22.9433 10.4318 22.9545 12.9992 22.9545C15.567 22.9545 15.8883 22.9433 16.8967 22.8974C17.9032 22.8513 18.591 22.6919 19.1925 22.4581C19.8142 22.2167 20.3408 21.8928 20.8661 21.3669C21.392 20.8414 21.7151 20.3139 21.9573 19.6923C22.1897 19.0909 22.3493 18.4037 22.3966 17.3976C22.4419 16.3891 22.4537 16.0677 22.4537 13.5C22.4537 10.9323 22.4419 10.61 22.3966 9.60153C22.3493 8.59502 22.1897 7.90799 21.9573 7.30683C21.7151 6.685 21.392 6.15752 20.8661 5.632C20.3403 5.10609 19.8144 4.78306 19.192 4.54177C18.5892 4.30797 17.9018 4.14862 16.8954 4.10253C15.8869 4.05664 15.5658 4.04541 12.9974 4.04541H13.0004ZM12.1523 5.7492C12.404 5.7488 12.6849 5.7492 13.0004 5.7492C15.5247 5.7492 15.8239 5.75826 16.8207 5.80356C17.7425 5.84571 18.2428 5.99974 18.576 6.12915C19.0172 6.30052 19.3318 6.50536 19.6625 6.83627C19.9934 7.16718 20.1982 7.48233 20.37 7.92355C20.4994 8.25643 20.6536 8.75673 20.6956 9.67855C20.7409 10.6752 20.7507 10.9746 20.7507 13.4978C20.7507 16.021 20.7409 16.3204 20.6956 17.317C20.6534 18.2388 20.4994 18.7392 20.37 19.072C20.1986 19.5132 19.9934 19.8274 19.6625 20.1581C19.3316 20.489 19.0174 20.6939 18.576 20.8652C18.2432 20.9952 17.7425 21.1489 16.8207 21.191C15.8241 21.2363 15.5247 21.2462 13.0004 21.2462C10.4759 21.2462 10.1767 21.2363 9.18009 21.191C8.2583 21.1485 7.75801 20.9945 7.42455 20.865C6.98335 20.6937 6.66821 20.4888 6.33731 20.1579C6.00641 19.827 5.80157 19.5127 5.62982 19.0712C5.50041 18.7384 5.34619 18.2381 5.30424 17.3162C5.25893 16.3196 5.24987 16.0202 5.24987 13.4954C5.24987 10.9707 5.25893 10.6729 5.30424 9.67618C5.34639 8.75437 5.50041 8.25406 5.62982 7.92079C5.80117 7.47958 6.00641 7.16443 6.33731 6.83352C6.66821 6.50261 6.98335 6.29776 7.42455 6.126C7.75781 5.996 8.2583 5.84236 9.18009 5.80002C10.0522 5.76062 10.3902 5.7488 12.1523 5.74683V5.7492ZM18.047 7.31905C17.4207 7.31905 16.9125 7.82664 16.9125 8.4532C16.9125 9.07956 17.4207 9.58774 18.047 9.58774C18.6733 9.58774 19.1815 9.07956 19.1815 8.4532C19.1815 7.82683 18.6733 7.31865 18.047 7.31865V7.31905ZM13.0004 8.64465C10.3191 8.64465 8.14524 10.8186 8.14524 13.5C8.14524 16.1813 10.3191 18.3543 13.0004 18.3543C15.6817 18.3543 17.8548 16.1813 17.8548 13.5C17.8548 10.8186 15.6817 8.64465 13.0004 8.64465ZM13.0004 10.3484C14.7408 10.3484 16.1518 11.7593 16.1518 13.5C16.1518 15.2404 14.7408 16.6515 13.0004 16.6515C11.2598 16.6515 9.84898 15.2404 9.84898 13.5C9.84898 11.7593 11.2598 10.3484 13.0004 10.3484Z" fill="white"/>
</g>
<defs>
<clipPath id="clip0_2108_4771">
<rect width="26" height="26" fill="white" transform="translate(0 0.5)"/>
</clipPath>
</defs>
</svg>
