<svg width="40" height="40" viewBox="0 0 40 40" fill="none" xmlns="http://www.w3.org/2000/svg">
<circle cx="20" cy="20" r="20" fill="white" fill-opacity="0.5"/>
<path d="M15.4931 17.9505V24.315C14.7475 23.8412 13.848 23.6117 12.9412 23.6639C12.0344 23.7161 11.1736 24.0469 10.4991 24.6024C9.82449 25.1579 9.37584 25.9055 9.22614 26.7234C9.07644 27.5413 9.23451 28.3813 9.67463 29.1068C10.1147 29.8323 10.811 30.4004 11.65 30.7187C12.489 31.037 13.4213 31.0868 14.2953 30.8599C15.1692 30.6329 15.9332 30.1427 16.463 29.469C16.9927 28.7953 17.257 27.9778 17.2128 27.1496L17.2174 27.0667V19.524L21.3003 23.2513C20.8055 23.9563 20.5896 24.7945 20.6884 25.6269C20.7872 26.4593 21.1947 27.2358 21.8434 27.8279C22.4921 28.4199 23.343 28.7918 24.2551 28.8819C25.1671 28.9721 26.0856 28.775 26.8581 28.3235L29.5387 30.7699C29.7012 30.9132 29.9189 30.9926 30.145 30.9909C30.371 30.9893 30.5873 30.9066 30.7472 30.7608C30.9071 30.615 30.9979 30.4177 31 30.2114C31.002 30.0051 30.9152 29.8063 30.7583 29.6579L9.49284 10.2504C9.41392 10.1731 9.31874 10.1111 9.21299 10.0681C9.10724 10.0251 8.99308 10.002 8.87732 10.0001C8.76156 9.99826 8.64658 10.0177 8.53923 10.0573C8.43189 10.0968 8.33437 10.1557 8.25251 10.2304C8.17064 10.3052 8.1061 10.3942 8.06275 10.4921C8.01939 10.5901 7.99809 10.695 8.00013 10.8007C8.00218 10.9063 8.02751 11.0105 8.07463 11.107C8.12175 11.2035 8.18969 11.2904 8.27439 11.3624L15.4931 17.9505ZM25.5856 27.1632C25.1638 27.3268 24.6981 27.3717 24.2482 27.292C23.7983 27.2123 23.3847 27.0116 23.0607 26.7159C22.7366 26.4201 22.5168 26.0427 22.4294 25.6321C22.3421 25.2215 22.3912 24.7965 22.5705 24.4116L25.5856 27.1632ZM13.1942 25.2309C13.8039 25.2309 14.3887 25.4519 14.8198 25.8454C15.2509 26.2389 15.4931 26.7725 15.4931 27.329C15.4931 27.8854 15.2509 28.4191 14.8198 28.8125C14.3887 29.206 13.8039 29.4271 13.1942 29.4271C12.5845 29.4271 11.9997 29.206 11.5686 28.8125C11.1374 28.4191 10.8952 27.8854 10.8952 27.329C10.8952 26.7725 11.1374 26.2389 11.5686 25.8454C11.9997 25.4519 12.5845 25.2309 13.1942 25.2309ZM24.689 21.5592C24.5702 21.5592 24.4534 21.5637 24.3384 21.5728L28.6973 25.5508C28.7116 25.3847 28.715 25.218 28.7076 25.0515L28.7122 24.9686V10.8064C28.7121 10.6839 28.6806 10.563 28.6203 10.4535C28.56 10.344 28.4725 10.2489 28.3647 10.1757C28.257 10.1026 28.132 10.0534 27.9997 10.0321C27.8675 10.0108 27.7316 10.0181 27.6029 10.0532L16.1081 13.2003C15.9978 13.2304 15.8952 13.2803 15.8063 13.3472C15.7175 13.414 15.6442 13.4964 15.5908 13.5895L17.2174 15.074V14.5389L26.988 11.8639V14.4172L18.9186 16.6265L20.3026 17.8907L26.988 16.0601V22.218C26.3134 21.7892 25.5111 21.5593 24.689 21.5592Z" fill="#120000"/>
</svg>
