<svg width="40" height="40" viewBox="0 0 40 40" fill="none" xmlns="http://www.w3.org/2000/svg">
<circle cx="20" cy="20" r="20" fill="white" fill-opacity="0.5"/>
<path d="M13 29C14.6569 29 16 27.6569 16 26C16 24.3431 14.6569 23 13 23C11.3431 23 10 24.3431 10 26C10 27.6569 11.3431 29 13 29Z" stroke="white" stroke-width="1.6" stroke-linecap="round" stroke-linejoin="round"/>
<path d="M25.0007 28C26.6576 28 28.0007 26.6569 28.0007 25C28.0007 23.3431 26.6576 22 25.0007 22C23.3439 22 22.0007 23.3431 22.0007 25C22.0007 26.6569 23.3439 28 25.0007 28Z" stroke="white" stroke-width="1.6" stroke-linecap="round" stroke-linejoin="round"/>
<path d="M15.9993 26V18M15.9993 18V14L27.9993 11V15M15.9993 18L27.9993 15M27.9993 25V15" stroke="white" stroke-width="1.6" stroke-linecap="round" stroke-linejoin="round"/>
</svg>
