<svg width="14" height="14" viewBox="0 0 14 14" fill="none" xmlns="http://www.w3.org/2000/svg">
<path d="M13.0617 6.53086C13.0617 6.67521 13.0044 6.81363 12.9023 6.9157C12.8003 7.01776 12.6618 7.0751 12.5175 7.0751H7.0751V12.5175C7.0751 12.6618 7.01776 12.8003 6.9157 12.9023C6.81363 13.0044 6.67521 13.0617 6.53086 13.0617C6.38652 13.0617 6.24809 13.0044 6.14603 12.9023C6.04396 12.8003 5.98663 12.6618 5.98663 12.5175V7.0751H0.544239C0.399898 7.0751 0.261468 7.01776 0.159404 6.9157C0.0573394 6.81363 0 6.67521 0 6.53086C0 6.38652 0.0573394 6.24809 0.159404 6.14603C0.261468 6.04396 0.399898 5.98663 0.544239 5.98663H5.98663V0.544239C5.98663 0.399898 6.04396 0.261468 6.14603 0.159404C6.24809 0.0573394 6.38652 0 6.53086 0C6.67521 0 6.81363 0.0573394 6.9157 0.159404C7.01776 0.261468 7.0751 0.399898 7.0751 0.544239V5.98663H12.5175C12.6618 5.98663 12.8003 6.04396 12.9023 6.14603C13.0044 6.24809 13.0617 6.38652 13.0617 6.53086Z"/>
</svg>
