<svg width="22" height="21" viewBox="0 0 22 21" fill="currentColor" xmlns="http://www.w3.org/2000/svg">
<path fill-rule="evenodd" clip-rule="evenodd" d="M3.4375 4.5C3.25516 4.5 3.0803 4.42098 2.95136 4.28033C2.82243 4.13968 2.75 3.94891 2.75 3.75C2.75 3.55109 2.82243 3.36032 2.95136 3.21967C3.0803 3.07902 3.25516 3 3.4375 3H18.5625C18.7448 3 18.9197 3.07902 19.0486 3.21967C19.1776 3.36032 19.25 3.55109 19.25 3.75C19.25 3.94891 19.1776 4.13968 19.0486 4.28033C18.9197 4.42098 18.7448 4.5 18.5625 4.5H3.4375ZM6.1875 1.5C6.00516 1.5 5.8303 1.42098 5.70136 1.28033C5.57243 1.13968 5.5 0.948912 5.5 0.75C5.5 0.551088 5.57243 0.360322 5.70136 0.21967C5.8303 0.0790176 6.00516 0 6.1875 0H15.8125C15.9948 0 16.1697 0.0790176 16.2986 0.21967C16.4276 0.360322 16.5 0.551088 16.5 0.75C16.5 0.948912 16.4276 1.13968 16.2986 1.28033C16.1697 1.42098 15.9948 1.5 15.8125 1.5H6.1875ZM0 18.75C0 19.3467 0.217298 19.919 0.604092 20.341C0.990886 20.7629 1.51549 21 2.0625 21H19.9375C20.4845 21 21.0091 20.7629 21.3959 20.341C21.7827 19.919 22 19.3467 22 18.75V8.25C22 7.65326 21.7827 7.08097 21.3959 6.65901C21.0091 6.23705 20.4845 6 19.9375 6H2.0625C1.51549 6 0.990886 6.23705 0.604092 6.65901C0.217298 7.08097 0 7.65326 0 8.25L0 18.75ZM2.0625 19.5C1.88016 19.5 1.7053 19.421 1.57636 19.2803C1.44743 19.1397 1.375 18.9489 1.375 18.75V8.25C1.375 8.05109 1.44743 7.86032 1.57636 7.71967C1.7053 7.57902 1.88016 7.5 2.0625 7.5H19.9375C20.1198 7.5 20.2947 7.57902 20.4236 7.71967C20.5526 7.86032 20.625 8.05109 20.625 8.25V18.75C20.625 18.9489 20.5526 19.1397 20.4236 19.2803C20.2947 19.421 20.1198 19.5 19.9375 19.5H2.0625Z"/>
</svg>
