<svg width="22" height="23" viewBox="0 0 22 23" fill="currentColor" xmlns="http://www.w3.org/2000/svg">
<path fill-rule="evenodd" clip-rule="evenodd" d="M9.78148 0.681015C10.1273 0.404358 10.5548 0.25 11 0.25C11.4452 0.25 11.8727 0.404358 12.2185 0.681015L20.9685 7.68102C21.2161 7.87909 21.413 8.13258 21.5471 8.41872C21.6812 8.70475 21.75 9.01772 21.75 9.33333V20.6667C21.75 21.2041 21.5503 21.7286 21.181 22.1224C20.8103 22.5179 20.2966 22.75 19.75 22.75H14.75C14.2034 22.75 13.6897 22.5179 13.319 22.1224C12.9497 21.7286 12.75 21.2041 12.75 20.6667V16.6667C12.75 16.4969 12.6863 16.343 12.5867 16.2368C12.4887 16.1322 12.3664 16.0833 12.25 16.0833H9.75C9.63358 16.0833 9.51133 16.1322 9.41327 16.2368C9.31368 16.343 9.25 16.4969 9.25 16.6667V20.6667C9.25 21.2041 9.05028 21.7286 8.68104 22.1224C8.31025 22.5179 7.79662 22.75 7.25 22.75H2.25C1.70338 22.75 1.18975 22.5179 0.818964 22.1224C0.449716 21.7286 0.25 21.2041 0.25 20.6667V9.33333C0.25 9.01772 0.318797 8.70475 0.452872 8.41872C0.587002 8.13258 0.783883 7.87909 1.03148 7.68102L9.78148 0.681015ZM11 1.75C10.9043 1.75 10.8054 1.78278 10.7185 1.85232L1.96852 8.85232C1.90563 8.90263 1.8505 8.97124 1.81106 9.05538C1.77157 9.13963 1.75 9.23496 1.75 9.33333V20.6667C1.75 20.8364 1.81368 20.9903 1.91327 21.0965C2.01133 21.2011 2.13358 21.25 2.25 21.25H7.25C7.36642 21.25 7.48867 21.2011 7.58673 21.0965C7.68632 20.9903 7.75 20.8364 7.75 20.6667V16.6667C7.75 16.1292 7.94972 15.6048 8.31896 15.2109C8.68975 14.8154 9.20337 14.5833 9.75 14.5833H12.25C12.7966 14.5833 13.3103 14.8154 13.681 15.2109C14.0503 15.6048 14.25 16.1292 14.25 16.6667V20.6667C14.25 20.8364 14.3137 20.9903 14.4133 21.0965C14.5113 21.2011 14.6336 21.25 14.75 21.25H19.75C19.8664 21.25 19.9887 21.2011 20.0867 21.0965C20.1863 20.9903 20.25 20.8364 20.25 20.6667V9.33333C20.25 9.23497 20.2284 9.13963 20.1889 9.05538C20.1495 8.97123 20.0944 8.90263 20.0315 8.85232L11.2815 1.85232C11.1946 1.78278 11.0957 1.75 11 1.75Z" />
</svg>
