<svg width="30" height="18" viewBox="0 0 30 18" fill="currentColor" xmlns="http://www.w3.org/2000/svg">
<path fill-rule="evenodd" clip-rule="evenodd" d="M8.04443 16.9984C7.99689 16.9984 7.94935 16.9984 7.90181 16.9984C6.18394 16.9615 4.61187 16.2516 3.35517 14.944C0.791044 12.2774 -0.118601 7.21507 2.88133 3.68634C4.41853 1.87871 6.12689 0.97489 7.97312 1.00053C11.3027 1.047 13.805 4.1078 13.9096 4.23921C14.0475 4.41067 14.0221 4.66387 13.8525 4.80329C13.683 4.94271 13.4342 4.91707 13.2947 4.7456C13.2709 4.71675 10.916 1.84025 7.95886 1.80339C6.35826 1.77935 4.85909 2.59182 3.48353 4.21036C0.775197 7.39615 1.60244 11.9729 3.92409 14.3863C6.38679 16.9487 9.91285 16.7901 13.3533 13.9648C13.5229 13.8254 13.7733 13.8511 13.9112 14.0225C14.049 14.194 14.0237 14.4472 13.8541 14.5866C11.9033 16.1891 9.9493 17 8.0476 17L8.04443 16.9984Z"/>
<path fill-rule="evenodd" clip-rule="evenodd" d="M21.9527 17C20.0495 17 18.0972 16.189 16.1465 14.5864C15.977 14.4469 15.95 14.1953 16.0895 14.0222C16.2274 13.8508 16.4761 13.8251 16.6473 13.9645C20.0876 16.79 23.6134 16.9487 26.076 14.386C28.3959 11.9724 29.2247 7.39519 26.5165 4.20908C25.1584 2.61122 23.672 1.80187 22.1001 1.80187C22.081 1.80187 22.0604 1.80187 22.0414 1.80187C19.0845 1.84033 16.7281 4.71552 16.7059 4.74437C16.5681 4.91586 16.3177 4.9415 16.1481 4.80207C15.9786 4.66263 15.9532 4.41102 16.0911 4.23953C16.1957 4.10971 18.6978 1.04701 22.0272 1.00053C23.8685 0.974888 25.5815 1.87879 27.1187 3.68661C30.1184 7.21569 29.2088 12.2769 26.6464 14.9438C25.3898 16.2516 23.8178 16.9615 22.1001 16.9984C22.0525 16.9984 22.005 16.9984 21.9574 16.9984L21.9527 17Z" />
<path fill-rule="evenodd" clip-rule="evenodd" d="M8.04443 16.9984C7.99689 16.9984 7.94935 16.9984 7.90181 16.9984C6.18394 16.9615 4.61187 16.2516 3.35517 14.944C0.791044 12.2774 -0.118601 7.21507 2.88133 3.68634C4.41853 1.87871 6.12689 0.97489 7.97312 1.00053C11.3027 1.047 13.805 4.1078 13.9096 4.23921C14.0475 4.41067 14.0221 4.66387 13.8525 4.80329C13.683 4.94271 13.4342 4.91707 13.2947 4.7456C13.2709 4.71675 10.916 1.84025 7.95886 1.80339C6.35826 1.77935 4.85909 2.59182 3.48353 4.21036C0.775197 7.39615 1.60244 11.9729 3.92409 14.3863C6.38679 16.9487 9.91285 16.7901 13.3533 13.9648C13.5229 13.8254 13.7733 13.8511 13.9112 14.0225C14.049 14.194 14.0237 14.4472 13.8541 14.5866C11.9033 16.1891 9.9493 17 8.0476 17L8.04443 16.9984Z" />
<path fill-rule="evenodd" clip-rule="evenodd" d="M21.9527 17C20.0495 17 18.0972 16.189 16.1465 14.5864C15.977 14.4469 15.95 14.1953 16.0895 14.0222C16.2274 13.8508 16.4761 13.8251 16.6473 13.9645C20.0876 16.79 23.6134 16.9487 26.076 14.386C28.3959 11.9724 29.2247 7.39519 26.5165 4.20908C25.1584 2.61122 23.672 1.80187 22.1001 1.80187C22.081 1.80187 22.0604 1.80187 22.0414 1.80187C19.0845 1.84033 16.7281 4.71552 16.7059 4.74437C16.5681 4.91586 16.3177 4.9415 16.1481 4.80207C15.9786 4.66263 15.9532 4.41102 16.0911 4.23953C16.1957 4.10971 18.6978 1.04701 22.0272 1.00053C23.8685 0.974888 25.5815 1.87879 27.1187 3.68661C30.1184 7.21569 29.2088 12.2769 26.6464 14.9438C25.3898 16.2516 23.8178 16.9615 22.1001 16.9984C22.0525 16.9984 22.005 16.9984 21.9574 16.9984L21.9527 17Z" />
</svg>
