<svg width="30" height="30" viewBox="0 0 30 30" fill="none" xmlns="http://www.w3.org/2000/svg">
<rect width="30" height="30" rx="15" fill="#120000"/>
<path d="M21.1836 7.55724C21.9651 7.28418 22.7158 8.0349 22.4428 8.81638L17.8853 21.8385C17.5892 22.6831 16.4123 22.7308 16.0492 21.9131L13.8501 16.9658L16.9454 13.8699C17.0473 13.7605 17.1027 13.6159 17.1001 13.4664C17.0975 13.317 17.0369 13.1744 16.9312 13.0687C16.8255 12.963 16.6829 12.9024 16.5335 12.8998C16.384 12.8972 16.2394 12.9526 16.13 13.0545L13.034 16.1497L8.08659 13.9506C7.26894 13.5868 7.3174 12.4107 8.1612 12.1146L21.1836 7.55724Z" fill="white"/>
</svg>
