<svg width="10" height="10" viewBox="0 0 10 10" fill="white" xmlns="http://www.w3.org/2000/svg">
<path fill-rule="evenodd" clip-rule="evenodd" d="M5.2815 0.6H4.7185L4.396 1.889L4.0725 1.989C3.88399 2.04709 3.70136 2.12275 3.527 2.215L3.2275 2.3735L2.0875 1.6895L1.6895 2.088L2.3735 3.228L2.215 3.527C2.12258 3.70134 2.04675 3.88397 1.9885 4.0725L1.889 4.396L0.6 4.7185V5.2815L1.889 5.604L1.989 5.9275C2.04667 6.11683 2.122 6.29867 2.215 6.473L2.3735 6.7725L1.6895 7.9125L2.088 8.3105L3.228 7.6265L3.527 7.785C3.70133 7.87767 3.88317 7.95317 4.0725 8.0115L4.396 8.111L4.7185 9.4H5.2815L5.604 8.111L5.9275 8.011C6.11601 7.95291 6.29864 7.87725 6.473 7.785L6.7725 7.6265L7.9125 8.3105L8.3105 7.912L7.6265 6.772L7.785 6.473C7.87767 6.29867 7.95317 6.11683 8.0115 5.9275L8.111 5.604L9.4 5.2815V4.7185L8.111 4.396L8.011 4.0725C7.95291 3.88399 7.87725 3.70136 7.785 3.527L7.6265 3.2275L8.3105 2.0875L7.912 1.6895L6.772 2.3735L6.473 2.215C6.29866 2.12258 6.11603 2.04675 5.9275 1.9885L5.604 1.889L5.2815 0.6ZM6.754 1.685L7.6705 1.135C7.76607 1.07768 7.87804 1.05393 7.98865 1.06752C8.09925 1.08111 8.20215 1.13125 8.281 1.21L8.79 1.719C8.86875 1.79785 8.91889 1.90075 8.93248 2.01135C8.94607 2.12196 8.92232 2.23393 8.865 2.3295L8.315 3.246C8.425 3.45267 8.515 3.66933 8.585 3.896L9.6215 4.1555C9.72962 4.18259 9.8256 4.24502 9.89417 4.3329C9.96275 4.42077 10 4.52904 10 4.6405V5.3595C10 5.47096 9.96275 5.57923 9.89417 5.6671C9.8256 5.75498 9.72962 5.81741 9.6215 5.8445L8.585 6.104C8.515 6.33067 8.425 6.54733 8.315 6.754L8.865 7.6705C8.92232 7.76607 8.94607 7.87804 8.93248 7.98865C8.91889 8.09925 8.86875 8.20215 8.79 8.281L8.281 8.79C8.20215 8.86875 8.09925 8.91889 7.98865 8.93248C7.87804 8.94607 7.76607 8.92232 7.6705 8.865L6.754 8.315C6.54733 8.425 6.33067 8.515 6.104 8.585L5.8445 9.6215C5.81741 9.72962 5.75498 9.8256 5.6671 9.89417C5.57923 9.96275 5.47096 10 5.3595 10H4.6405C4.52904 10 4.42077 9.96275 4.3329 9.89417C4.24502 9.8256 4.18259 9.72962 4.1555 9.6215L3.896 8.585C3.67135 8.51558 3.45372 8.42518 3.246 8.315L2.3295 8.865C2.23393 8.92232 2.12196 8.94607 2.01135 8.93248C1.90075 8.91889 1.79785 8.86875 1.719 8.79L1.21 8.281C1.13125 8.20215 1.08111 8.09925 1.06752 7.98865C1.05393 7.87804 1.07768 7.76607 1.135 7.6705L1.685 6.754C1.57482 6.54628 1.48442 6.32865 1.415 6.104L0.3785 5.8445C0.27046 5.81744 0.174549 5.75507 0.105981 5.6673C0.0374135 5.57953 0.000114321 5.47138 0 5.36V4.641C2.93022e-06 4.52954 0.0372511 4.42127 0.105828 4.3334C0.174404 4.24552 0.270377 4.18309 0.3785 4.156L1.415 3.8965C1.485 3.66983 1.575 3.45317 1.685 3.2465L1.135 2.33C1.07768 2.23443 1.05393 2.12246 1.06752 2.01185C1.08111 1.90125 1.13125 1.79835 1.21 1.7195L1.719 1.21C1.79785 1.13125 1.90075 1.08111 2.01135 1.06752C2.12196 1.05393 2.23393 1.07768 2.3295 1.135L3.246 1.685C3.45267 1.575 3.66933 1.485 3.896 1.415L4.1555 0.3785C4.18256 0.27046 4.24493 0.174549 4.3327 0.105981C4.42047 0.0374135 4.52862 0.000114321 4.64 0H5.359C5.47046 2.93022e-06 5.57873 0.0372511 5.6666 0.105828C5.75448 0.174404 5.81691 0.270377 5.844 0.3785L6.1035 1.415C6.33017 1.485 6.54683 1.575 6.7535 1.685H6.754ZM5 6.4C5.3713 6.4 5.7274 6.2525 5.98995 5.98995C6.2525 5.7274 6.4 5.3713 6.4 5C6.4 4.6287 6.2525 4.2726 5.98995 4.01005C5.7274 3.7475 5.3713 3.6 5 3.6C4.6287 3.6 4.2726 3.7475 4.01005 4.01005C3.7475 4.2726 3.6 4.6287 3.6 5C3.6 5.3713 3.7475 5.7274 4.01005 5.98995C4.2726 6.2525 4.6287 6.4 5 6.4ZM5 7C4.46957 7 3.96086 6.78929 3.58579 6.41421C3.21071 6.03914 3 5.53043 3 5C3 4.46957 3.21071 3.96086 3.58579 3.58579C3.96086 3.21071 4.46957 3 5 3C5.53043 3 6.03914 3.21071 6.41421 3.58579C6.78929 3.96086 7 4.46957 7 5C7 5.53043 6.78929 6.03914 6.41421 6.41421C6.03914 6.78929 5.53043 7 5 7Z"/>
</svg>
