<svg width="14" height="15" viewBox="0 0 14 15" fill="none" xmlns="http://www.w3.org/2000/svg">
<path d="M9.46176 6.8816L9.47246 6.88626L9.48329 6.8906L9.6359 6.95163L9.64623 6.95577L9.65668 6.95959L11.3163 7.56691C11.3163 7.56692 11.3164 7.56694 11.3164 7.56695C11.5929 7.66823 11.7649 7.92728 11.7757 8.25902C11.7864 8.58999 11.6319 8.8612 11.3859 8.98221L11.3053 9.0146L9.65679 9.6186C9.65666 9.61865 9.65653 9.61869 9.6564 9.61874C9.16921 9.797 8.72745 10.0837 8.35932 10.4559C7.99124 10.828 7.70507 11.2772 7.51709 11.7714L7.51352 11.7808L7.51021 11.7903L7.45324 11.9531L7.44974 11.9631L7.44653 11.9731L6.87975 13.7521C6.87973 13.7522 6.87971 13.7522 6.87969 13.7523C6.67352 14.3982 5.91546 14.4057 5.67534 13.831L5.64187 13.7385L5.07944 11.9739C5.07943 11.9739 5.07942 11.9738 5.07941 11.9738C4.91873 11.4695 4.65784 11.0044 4.31142 10.611C3.96485 10.2175 3.54024 9.90449 3.06428 9.69666L3.0541 9.69222L3.04379 9.68808L2.89188 9.62704L2.881 9.62267L2.86999 9.61864L1.21025 9.01127C0.933255 8.90991 0.761215 8.65071 0.750489 8.3193C0.73974 7.9872 0.895561 7.71537 1.14358 7.59538L1.2253 7.56145L2.86999 6.95959L2.87011 6.95954C3.35728 6.78118 3.799 6.49441 4.16706 6.12212C4.53498 5.74998 4.82102 5.30087 5.0089 4.80671L5.01246 4.79736L5.01576 4.78792L5.07273 4.62515L5.07622 4.61517L5.07943 4.60508L5.64621 2.82614C5.64624 2.82607 5.64626 2.826 5.64628 2.82594C5.85182 2.18192 6.60768 2.17171 6.8501 2.74506L6.88226 2.83695L7.44659 4.60528C7.60738 5.10945 7.86833 5.57446 8.21477 5.96768C8.56134 6.36105 8.9859 6.67388 9.46176 6.8816ZM11.6918 1.51138L11.8889 0.891666L12.086 1.51083L12.1977 1.86155L12.5434 1.98781L13.2477 2.245C13.2488 2.24829 13.2496 2.2524 13.2499 2.25714C13.2503 2.26444 13.2493 2.27064 13.248 2.27522L13.2441 2.27692L12.5439 2.53286L12.1982 2.65921L12.0867 3.00995L11.8896 3.62967L11.6924 3.0105L11.5808 2.65978L11.235 2.53353L10.5307 2.27634C10.5297 2.27305 10.5288 2.26894 10.5286 2.26419C10.5281 2.2569 10.5291 2.25069 10.5305 2.24611L10.5343 2.24442L11.2346 1.98848L11.5802 1.86212L11.6918 1.51138Z" stroke="white" stroke-width="1.5"/>
</svg>
