<svg width="217" height="215" viewBox="0 0 217 215" fill="none" xmlns="http://www.w3.org/2000/svg">
<path d="M81.4238 75.5942C80.9011 75.5942 80.3784 75.5774 79.8389 75.5268C73.2972 75.0041 67.1939 69.1706 63.5016 59.9313C57.6849 45.3811 58.157 23.6149 72.3025 7.83397C77.8494 1.64636 83.2109 -0.899499 88.2352 0.2807C97.8791 2.53994 102.212 17.7645 102.398 18.4052C102.617 19.2145 102.145 20.0406 101.352 20.2766C100.56 20.5127 99.7168 20.0406 99.4808 19.2313C99.4471 19.0964 95.4344 5.08579 87.5439 3.24805C83.683 2.33761 79.3163 4.57999 74.5617 9.87403C61.2761 24.6939 60.8546 45.1451 66.3172 58.8186C69.5712 66.9619 74.7135 72.0873 80.075 72.5088C83.7673 72.7955 86.8695 71.885 89.3142 69.7607C94.76 65.023 95.3501 55.9524 95.367 55.8512C95.4175 55.0082 96.1425 54.3675 96.9687 54.4349C97.8117 54.4855 98.4355 55.2105 98.3849 56.0367C98.368 56.4582 97.6936 66.4898 91.3037 72.0536C88.5893 74.414 85.2678 75.6111 81.4069 75.6111L81.4238 75.5942Z" fill="white"/>
<path d="M120.96 76.5215C120.96 76.5215 120.893 76.5215 120.842 76.5215C115.262 76.4541 110.052 71.9356 105.382 63.0673C104.994 62.3254 105.281 61.415 106.022 61.0272C106.764 60.6394 107.675 60.926 108.062 61.6679C112.126 69.3729 116.543 73.453 120.876 73.5036H120.96C125.057 73.5036 129.289 69.9124 132.914 63.4044C140.265 50.1862 143.468 27.5939 136.303 16.3145C132.914 10.9868 129.525 8.45779 126.221 8.79499C120.134 9.40195 114.924 19.5854 113.424 23.4632C113.12 24.2387 112.244 24.6265 111.468 24.3399C110.693 24.0364 110.305 23.1597 110.608 22.3841C110.861 21.7434 116.762 6.70434 125.934 5.79391C130.453 5.33869 134.819 8.33977 138.883 14.7128C146.621 26.8857 143.367 50.9281 135.595 64.905C131.414 72.4245 126.221 76.5721 120.977 76.5721L120.96 76.5215Z" fill="white"/>
<path d="M104.758 118.115C98.6547 118.115 94.4903 117.053 94.1363 116.969C93.327 116.749 92.838 115.923 93.0572 115.114C93.2764 114.305 94.1025 113.816 94.9118 114.035C95.0804 114.086 112.581 118.503 128.935 108.437C141.749 100.547 150.499 86.0643 154.95 65.3939C155.119 64.5678 155.928 64.062 156.754 64.2306C157.58 64.3992 158.086 65.2085 157.918 66.0346C153.281 87.5817 144.059 102.722 130.486 111.051C121.197 116.749 111.704 118.132 104.758 118.132V118.115Z" fill="white"/>
<path d="M96.9181 103.548C95.5861 103.548 94.2373 103.396 92.956 103.11C87.5102 101.879 82.2667 97.782 83.8684 89.9758C84.526 86.7724 86.1277 84.4795 88.6567 83.1475C94.5745 80.0453 103.342 83.7208 103.713 83.8894C104.488 84.2097 104.842 85.1033 104.505 85.8788C104.185 86.6544 103.291 87.0085 102.516 86.6881C102.431 86.6544 94.6757 83.4173 90.0392 85.8451C88.3532 86.7387 87.291 88.2898 86.8189 90.5828C85.4027 97.5122 91.1014 99.586 93.6135 100.159C98.8401 101.339 104.32 99.6029 105.095 96.5006C105.297 95.6913 106.124 95.2024 106.933 95.4047C107.742 95.607 108.231 96.4332 108.029 97.2425C106.983 101.424 102.01 103.565 96.9012 103.565L96.9181 103.548Z" fill="white"/>
<path d="M89.3142 30.7467C88.5218 31.5054 87.9148 32.4327 87.4427 33.4274C85.8747 36.6308 82.8231 44.9597 85.6893 49.2421C89.5334 54.9913 96.5134 50.4391 97.7779 39.6825C98.9244 29.8868 93.7821 26.4811 89.331 30.7467H89.3142Z" fill="white"/>
<path d="M115.178 36.0744C113.761 36.2936 112.649 37.3726 112.143 38.7046C110.726 42.4138 108.349 52.2937 113.373 53.7437C120.033 55.6657 122.748 34.8605 115.178 36.0576V36.0744Z" fill="white"/>
<path d="M42.6232 195.872C41.9956 195.872 41.3954 196.07 40.8888 196.444C37.0845 199.252 32.5681 200.737 27.8259 200.737C15.701 200.737 5.83538 190.891 5.83538 178.79C5.83538 166.689 15.701 156.843 27.8259 156.843C32.4677 156.843 36.911 158.273 40.672 160.981C41.1717 161.341 41.7628 161.532 42.379 161.532C43.3146 161.532 44.2001 161.081 44.7478 160.323C45.2042 159.692 45.3868 158.922 45.2613 158.155C45.1358 157.387 44.7204 156.713 44.0883 156.257C39.3278 152.83 33.7046 151.017 27.8259 151.017C12.4832 151.019 0 163.477 0 178.792C0 194.107 12.4832 206.563 27.8259 206.563C33.8256 206.563 39.5446 204.684 44.3599 201.127C45.6538 200.172 45.9277 198.343 44.9692 197.052C44.4215 196.312 43.5429 195.87 42.6209 195.87L42.6232 195.872Z" fill="white"/>
<path d="M189.174 151.019C183.174 151.019 177.455 152.898 172.64 156.456C171.346 157.41 171.072 159.239 172.031 160.53C172.579 161.27 173.457 161.712 174.379 161.712C175.007 161.712 175.607 161.514 176.114 161.141C179.918 158.332 184.434 156.847 189.176 156.847C201.301 156.847 211.167 166.693 211.167 178.795C211.167 190.896 201.301 200.742 189.176 200.742C184.535 200.742 180.091 199.311 176.33 196.603C175.831 196.243 175.239 196.052 174.623 196.052C173.688 196.052 172.802 196.503 172.254 197.262C171.798 197.892 171.615 198.662 171.741 199.43C171.866 200.197 172.282 200.872 172.914 201.327C177.675 204.755 183.298 206.568 189.176 206.568C204.521 206.568 217.002 194.109 217.002 178.797C217.002 163.484 204.519 151.023 189.176 151.023L189.174 151.019Z" fill="white"/>
<path d="M69.1597 161.018C64.2782 161.018 60.337 163.712 58.4337 166.151V140.993C58.5159 140.052 58.1074 139.171 57.3588 138.683C56.8043 138.323 56.1972 138.132 55.597 138.132C54.8394 138.132 54.1273 138.426 53.591 138.961C53.0547 139.496 52.7603 140.207 52.7603 140.963V194.437C52.7603 196.013 53.9402 197.309 55.4464 197.389C55.4966 197.391 55.5468 197.394 55.597 197.394C57.1603 197.394 58.4337 196.123 58.4337 194.563V176.683C58.4337 170.351 63.6757 165.94 68.3792 165.94C73.7878 165.94 76.6473 169.224 76.6473 175.437V194.528C76.5629 195.471 76.9714 196.353 77.7199 196.84C78.2722 197.202 78.8838 197.394 79.484 197.394C81.0472 197.394 82.3207 196.123 82.3207 194.563V174.385C82.3207 165.152 75.7116 161.018 69.1597 161.018Z" fill="white"/>
<path d="M158.286 138.132C156.124 138.132 154.296 139.972 154.296 142.152C154.296 144.332 156.086 146.133 158.286 146.133C160.486 146.133 162.391 144.348 162.391 142.152C162.391 139.956 160.549 138.132 158.286 138.132Z" fill="white"/>
<path d="M158.226 155.759C156.684 155.759 155.428 157.011 155.428 158.551V190.531C155.428 192.091 156.702 193.362 158.265 193.362C159.828 193.362 161.102 192.091 161.102 190.531L161.024 158.549C161.024 157.011 159.769 155.759 158.226 155.759Z" fill="white"/>
<path d="M147.001 162.266C145.551 161.485 143.436 161.015 141.341 161.015C137.37 161.015 134.049 163.106 132.171 165.413L132.215 162.589C132.215 161.04 130.96 159.788 129.417 159.788C129.367 159.788 129.319 159.788 129.268 159.792C127.783 159.87 126.621 161.147 126.621 162.703V194.426C126.614 194.474 126.612 194.517 126.612 194.56C126.612 196.12 127.885 197.391 129.449 197.391C131.012 197.391 132.285 196.12 132.285 194.56L132.139 176.209C132.139 174.134 133.009 171.618 134.41 169.645C135.341 168.333 137.343 166.133 140.291 166.133C142.021 166.133 143.363 166.65 144.34 167.028L144.609 167.131C145.243 167.372 145.793 167.488 146.293 167.488C146.763 167.488 147.192 167.384 147.566 167.179C148.021 166.928 148.347 166.589 148.532 166.172C148.826 165.511 148.86 164.798 148.632 164.111C148.381 163.354 147.804 162.699 147.003 162.268L147.001 162.266Z" fill="white"/>
<path d="M105.548 179.022C95.7167 179.022 89.11 185.912 89.11 196.168C89.11 206.424 95.8422 214.132 105.861 214.132C112.6 214.132 116.902 211.95 120.245 206.834C120.695 206.081 121.181 204.438 119.921 203.438C119.789 203.325 119.106 202.783 118.168 202.742C118.139 202.742 118.109 202.742 118.081 202.742C117.306 202.742 116.571 203.181 116.16 203.889C115.227 205.502 112.381 209.253 106.094 209.253C98.0855 209.253 95.0047 203.158 94.7582 197.738H119.782C120.457 197.738 121.014 197.211 121.051 196.54C121.073 196.111 121.087 195.647 121.087 195.355C121.087 185.589 114.841 179.027 105.546 179.027L105.548 179.022ZM105.587 183.906C112.255 183.906 114.982 188.572 115.341 192.772H95.0184C95.4086 190.135 97.2183 183.906 105.589 183.906H105.587Z" fill="white"/>
</svg>
