<svg width="16" height="17" viewBox="0 0 16 17" fill="none" xmlns="http://www.w3.org/2000/svg">
<path d="M11.81 15.4006H1.5C1.36739 15.4006 1.24021 15.348 1.14645 15.2542C1.05268 15.1604 1 15.0332 1 14.9006V6.73397C1 6.60137 1.05268 6.47419 1.14645 6.38042C1.24021 6.28665 1.36739 6.23397 1.5 6.23397H3.80667C4.09448 6.23398 4.37738 6.15945 4.62784 6.01765C4.87829 5.87584 5.08775 5.6716 5.23583 5.42481L7.49417 1.66064C7.66449 1.37635 7.93281 1.16409 8.24867 1.06377C8.56453 0.963449 8.90615 0.981989 9.2093 1.1159C9.51245 1.24981 9.75622 1.48987 9.89478 1.79092C10.0333 2.09198 10.0571 2.43328 9.96167 2.75064L9.11 5.59064C9.08768 5.66523 9.08309 5.744 9.09659 5.82068C9.11009 5.89736 9.14131 5.96983 9.18777 6.03231C9.23423 6.09479 9.29463 6.14556 9.36417 6.18057C9.43372 6.21558 9.51047 6.23387 9.58833 6.23397H13.4017C13.6579 6.23405 13.9106 6.2932 14.1403 6.40682C14.3699 6.52044 14.5703 6.68547 14.7258 6.8891C14.8813 7.09273 14.9877 7.32947 15.0369 7.58092C15.086 7.83238 15.0766 8.09178 15.0092 8.33897L13.4175 14.1723C13.3214 14.5249 13.1121 14.8361 12.8218 15.058C12.5315 15.28 12.1754 15.4004 11.81 15.4006Z" fill="#E52C32" stroke="#E52C32" stroke-width="1.2" stroke-linecap="round"/>
<path d="M11.81 15.4006H1.5C1.36739 15.4006 1.24021 15.348 1.14645 15.2542C1.05268 15.1604 1 15.0332 1 14.9006V6.73397C1 6.60137 1.05268 6.47419 1.14645 6.38042C1.24021 6.28665 1.36739 6.23397 1.5 6.23397H3.80667C4.09448 6.23398 4.37738 6.15945 4.62784 6.01765C4.87829 5.87584 5.08775 5.6716 5.23583 5.42481L7.49417 1.66064C7.66449 1.37635 7.93281 1.16409 8.24867 1.06377C8.56453 0.963449 8.90616 0.981989 9.2093 1.1159C9.51245 1.24981 9.75622 1.48987 9.89478 1.79092C10.0333 2.09198 10.0571 2.43328 9.96167 2.75064L9.11 5.59064C9.08768 5.66523 9.08309 5.744 9.09659 5.82068C9.11009 5.89736 9.14132 5.96983 9.18777 6.03231C9.23423 6.09479 9.29463 6.14556 9.36417 6.18057C9.43372 6.21558 9.51047 6.23387 9.58833 6.23397H13.4017C13.6579 6.23405 13.9106 6.2932 14.1403 6.40682C14.3699 6.52044 14.5703 6.68547 14.7258 6.8891C14.8813 7.09273 14.9877 7.32947 15.0369 7.58092C15.086 7.83238 15.0766 8.09178 15.0092 8.33897L13.4175 14.1723C13.3214 14.5249 13.1121 14.8361 12.8218 15.058C12.5315 15.28 12.1754 15.4004 11.81 15.4006Z" fill="#E52C32" stroke="#E52C32" stroke-width="1.2" stroke-linecap="round"/>
<path d="M4.0835 15.7344L4.0835 5.73438" stroke="white" stroke-width="1.2" stroke-linecap="square" stroke-linejoin="round"/>
</svg>
