<svg width="52" height="52" viewBox="0 0 52 52" fill="#B0ABAB" xmlns="http://www.w3.org/2000/svg">
<path fill-rule="evenodd" clip-rule="evenodd" d="M0.93934 0.93934C1.52513 0.353553 2.47487 0.353553 3.06066 0.93934L26 23.8787L48.9393 0.93934C49.5251 0.353553 50.4749 0.353553 51.0607 0.93934C51.6464 1.52513 51.6464 2.47487 51.0607 3.06066L28.1213 26L51.0607 48.9393C51.6464 49.5251 51.6464 50.4749 51.0607 51.0607C50.4749 51.6464 49.5251 51.6464 48.9393 51.0607L26 28.1213L3.06066 51.0607C2.47487 51.6464 1.52513 51.6464 0.93934 51.0607C0.353553 50.4749 0.353553 49.5251 0.93934 48.9393L23.8787 26L0.93934 3.06066C0.353553 2.47487 0.353553 1.52513 0.93934 0.93934Z" />
</svg>
